<svg width="14" height="14" viewBox="0 0 14 14" fill="none" xmlns="http://www.w3.org/2000/svg">
<path d="M7.01367 6.11631C4.82609 6.11631 1.76347 9.47972 1.76347 11.6126C1.76347 12.5697 2.47443 13.1166 3.70495 13.1166C5.04484 13.1166 5.91988 12.433 7.01367 12.433C8.08012 12.433 8.95515 13.1166 10.2951 13.1166C11.5256 13.1166 12.2639 12.5697 12.2639 11.6126C12.2639 9.47972 9.17391 6.11631 7.01367 6.11631ZM2.96664 5.78817C2.69319 4.8311 1.81816 4.22952 1.02516 4.42093C0.232156 4.61234 -0.205361 5.51472 0.0954322 6.47179C0.36888 7.42886 1.24391 8.03045 2.03691 7.83903C2.82991 7.64762 3.26743 6.74524 2.96664 5.78817ZM5.29095 5.21393C6.13864 4.99517 6.54881 3.84669 6.24802 2.67086C5.91988 1.46769 4.96281 0.702033 4.11512 0.920792C3.26743 1.13955 2.85726 2.28803 3.15805 3.46386C3.48619 4.66703 4.44326 5.43269 5.29095 5.21393ZM12.9748 4.42093C12.1818 4.22952 11.3068 4.8311 11.0334 5.78817C10.7326 6.74524 11.1701 7.64762 11.9631 7.83903C12.7561 8.03045 13.6311 7.42886 13.9046 6.47179C14.2054 5.51472 13.7678 4.61234 12.9748 4.42093ZM8.70905 5.21393C9.55674 5.43269 10.5138 4.66703 10.8419 3.46386C11.1427 2.28803 10.7326 1.13955 9.88488 0.920792C9.03719 0.702033 8.08012 1.46769 7.75198 2.67086C7.45119 3.84669 7.86136 4.99517 8.70905 5.21393Z" fill="#4F4F4F"/>
</svg>
