<svg width="137" height="24" viewBox="0 0 137 24" fill="none" xmlns="http://www.w3.org/2000/svg">
<g clip-path="url(#clip0_959_890)">
<path d="M35.9063 16.8304H38.5722V6.37215H42.0582V3.84304H32.4431V6.37215H35.9063V16.8304ZM42.0582 16.8304H44.5646V12.4557C44.5646 10.9291 45.3393 10.0177 46.5469 10.0177C46.957 10.0177 47.2988 10.0861 47.6861 10.2228V7.67089C47.4127 7.60254 47.1165 7.55697 46.8431 7.55697C45.8177 7.55697 44.8836 8.24051 44.5646 9.12912V7.67089H42.0582V16.8304ZM52.4937 17.0354C53.7469 17.0354 54.7038 16.3975 55.1367 15.8051V16.8304H57.6431V7.69367H55.1367V8.71899C54.7266 8.12658 53.7696 7.48861 52.4937 7.48861C50.0557 7.48861 48.1874 9.67595 48.1874 12.2734C48.1874 14.8481 50.0557 17.0354 52.4937 17.0354ZM53.0177 14.757C51.6279 14.757 50.7165 13.7089 50.7165 12.2734C50.7165 10.838 51.6279 9.78987 53.0177 9.78987C54.4076 9.78987 55.319 10.838 55.319 12.2734C55.319 13.7089 54.4076 14.757 53.0177 14.757ZM63.5899 17.0354C64.8431 17.0354 65.8 16.3975 66.2329 15.8051V16.8304H68.7393V3.11392H66.2329V8.71899C65.8228 8.12658 64.8658 7.48861 63.5899 7.48861C61.1519 7.48861 59.2836 9.67595 59.2836 12.2734C59.3063 14.8481 61.1519 17.0354 63.5899 17.0354ZM64.1367 14.757C62.7469 14.757 61.8355 13.7089 61.8355 12.2734C61.8355 10.838 62.7469 9.78987 64.1367 9.78987C65.5266 9.78987 66.438 10.838 66.438 12.2734C66.438 13.7089 65.5266 14.757 64.1367 14.757ZM72.2253 6.3038C73.1139 6.3038 73.8431 5.59747 73.8431 4.70886C73.8431 3.82025 73.1139 3.11392 72.2253 3.11392C71.3595 3.11392 70.6304 3.82025 70.6304 4.70886C70.6532 5.57468 71.3595 6.28101 72.2253 6.3038ZM70.995 16.8304H73.5013V7.78481H70.995V16.8304ZM75.7114 16.8304H78.2177V12.3646C78.2177 10.6101 79.0836 9.76709 80.2456 9.76709C81.2937 9.76709 81.8633 10.5646 81.8633 11.8861V16.8304H84.3696V11.4759C84.3696 9.10633 83.0481 7.48861 80.838 7.48861C79.6532 7.48861 78.719 7.98987 78.2177 8.74177V7.69367H75.7114V16.8304ZM90.7494 14.3924C89.4962 14.3924 88.4253 13.4354 88.4253 12.0456C88.4253 10.6329 89.4734 9.69874 90.7494 9.69874C92.0025 9.69874 93.0734 10.6329 93.0734 12.0456C93.0734 13.4582 92.0253 14.3924 90.7494 14.3924ZM90.4532 20.7949C93.2557 20.7949 95.3747 19.3595 95.3747 16.0785V7.6481H92.8684V8.67342C92.3671 7.96709 91.3874 7.44304 90.2253 7.44304C87.8329 7.44304 85.919 9.49367 85.919 12.0684C85.919 14.6203 87.8329 16.6709 90.2253 16.6709C91.3874 16.6709 92.3899 16.1468 92.8684 15.4633V16.0785C92.8684 17.5367 91.8886 18.5848 90.4076 18.5848C89.3823 18.5848 88.357 18.243 87.5595 17.4456L86.1924 19.3139C87.2405 20.3392 88.8582 20.7949 90.4532 20.7949ZM100.684 16.8304H103.053L108.43 3.84304H105.514L101.891 12.8658L98.2228 3.84304H95.3519L100.684 16.8304ZM110.709 6.18987C111.597 6.18987 112.304 5.48354 112.327 4.59494C112.327 3.70633 111.597 3 110.709 3C109.843 3 109.114 3.70633 109.114 4.59494C109.114 5.48354 109.866 6.18987 110.709 6.18987ZM109.479 16.8304H111.985V7.67089H109.479V16.8304ZM118.456 17.0354C120.37 17.0354 121.828 16.238 122.694 14.9848L120.825 13.5949C120.415 14.2329 119.618 14.757 118.456 14.757C117.248 14.757 116.177 14.0734 116.018 12.843H122.853C122.899 12.4557 122.899 12.2051 122.899 11.9772C122.899 8.99241 120.803 7.48861 118.387 7.48861C115.608 7.48861 113.58 9.56202 113.58 12.2506C113.625 15.1443 115.744 17.0354 118.456 17.0354ZM116.132 11.157C116.382 10.0405 117.408 9.56203 118.342 9.56203C119.276 9.56203 120.187 10.0633 120.415 11.157H116.132ZM132.309 16.8304H134.792L137.8 7.67089H135.111L133.403 13.5266L131.534 7.67089H129.62L127.775 13.5266L126.043 7.67089H123.377L126.408 16.8304H128.891L130.6 11.6354L132.309 16.8304Z" fill="#0A142F"/>
<path d="M11.2076 16.8304H6.14935V8.90125H1.09113V3.84302H11.1848V16.8304H11.2076ZM21.324 16.8304H15.5595L20.9823 3.84302H26.7468L21.324 16.8304ZM15.5367 3.84302C17.1316 3.84302 18.4304 5.14175 18.4304 6.73669C18.4304 8.33163 17.1316 9.63036 15.5367 9.63036C13.9418 9.63036 12.643 8.33163 12.643 6.73669C12.6658 5.14175 13.9418 3.84302 15.5367 3.84302Z" fill="#0A142F"/>
</g>
<defs>
<clipPath id="clip0_959_890">
<rect width="137" height="24" fill="white"/>
</clipPath>
</defs>
</svg>
