<svg width="22" height="23" viewBox="0 0 22 23" fill="none" xmlns="http://www.w3.org/2000/svg">
<path d="M11.0001 22.0115C16.8847 22.0115 21.6551 17.1188 21.6551 11.0834C21.6551 5.04798 16.8847 0.155273 11.0001 0.155273C5.1156 0.155273 0.345215 5.04798 0.345215 11.0834C0.345215 17.1188 5.1156 22.0115 11.0001 22.0115Z" fill="#34AADF"/>
<path d="M4.91278 10.844C4.91278 10.844 10.1907 8.54103 12.0212 7.7301C12.7229 7.40575 15.1025 6.36775 15.1025 6.36775C15.1025 6.36775 16.2008 5.91367 16.1093 7.01649C16.0787 7.47062 15.8347 9.05999 15.5906 10.7791C15.2245 13.2119 14.8279 15.8717 14.8279 15.8717C14.8279 15.8717 14.7669 16.6177 14.2483 16.7475C13.7296 16.8772 12.8754 16.2934 12.7229 16.1636C12.6008 16.0663 10.4347 14.6067 9.64153 13.893C9.42797 13.6984 9.18392 13.3092 9.67202 12.8551C10.7703 11.7847 12.0822 10.4548 12.8754 9.61145C13.2415 9.22219 13.6076 8.31397 12.0822 9.41679C9.91611 11.0062 7.78054 12.4983 7.78054 12.4983C7.78054 12.4983 7.2924 12.8226 6.37717 12.5307C5.46189 12.2388 4.39411 11.8495 4.39411 11.8495C4.39411 11.8495 3.66195 11.363 4.91278 10.844Z" fill="white"/>
</svg>
