<svg width="22" height="22" viewBox="0 0 22 22" fill="none" xmlns="http://www.w3.org/2000/svg">
<path d="M11 21.9281C16.8846 21.9281 21.655 17.0354 21.655 10.9999C21.655 4.96448 16.8846 0.0717773 11 0.0717773C5.11548 0.0717773 0.345093 4.96448 0.345093 10.9999C0.345093 17.0354 5.11548 21.9281 11 21.9281Z" fill="#34AADF"/>
<path d="M4.91272 10.7605C4.91272 10.7605 10.1906 8.45754 12.0211 7.6466C12.7228 7.32226 15.1024 6.28426 15.1024 6.28426C15.1024 6.28426 16.2007 5.83017 16.1092 6.933C16.0787 7.38713 15.8346 8.97649 15.5906 10.6956C15.2244 13.1284 14.8278 15.7882 14.8278 15.7882C14.8278 15.7882 14.7668 16.5342 14.2482 16.664C13.7296 16.7937 12.8753 16.2099 12.7228 16.0801C12.6007 15.9828 10.4347 14.5232 9.64147 13.8095C9.42791 13.6149 9.18386 13.2257 9.67196 12.7716C10.7703 11.7012 12.0821 10.3713 12.8753 9.52795C13.2414 9.13869 13.6075 8.23047 12.0821 9.3333C9.91605 10.9227 7.78048 12.4148 7.78048 12.4148C7.78048 12.4148 7.29234 12.7391 6.3771 12.4472C5.46183 12.1553 4.39404 11.7661 4.39404 11.7661C4.39404 11.7661 3.66189 11.2795 4.91272 10.7605Z" fill="white"/>
</svg>
