<svg xmlns="http://www.w3.org/2000/svg" width="137" height="24" fill="none"><g fill="#0A142F" clip-path="url(#a)"><path d="M35.906 16.83h2.666V6.372h3.486V3.843h-9.615v2.53h3.463V16.83Zm6.152 0h2.507v-4.374c0-1.527.774-2.438 1.982-2.438.41 0 .752.068 1.14.205V7.67a3.574 3.574 0 0 0-.844-.114c-1.025 0-1.96.684-2.278 1.572V7.671h-2.507v9.16Zm10.436.205c1.253 0 2.21-.637 2.643-1.23v1.025h2.506V7.694h-2.506v1.025c-.41-.592-1.367-1.23-2.643-1.23-2.438 0-4.307 2.187-4.307 4.784 0 2.575 1.869 4.762 4.307 4.762Zm.524-2.278c-1.39 0-2.301-1.048-2.301-2.484 0-1.435.91-2.483 2.3-2.483 1.39 0 2.302 1.048 2.302 2.483 0 1.436-.911 2.484-2.301 2.484Zm10.572 2.278c1.253 0 2.21-.637 2.643-1.23v1.025h2.506V3.114h-2.506v5.605c-.41-.592-1.367-1.23-2.643-1.23-2.438 0-4.306 2.187-4.306 4.784.022 2.575 1.868 4.762 4.306 4.762Zm.547-2.278c-1.39 0-2.301-1.048-2.301-2.484 0-1.435.91-2.483 2.3-2.483 1.39 0 2.302 1.048 2.302 2.483 0 1.436-.911 2.484-2.301 2.484Zm8.088-8.453c.889 0 1.618-.707 1.618-1.595 0-.889-.73-1.595-1.618-1.595a1.6 1.6 0 0 0-1.595 1.595c.023.866.73 1.572 1.595 1.595Zm-1.23 10.526h2.506V7.785h-2.506v9.045Zm4.716 0h2.507v-4.465c0-1.755.866-2.598 2.028-2.598 1.048 0 1.617.798 1.617 2.12v4.943h2.507v-5.354c0-2.37-1.322-3.987-3.532-3.987-1.185 0-2.119.5-2.62 1.253V7.694H75.71v9.136Zm15.038-2.438c-1.253 0-2.324-.957-2.324-2.346 0-1.413 1.048-2.347 2.324-2.347 1.254 0 2.324.934 2.324 2.347 0 1.412-1.048 2.346-2.324 2.346Zm-.296 6.403c2.803 0 4.922-1.436 4.922-4.717v-8.43h-2.507v1.025c-.5-.706-1.48-1.23-2.643-1.23-2.392 0-4.306 2.05-4.306 4.625 0 2.552 1.914 4.603 4.306 4.603 1.162 0 2.165-.524 2.643-1.208v.615c0 1.459-.98 2.507-2.46 2.507-1.026 0-2.051-.342-2.849-1.14l-1.367 1.869c1.049 1.025 2.666 1.48 4.261 1.48Zm10.231-3.965h2.369l5.377-12.987h-2.916l-3.623 9.023-3.668-9.023h-2.871l5.332 12.987Zm10.025-10.64a1.62 1.62 0 0 0 1.618-1.595c0-.889-.73-1.595-1.618-1.595a1.6 1.6 0 0 0-1.595 1.595c0 .889.752 1.595 1.595 1.595Zm-1.23 10.64h2.506V7.67h-2.506v9.16Zm8.977.205c1.914 0 3.372-.797 4.238-2.05l-1.869-1.39c-.41.638-1.207 1.162-2.369 1.162-1.208 0-2.279-.684-2.438-1.914h6.835c.046-.387.046-.638.046-.866 0-2.985-2.096-4.488-4.512-4.488-2.779 0-4.807 2.073-4.807 4.762.045 2.893 2.164 4.784 4.876 4.784Zm-2.324-5.878c.25-1.117 1.276-1.595 2.21-1.595.934 0 1.845.501 2.073 1.595h-4.283Zm16.177 5.673h2.483l3.008-9.16h-2.689l-1.708 5.857-1.869-5.856h-1.914l-1.845 5.856-1.732-5.856h-2.666l3.031 9.16h2.483l1.709-5.196 1.709 5.195ZM11.208 16.83H6.149V8.901H1.091V3.843h10.094V16.83h.023Zm10.116 0h-5.765l5.423-12.987h5.765L21.324 16.83ZM15.537 3.843a2.898 2.898 0 0 1 2.893 2.894 2.898 2.898 0 0 1-2.893 2.893 2.898 2.898 0 0 1-2.894-2.893c.023-1.595 1.299-2.894 2.894-2.894Z"/></g><defs><clipPath id="a"><path fill="#fff" d="M0 0h137v24H0z"/></clipPath></defs></svg>