<svg xmlns="http://www.w3.org/2000/svg" width="14" height="14" fill="none"><path fill="#4F4F4F" d="M7.014 6.116c-2.188 0-5.25 3.364-5.25 5.497 0 .957.71 1.504 1.941 1.504 1.34 0 2.215-.684 3.309-.684 1.066 0 1.941.684 3.281.684 1.23 0 1.969-.547 1.969-1.504 0-2.133-3.09-5.497-5.25-5.497Zm-4.047-.328c-.274-.957-1.149-1.558-1.942-1.367-.793.191-1.23 1.094-.93 2.05.274.958 1.149 1.56 1.942 1.368.793-.191 1.23-1.094.93-2.05Zm2.324-.574c.848-.219 1.258-1.367.957-2.543C5.92 1.468 4.963.702 4.115.92c-.848.219-1.258 1.367-.957 2.543.328 1.203 1.285 1.969 2.133 1.75Zm7.684-.793c-.793-.191-1.668.41-1.942 1.367-.3.957.137 1.86.93 2.051.793.191 1.668-.41 1.942-1.367.3-.957-.137-1.86-.93-2.051Zm-4.266.793c.848.219 1.805-.547 2.133-1.75.3-1.176-.11-2.324-.957-2.543-.848-.219-1.805.547-2.133 1.75-.3 1.176.11 2.324.957 2.543Z"/></svg>