<svg xmlns="http://www.w3.org/2000/svg" width="24" height="24" fill="none"><g clip-path="url(#a)"><path fill="#0A142F" fill-rule="evenodd" d="M20.105 6.97c.539.56.715 1.834.715 1.834S21 10.3 21 11.796v1.402c0 1.496-.18 2.991-.18 2.991s-.176 1.274-.715 1.835c-.617.663-1.301.732-1.688.77l-.116.013C15.782 18.994 12 19 12 19s-4.68-.044-6.12-.186a3.917 3.917 0 0 0-.245-.035c-.456-.056-1.172-.144-1.74-.755-.54-.561-.715-1.835-.715-1.835S3 14.694 3 13.198v-1.402c0-1.496.18-2.992.18-2.992s.175-1.273.715-1.834c.618-.665 1.303-.732 1.69-.77a5.43 5.43 0 0 0 .114-.013C8.218 6 11.996 6 11.996 6h.008s3.778 0 6.297.187l.115.012c.386.039 1.071.106 1.689.77ZM10.14 9.704v5.193l4.863-2.587-4.863-2.606Z" clip-rule="evenodd"/></g><defs><clipPath id="a"><path fill="#fff" d="M0 0h24v24H0z"/></clipPath></defs></svg>