<svg xmlns="http://www.w3.org/2000/svg" width="22" height="23" fill="none"><path fill="#34AADF" d="M11 22.012c5.885 0 10.655-4.893 10.655-10.929C21.655 5.048 16.885.155 11 .155 5.116.155.345 5.048.345 11.083c0 6.036 4.77 10.929 10.655 10.929Z"/><path fill="#fff" d="M4.913 10.844S10.19 8.541 12.02 7.73c.702-.324 3.081-1.362 3.081-1.362s1.099-.454 1.007.648c-.03.455-.274 2.044-.518 3.763-.366 2.433-.763 5.093-.763 5.093s-.061.746-.58.875c-.518.13-1.373-.454-1.525-.583-.122-.098-2.288-1.557-3.081-2.271-.214-.195-.458-.584.03-1.038 1.098-1.07 2.41-2.4 3.203-3.244.367-.389.733-1.297-.793-.194-2.166 1.59-4.301 3.081-4.301 3.081s-.489.325-1.404.033c-.915-.292-1.983-.681-1.983-.681s-.732-.487.519-1.006Z"/></svg>