<svg xmlns="http://www.w3.org/2000/svg" width="873" height="270" fill="none"><g clip-path="url(#a)"><path fill="#000" d="M299 104c5.141-.074 10.282-.129 15.424-.165 1.746-.015 3.493-.035 5.24-.061 2.52-.037 5.039-.054 7.559-.067l2.343-.047c6.54-.002 11.139 1.402 16.246 5.715 4.183 5.018 4.489 9.638 4.507 15.995l.03 2.515c.031 2.732.048 5.465.065 8.197a5334.898 5334.898 0 0 1 .187 20.664c.04 5.095.091 10.189.141 15.283.097 9.99.181 19.981.258 29.971 1.267-1.254 2.532-2.509 3.797-3.766l2.136-2.118a110.965 110.965 0 0 0 5.317-5.866c3.567-4.156 7.437-7.966 11.331-11.812 3.48-3.454 6.77-7.012 9.95-10.747 2.045-2.354 4.231-4.521 6.469-6.691a4856.02 4856.02 0 0 0-5.188-2.375l-2.917-1.336A186.262 186.262 0 0 0 374 154v-5h45v5l-3.234.828C398.388 160.036 387.136 173.243 376 187c1.684 4.944 4.443 9.076 7.25 13.438l1.604 2.514c1.133 1.775 2.267 3.55 3.403 5.323 2.288 3.578 4.558 7.166 6.829 10.755a1686.04 1686.04 0 0 0 5.266 8.228 486.826 486.826 0 0 1 7.484 12.109l3.852 6.258 1.723 2.964c4.366 6.991 8.593 9.513 16.589 11.411v4c-5.408.075-10.815.129-16.223.165-1.837.015-3.674.035-5.511.061-2.651.037-5.302.054-7.954.067l-2.459.047c-9.002.003-15.522-2.994-22.08-9.168-6.318-6.819-10.892-15.316-15.773-23.172l-9-14-1 39 8 1c2.017.612 4.026 1.26 6 2v4h-65v-4c1.769-.505 3.541-1.004 5.312-1.5l2.989-.844C310 257 310 257 313 257l-1-145-12-3-1-5ZM3 104c4.535-.075 9.07-.129 13.605-.165 1.539-.015 3.078-.035 4.617-.062 14.368-.237 23.454 1.524 34.184 11.453 5.198 5.054 9.856 10.396 14.38 16.055 2.161 2.654 4.406 5.191 6.714 7.719a230.46 230.46 0 0 1 8.75 10.187c5.215 6.44 10.663 12.667 16.104 18.916 4.068 4.686 8.093 9.408 12.127 14.123 1.597 1.864 3.196 3.726 4.796 5.586l1.635 1.902 3.08 3.581 1.414 1.646 1.229 1.428c1.825 2.18 3.589 4.411 5.365 6.631l1-88-10-3a92.874 92.874 0 0 1-5.125-2.188l-2.258-1.043L113 108v-4h45l-1 5c-2.709 1.383-5.08 2.376-7.938 3.312l-2.248.799C141.404 115 141.404 115 139 115v153c-8 0-8 0-10.984-2.571a113.035 113.035 0 0 1-2.766-3.554 3747.847 3747.847 0 0 0-3.098-3.871l-1.574-2.015c-2.493-3.142-5.133-6.152-7.766-9.177a552.13 552.13 0 0 1-10.5-12.562c-3.555-4.382-7.28-8.567-11.078-12.738-2.235-2.514-4.368-5.085-6.484-7.7-5.215-6.439-10.663-12.667-16.103-18.916-4.076-4.694-8.109-9.425-12.15-14.149-1.53-1.786-3.064-3.568-4.599-5.349-5.31-6.167-10.562-12.364-15.668-18.703-3.002-3.628-6.129-7.151-9.23-10.695v107l18 7v4H0v-4l18-7V113l-14-4-1-5ZM537.887 158.141c11.56 9.884 18.816 23.632 20.113 38.859 1.08 19.668-1.096 37.993-14.375 53.5-4.126 4.266-8.443 7.618-13.625 10.5l-2.039 1.145c-16.241 8.12-37.844 8.078-54.961 2.855-14.969-5.845-25.536-15.062-32.246-29.723-6.751-17.185-7.335-38.747-.313-56.043 6.956-14.911 17.28-24.254 32.477-30.199 21.075-7.078 47.077-4.162 64.969 9.106Zm-52.485 0c-8.966 14.011-9.757 30.48-9.663 46.672.011 2.185 0 4.369-.012 6.554-.017 16.331 1.184 33.115 11.273 46.633 3.251 2.969 5.672 4.22 10 4.5 5.116-.321 8.154-2.441 11.562-6.242 8.163-10.815 9.565-25.582 9.641-38.754l.017-2.4a1393 1393 0 0 0 .02-5.009c.01-2.495.041-4.989.072-7.484.106-16.106-.57-34.598-11.75-47.236-3.546-3.121-6.806-3.847-11.546-3.672-4.449.655-6.982 2.912-9.614 6.438ZM265.617 157.004c8.712 7.432 15.534 16.471 17.383 27.996.796 15.652.796 15.652-2 21-4.546 1.591-9.06 2.407-13.824 3.035l-3.869.514-1.993.256c-1.98.255-3.959.519-5.937.783-11.574 1.517-22.951 2.583-34.627 2.474l-2.871-.013c-2.293-.012-4.586-.028-6.879-.049.394 3.773.82 7.543 1.25 11.312l.332 3.19c1.297 11.093 4.055 22.55 13.125 29.877C231.65 260.97 238.278 260.8 245 260c9.477-2.461 16.506-7.241 21.711-15.508 2.063-3.988 3.253-8.138 4.289-12.492h6c.755 8.682-2.426 15.511-7.875 22.187-8.884 9.309-21 13.658-33.639 14.092-16.722.277-30.825-3.529-44.486-13.279l-2.625-1.75c-13.189-12.495-16.707-29.102-17.336-46.461-.291-15.629 3.895-30.672 13.961-42.789l1.734-2.145c18.786-20.993 57.2-21.453 78.883-4.851ZM219 157c-8.802 13.979-8.235 33.055-8 49 3.479.059 6.958.094 10.438.125l2.951.051c9.018.179 9.018.179 17.611-2.176 3.186-4.945 2.33-11.953 2.313-17.688l.048-3.107c.008-11.43-2.368-21.592-10.173-30.205-6.534-2.987-11.041-1.529-15.188 4Z"/><path fill="#7E7E7E" d="M692 0c2.188 0 2.188 0 5 1 5.18 6.508 7.625 14.416 10.358 22.18a337.048 337.048 0 0 0 1.619 4.468c3.569 9.989 4.387 19.992 4.335 30.54l-.012 3.587c-.147 11.442-.975 22.638-6.21 33.03-1.307 2.631-2.335 5.333-3.402 8.07-2.19 5.298-4.892 9.976-8.083 14.73-1.711 2.477-1.711 2.477-3.355 5.583-4.907 6.133-12.691 12.124-20.68 13.113l-2.445.011-2.43.051c-6.293-.848-11.499-4.304-16.695-7.738l-1.86-1.208c-3.077-2.009-6.084-4.077-9.015-6.292-3.634-2.471-6.968-3.739-11.125-5.125-3.929 9.578-4.725 18.013-3.793 28.281.678 1.959.678 1.959 3.027 2.746L630 148c17.447 11.024 27.839 25.31 32.527 45.242.298 1.903.381 3.834.473 5.758l.152 2.957c.382 13.373-1.941 26.119-6.09 38.793l-.729 2.237c-3.978 11.475-11.853 18.259-22.2 24.06-6.745 3.068-15.204 3.076-22.344 1.449-4.841-1.917-9.969-5.201-13.227-9.308-1.615-6.284-.827-11.608 2.438-17.188 1.921-2.208 4.071-4.114 6.25-6.062 8.467-8.005 13.663-17.346 15.75-28.938h2c.05-4.089.086-8.179.11-12.268.01-1.387.023-2.774.041-4.16.099-8.094-.163-15.694-2.151-23.572-.312-1.457-.622-2.914-.93-4.371-.313-1.356-.628-2.712-.945-4.067l-.449-2.099c-.684-2.876-1.279-5.041-3.328-7.221-13.623-7.208-27.854-11.041-43.024-13.23l-3.537-.513c-2.32-.327-4.642-.638-6.966-.929-10.056-1.379-10.056-1.379-13.821-5.57-2.357-4.714-1.828-11.448-.234-16.359 4.105-7.459 12.188-11.226 19.929-14.024 4.53-1.213 9.076-1.234 13.742-1.242l3.261-.011c12.336.256 23.69 3.714 35.302 7.636l3 1c1.647-2.624 3.293-5.249 4.938-7.875l1.419-2.262 1.358-2.168 1.254-2C637.112 86.53 636.586 80.892 636 75c-2.288-6.982-6.866-12.995-11-19-3.811-5.914-4.657-11.016-4-18 3.587-10.362 15.936-15.904 25.113-20.59 7.138-3.332 12.862-4.58 20.762-4.535l2.066-.012c4.45.009 8.669.415 13.059 1.137l1.375-2.5L685 9h2l.812-2.25c1.13-2.616 2.397-4.552 4.188-6.75Zm1 10a102.605 102.605 0 0 0-4.125 6l-1.129 1.734A669.072 669.072 0 0 0 685 22c-7.473-.887-7.473-.887-10.414-1.52-12.904-2.397-22.87 1.138-33.742 7.82-2.452 1.466-4.864 2.669-7.469 3.825-3.426 1.558-3.426 1.558-4.875 4.188-2.029 10.906 3.158 18.052 8.916 26.726C642.549 70.988 643.972 78.602 643 88c-1.733 6.433-5.64 11.583-9.609 16.836-1.661 2.156-1.661 2.156-1.391 5.164l2.309 1.102c7.551 3.676 14.499 7.664 21.152 12.796 5.334 4.022 9.673 6.79 16.539 6.102 12.805-4.519 19.866-17.775 25.398-29.32 10.953-24.515 12.212-52.838 3.036-78.188-1.63-4.246-3.399-8.423-5.434-12.492h-2ZM559.437 111.562l-1.941 1.817c-2.76 2.991-2.736 5.664-3.019 9.648.361 2.204.361 2.204 2.689 3.536 3.045 1.544 5.328 2.015 8.709 2.394l3.456.424 3.669.431c15.323 1.984 29.599 5.648 44 11.188l.113-2.789c.47-9.035 1.728-17.399 3.887-26.211-2.289-.8-4.581-1.59-6.875-2.375l-1.914-.672c-9.028-3.069-17.687-4.299-27.211-4.265l-2.789-.049c-8.206-.006-16.632.987-22.774 6.923ZM628 155c.438 3.212.888 6.405 1.488 9.592 1.374 7.435 1.863 14.604 1.824 22.158l-.012 3.431c-.162 12.054-1.198 24.141-7.3 34.819l-1.203 2.152c-3.635 5.944-8.351 10.546-13.406 15.27-3.413 3.681-4.416 6.143-4.329 11.14 1.124 4.12 2.359 5.222 5.938 7.438 6.226 2.075 15.848 2.296 22.062-.188 8.643-5.332 14.001-11.653 17.563-21l.905-2.353c6.799-18.669 8.063-39.318-.112-57.705-2.053-3.987-4.527-7.344-7.418-10.754l-1.398-1.797c-3.891-4.858-8.492-8.664-13.602-12.203h-1Z"/><path fill="#828282" d="M743.5 171.437c7.932 5.279 14.227 10.975 19.938 18.625l1.707 2.267C789 224.383 789 224.383 789 238c6.62-.118 13.241-.243 19.861-.372 2.252-.044 4.504-.085 6.757-.125 3.237-.058 6.473-.122 9.71-.187l3.053-.05 2.85-.061 2.504-.047c2.201-.154 4.148-.552 6.265-1.158 1.386-6.689 1.386-6.689-.688-12.938-4.058-2.527-7.853-3.186-12.488-4.183-4.256-1.325-5.551-3.118-7.824-6.879-1.356-4.068-1.531-7.747-1-12 2.654-5.118 5.531-8.177 11-10 11.226-1.057 20.735 1.659 29.93 8.168 7.803 6.905 12.616 16.688 13.273 27.031.172 12.758-2.181 22.305-11.055 31.777-4.561 4.271-9.297 6.903-15.148 9.024l-2.727 1.034c-3.475 1.025-6.298 1.225-9.914 1.24l-1.946.016c-2.137.015-4.274.016-6.411.016l-4.614.025c-4.167.022-8.334.031-12.502.036-2.605.004-5.209.01-7.814.017-9.091.025-18.182.038-27.273.041-8.469.004-16.939.034-25.408.076-7.277.034-14.555.05-21.832.051-4.344 0-8.688.009-13.032.038-4.085.026-8.169.028-12.253.012a373.78 373.78 0 0 0-4.492.021c-12.715.127-12.715.127-16.673-2.961C677 263 677 263 676.25 259.812c1.057-5.374 3.672-9.341 6.75-13.812l1.574-2.301L686 242h2l.773-1.797c1.345-2.415 2.719-3.715 4.852-5.453l1.914-1.578L697 232c-3.035-4.703-6.14-9.23-9.688-13.563-6.172-7.889-7.843-16.348-7.097-26.304.93-6.398 2.943-10.979 6.785-16.133l1.688-2.625c15.778-16.205 37.289-13.205 54.812-1.938Zm-49.438 6.375c-5.41 6.865-6.698 13.086-6.476 21.809 1.05 8.572 5.262 17.245 11.414 23.379h2l2 4 5-1v-2c14.043-5.174 28.711-8.871 43-3 3.551 2.293 5.39 4.133 7 8 .579 4.203.424 7.916-1.125 11.875-2.318 2.627-4.671 3.772-7.875 5.125v2c-15.148.679-26.633-.013-39.414-9.082-1.713-1.169-1.713-1.169-4.586-.918v-2c-6.244.72-10.213 6.093-13.875 10.687-2.439 2.844-2.439 2.844-3.125 6.313h-2c-1.772 2.286-1.772 2.286-3 5l1 3c3.224 1.074 5.552 1.131 8.943 1.14l3.764.018 4.137.003 4.351.015c3.945.013 7.89.02 11.834.024a19908.23 19908.23 0 0 0 30.585.039c8.905.004 17.809.022 26.714.051 6.891.021 13.782.031 20.673.033 4.111.001 8.222.007 12.333.025 3.875.016 7.749.018 11.623.009 1.414 0 2.829.004 4.243.014 12.464.082 22.949-1.251 32.8-9.371 6.281-6.281 10.034-14.661 10.312-23.563-.143-9.757-4.475-19.491-11.312-26.437-7.429-4.79-15.04-8.031-24-7-3.745 1.729-3.745 1.729-6 5-.385 5.854-.385 5.854 2 11 2.952 1.759 5.557 2.338 8.938 2.812 4.757.911 7.17 2.12 10.062 6.188 2.187 4.943 2.241 8.788.902 13.914-1.537 3.553-3.683 4.984-6.902 7.086-3.004 1.001-4.977 1.121-8.114 1.113h-3.154l-3.4-.016-3.485-.004c-3.678-.005-7.356-.018-11.035-.031l-7.474-.013c-6.113-.011-12.225-.028-18.338-.049l-1.406-3.239-1.871-4.296-.922-2.124C776.328 223.082 771.567 213.104 765 204l-1.941-2.746c-9.299-13.004-22.078-28.796-38.739-32-12.139-1.329-21.548-.641-30.258 8.558ZM722 225v2l-2.688.312c-3.369.7-5.485 1.775-8.312 3.688 1.453 4.359 4.236 5.346 8.113 7.57 7.742 3.834 16.963 6.383 25.41 3.598 4.53-1.672 4.53-1.672 7.477-5.168.584-3.373.584-3.373 0-7-4.598-4.926-8.972-6.798-15.75-7.25-4.856.113-9.531 1.167-14.25 2.25Z"/><path fill="#6C6C6C" d="M852 194c9.569 4.899 15.454 12.953 19 23 2.561 10.533 1.834 21.762-3.254 31.367C862.388 257.04 855.544 262.54 846 266l-2.732 1.036c-3.458 1.02-6.238 1.21-9.836 1.204l-3.952.009-4.298-.022c-1.518-.001-3.036 0-4.554.001-4.111 0-8.222-.011-12.334-.025-4.3-.013-8.6-.014-12.9-.016-8.138-.007-16.277-.023-24.415-.043-9.267-.022-18.534-.033-27.802-.043-19.059-.021-38.118-.057-57.177-.101v-2l-2.375-.313C681 265 681 265 679 262c-1.062-5.444 1.313-9.181 4.133-13.652 2.744-3.451 5.93-5.45 9.867-7.348-.707 3.685-2.245 5.413-4.723 8.207-2.303 3.233-3.24 6.999-4.277 10.793 3.224 1.075 5.552 1.131 8.943 1.14l3.764.018 4.137.003 4.351.015c3.945.013 7.89.02 11.834.024a19908.23 19908.23 0 0 0 30.585.039c8.905.004 17.809.022 26.714.051 6.891.021 13.782.031 20.673.033 4.111.001 8.222.007 12.333.025 3.875.016 7.749.018 11.623.009 1.414 0 2.829.004 4.243.014 12.475.083 22.94-1.306 32.8-9.371 5.798-5.798 9.057-14.413 9.312-22.563-.119-9.029-3.936-18.948-10.312-25.437-7.642-4.866-14.931-7.764-24-7-2.81 1.009-3.667 1.334-5 4-.144 3.887-.038 7.26 1 11l2.887.516 3.8.734 3.762.703c5.063 1.493 7.649 3.694 10.551 8.047 1.282 5.45 1.255 9.903-1 15-2.591 3.501-5.394 5.687-9.709 6.528-3.267.182-6.481.173-9.752.093l-3.595-.019c-3.774-.026-7.546-.096-11.319-.165-2.561-.021-5.122-.04-7.684-.056-4.661-.042-9.321-.087-13.982-.172l-2.836-.048C786 243 786 243 785 242c-.041-2-.043-4.001 0-6l3 2c2.165.302 2.165.302 4.576.259l2.801.019 3.021-.013 3.113.006c2.174.002 4.347-.002 6.521-.01 3.323-.011 6.645 0 9.968.012 2.112-.001 4.224-.004 6.336-.008l3.009.013c6.549-.032 6.549-.032 12.655-2.278 1.386-6.689 1.386-6.689-.688-12.938-4.058-2.527-7.853-3.186-12.488-4.183-4.256-1.325-5.552-3.118-7.824-6.879-1.356-4.068-1.531-7.747-1-12 7.065-13.626 21.846-11.848 34-6Z"/><path fill="#616161" d="m622 146 7 3v2l1.801.27c10.564 2.283 17.154 10.401 23.074 18.98 5.096 8.539 8.651 18.797 9.125 28.75l.152 2.957c.382 13.373-1.941 26.119-6.089 38.793l-.729 2.237c-3.979 11.475-11.854 18.259-22.201 24.06-6.745 3.068-15.204 3.076-22.344 1.449-4.841-1.917-9.969-5.201-13.226-9.308-1.616-6.284-.828-11.608 2.437-17.188 1.921-2.208 4.071-4.114 6.25-6.062 8.642-8.17 13.234-17.275 15.75-28.938l2-1c2.808-15.554 1.47-31.707-2-47a428.747 428.747 0 0 1-1.25-6.938l-.516-2.902L621 147l1-1Zm6 9c.438 3.212.888 6.405 1.488 9.592 1.374 7.435 1.863 14.604 1.825 22.158l-.013 3.431c-.162 12.054-1.198 24.141-7.3 34.819l-1.203 2.152c-3.635 5.944-8.351 10.546-13.406 15.27-3.413 3.681-4.416 6.143-4.328 11.14 1.123 4.12 2.358 5.222 5.937 7.438 6.226 2.075 15.848 2.296 22.063-.188 8.642-5.332 14-11.653 17.562-21l.905-2.353c6.799-18.669 8.063-39.318-.112-57.705-2.053-3.987-4.527-7.344-7.418-10.754l-1.398-1.797c-3.891-4.858-8.492-8.664-13.602-12.203h-1Z"/><path fill="#666566" d="m583.437 97.375 3.261-.012c12.336.257 23.69 3.715 35.302 7.637l3 1 4-4c-.75 2.375-.75 2.375-2 5l-2.062.812L623 109c-.649 3.162-.649 3.162-.785 5.551-.239 2.724-.752 5.328-1.277 8.011-1.24 7.168-1.116 14.186-.938 21.438h2l-.141-3.77c-.243-9.482-.231-17.545 4.141-26.23l3 1-.84 2.082-1.098 2.73-1.089 2.707c-1.72 4.385-2.108 7.704-2.098 12.418l-.008 3.715c.137 3.77.137 3.77 1.133 7.348 2.262 1.072 2.262 1.072 5 2a184.918 184.918 0 0 1 6 4c-2 1-2 1-4.438.25-2.467-1.204-3.661-2.349-5.562-4.25a64.028 64.028 0 0 0-4-1c.268 1.667.54 3.333.812 5l.543 3.355c.426 2.409.908 4.809 1.446 7.196 3.12 14.241 3.308 29.024 1.199 43.449h-1l.032-2.504c.034-3.112.059-6.224.078-9.337.015-1.991.04-3.981.066-5.972.037-7.357-.39-14.054-2.176-21.187-.312-1.457-.622-2.914-.93-4.371-.313-1.356-.628-2.712-.945-4.067l-.449-2.099c-.684-2.877-1.279-5.041-3.328-7.221-13.623-7.208-27.854-11.041-43.024-13.231l-3.537-.512c-2.32-.328-4.642-.638-6.966-.93-10.056-1.378-10.056-1.378-13.821-5.569-2.357-4.715-1.828-11.448-.234-16.36 4.105-7.458 12.188-11.225 19.929-14.023 4.53-1.213 9.076-1.234 13.742-1.242Zm-24 14.187-1.941 1.817c-2.76 2.99-2.736 5.663-3.019 9.648.361 2.204.361 2.204 2.689 3.536 3.045 1.544 5.328 2.014 8.709 2.394l3.456.424 3.669.431c15.323 1.984 29.599 5.648 44 11.188l.113-2.789c.47-9.035 1.728-17.399 3.887-26.211-2.289-.8-4.581-1.59-6.875-2.375l-1.914-.672c-9.028-3.07-17.687-4.299-27.211-4.266l-2.789-.049c-8.206-.005-16.632.988-22.774 6.924Z"/><path fill="#504D4E" d="m692 241 1 3c-1.109 1.508-1.109 1.508-2.75 3.125-3.574 3.881-4.945 7.828-6.25 12.875 3.224 1.075 5.552 1.131 8.943 1.14l3.764.018 4.137.003 4.351.015c3.945.013 7.89.02 11.834.024a19908.23 19908.23 0 0 0 30.585.039c8.905.004 17.809.022 26.714.051 6.891.022 13.782.032 20.673.033 4.111.001 8.222.007 12.333.025 3.875.016 7.749.018 11.623.01 1.414-.001 2.829.003 4.243.013 7.587.05 14.309-.364 21.557-2.709 2.796-.825 5.346-.897 8.243-.662v3h-4v2c-2.405 3.207-5.228 3.945-9 5-3.143.246-3.143.246-6.568.241l-3.952.008-4.298-.022c-1.518-.001-3.036 0-4.554.001-4.111.001-8.222-.011-12.333-.025-4.301-.013-8.601-.014-12.901-.016-8.138-.006-16.277-.023-24.415-.043-9.267-.022-18.534-.033-27.802-.043-19.059-.021-38.118-.056-57.177-.101v-2l-2.375-.312C681 265 681 265 679 262c-1.068-5.475 1.364-9.166 4.199-13.652 2.552-3.327 5.22-5.199 8.801-7.348Z"/><path fill="#5B5B5B" d="m701 95 3 1c-1.608 12.541-7.549 24.109-16.926 32.672-5.607 4.158-10.793 7.606-17.949 7.64l-2.43.051c-6.292-.848-11.5-4.304-16.695-7.738l-1.858-1.208c-3.088-2.018-6.119-4.09-9.08-6.292-3.295-2.287-6.337-3.681-10.062-5.125v-2h-3c-3.51 9.822-3.69 19.69-4 30h-2c-2.566-7.697-.981-16.423.504-24.227.444-2.481.685-4.888.871-7.398L622 109c1.812-1.125 1.812-1.125 4-2a374.238 374.238 0 0 0 4-6h2v-3l4-1c.55 5.635-1.05 8.39-4 13l2.582.773c3.633 1.304 6.757 2.935 10.105 4.852l1.845 1.051c3.997 2.325 7.631 4.909 11.28 7.762 4.612 3.445 8.363 5.269 14.188 4.562 11.33-4.14 17.541-14.96 22.906-25.129 1.367-2.339 3.118-4.036 5.094-5.871l1-3Z"/><path fill="#787778" d="m692 8 5 1v4h2l3 6-1-10c2.669 3.558 3.714 5.587 5 9.688l1.023 3.226L708 25c.54 1.521 1.082 3.042 1.625 4.563 3.082 9.414 3.735 18.77 3.687 28.625l-.012 3.587c-.148 11.501-1.013 22.667-6.249 33.12-1.25 2.504-2.273 5.064-3.301 7.667l-1.016 2.567L702 107c-1.226-3.677-.466-4.551 1-8v-3l-2-1-.312 1.813c-.782 2.487-1.814 3.434-3.688 5.187l.516-1.66a527.317 527.317 0 0 0 4.609-16.028l1.008-3.699c5.258-21.907 1.992-45.407-6.961-65.84C695 12 695 12 695 10h-2l-.625 2c-1.887 4.116-4.581 7.459-7.375 11-7.473-.887-7.473-.887-10.414-1.52-8.622-1.602-16.44-.44-24.586 2.52l-3.625 1.188L644 26c1-3 1-3 2.855-4.133l2.333-.992 2.292-1.008c9.266-3.189 20.31-3.07 29.52.133h4c2.042-2.664 2.042-2.664 3.75-6l1.859-3.375L692 8Z"/><path fill="#5C5B5C" d="m622 146 7 3v2l3.375.688C636 153 636 153 637.437 155.625L638 158l-10-3 .621 2.379.816 3.183.809 3.129c4.579 20.096 4.085 45.555-6.625 63.637-4.257 6.714-8.742 11.582-15.621 15.672-3.306 3.07-3.645 6.422-4.016 10.738.021 3.037.81 5.495 2.016 8.262-1.875-.188-1.875-.188-4-1-2.412-3.979-2.812-8.47-2-13 2.219-5.076 5.642-8.753 9.598-12.527 2.377-2.497 3.86-5.428 5.402-8.473l1.508-2.832c2.978-5.719 5.073-10.9 6.492-17.168l2-1c2.808-15.554 1.47-31.707-2-47a428.747 428.747 0 0 1-1.25-6.938l-.516-2.902L621 147l1-1Z"/><path fill="#3F3F3F" d="M736 171c10.301.877 16.356 5.716 22.98 13.371C769.578 197.067 789 220.648 789 238h46v1c-6.657.051-13.314.086-19.971.11-2.266.01-4.532.024-6.798.041-3.251.024-6.503.035-9.754.044l-3.085.032h-2.85l-2.517.014C788 239 788 239 786 237v5l51 1v1h-52c-7.148-14.296-7.148-14.296-10.059-20.945C767.509 206.832 756.704 191.41 743 180a75.83 75.83 0 0 1-5-5v-2h-2v-2Z"/><path fill="#6D6D6D" d="M740.438 169.313 743 171v1l-7-1v2h2v2l1.938.875C742 177 742 177 743 179c-2.834-1.379-5.537-2.899-8.25-4.5-8.552-4.699-17.079-5.543-26.75-4.5-7.771 2.334-12.999 6.832-17.027 13.77-2.968 6.495-3.218 14.727-1.328 21.562a94.539 94.539 0 0 0 1.621 3.813c1.266 3.199 1.43 6.446 1.734 9.855l-3 1v-2l-1.812-1.625C682.836 210.565 682 202.622 682 195c.601-6.98 2.244-12.13 6-18l.879-2.504c2.625-5.845 9.833-8.572 15.496-10.871 12.451-4.087 24.897-.631 36.063 5.688Z"/><path fill="#464546" d="M693 220c2 0 2 0 4.625 2.375C700 225 700 225 700 227h2v2h6v4l2.875.687c3.253.914 6.072 2.246 9.063 3.813 7.81 3.999 16.241 6.372 24.855 3.601 2.438-.969 4.83-1.99 7.207-3.101.685-6.095.685-6.095-1.875-11.375-3.588-1.866-7.103-2.93-11.016-3.914C737 222 737 222 736 220c6.197-.331 10.542-.3 16 3l2.75.937c2.795 1.32 3.121 2.24 4.25 5.063.741 4.742.438 8.169-1.812 12.437C755 244 755 244 752 246h-3v2c-10.934 3.645-23.022.982-33-4a97.412 97.412 0 0 1-7-4v-3h-2l-1-2c-3.029-.658-3.029-.658-6-1v-5l-1.812-.25c-2.862-.981-3.701-2.148-5.188-4.75v-4Z"/><path fill="#6C6C6C" d="M636 153c13.319 7.477 20.827 20.331 25.066 34.57 1.086 3.989 1.737 7.294 1.934 11.43l.152 2.957c.202 7.06-.382 13.712-1.527 20.668l-.382 2.333c-.672 3.784-1.505 6.566-3.243 10.042v-12c-2.082 3.842-2.082 3.842-3 7.625-1 3.375-1 3.375-3 5.375.905-5.448.905-5.448 1.364-8.115 3.187-18.59 4.881-36.433-5.848-53.205-1.443-1.956-2.951-3.821-4.516-5.68l-2.312-3.062c-3.518-3.846-7.502-6.855-11.688-9.938 1.828-.59 1.828-.59 4-1 2.75 1.438 2.75 1.438 5 3l-2-5Z"/><path fill="#403F3F" d="M692 0c2.25.125 2.25.125 5 1 4.641 5.437 6.443 11.912 6 19-2.5-2.174-3.436-3.73-4-7h-2V9l-5-1-.688 2c-1.718 3.927-3.98 7.413-6.312 11-6.626-.892-6.626-.892-8.812-1.523-7.914-1.724-16.534-.894-24.188 1.523l-3.875.813L645 23c-1.106 2.39-1.106 2.39-2 5-3.414 3.008-5.887 4.242-10.375 4.25L629 32c1.375-2 1.375-2 3-4h2l.289-1.848C635.6 22.183 639.472 20.868 643 19c8.235-4.1 14.628-6.177 23.875-6.125l2.066-.012c4.45.009 8.669.415 13.059 1.137l1.375-2.5L685 9h2l.812-2.25c1.13-2.616 2.397-4.552 4.188-6.75Z"/><path fill="#6E6E6E" d="M603 101c7.75.525 14.645 2.556 22 5l4-4c-.75 2.375-.75 2.375-2 5l-2.062.812L623 109c-.649 3.162-.649 3.162-.785 5.551-.239 2.724-.752 5.328-1.277 8.011-1.24 7.169-1.116 14.186-.938 21.438h2l-.141-3.77c-.243-9.482-.231-17.545 4.141-26.23l3 1-.84 2.082-1.098 2.73-1.089 2.708c-1.72 4.384-2.108 7.704-2.098 12.418l-.008 3.714c.137 3.77.137 3.77 1.133 7.348 2.262 1.073 2.262 1.073 5 2a186.573 186.573 0 0 1 6 4c-2 1-2 1-4.438.25-2.467-1.204-3.661-2.349-5.562-4.25a65.462 65.462 0 0 0-4-1c.268 1.667.54 3.334.812 5l.543 3.355c.426 2.409.908 4.809 1.446 7.196 3.12 14.241 3.308 29.024 1.199 43.449h-1l.032-2.503c.034-3.113.059-6.225.078-9.338.015-1.99.04-3.981.066-5.971.037-7.358-.39-14.055-2.176-21.188-.312-1.457-.622-2.914-.93-4.371-.313-1.356-.628-2.712-.945-4.067l-.449-2.099c-.71-2.985-1.305-5.085-3.481-7.299-2.438-1.293-4.866-2.368-7.445-3.352l-2.703-1.042L605 144v-2l11 3v-2l-9-4v-2l9 3 .113-2.641c.469-8.495 1.012-17.61 4.887-25.359l-2.043-.371c-3.477-.74-6.856-1.702-10.269-2.691l-3.801-1.098L602 107v-1h11v-2l-2.188.125c-3.019-.134-5.081-.877-7.812-2.125v-1Z"/><path fill="#241E20" d="m692 241 1 3c-1.109 1.578-1.109 1.578-2.75 3.25-3.111 3.393-4.669 6.446-6.25 10.75h-2c1.309 3.122 1.309 3.122 4 5 1.989.106 3.981.147 5.973.158l3.858.03 4.257.017 4.464.03c4.048.027 8.095.048 12.142.068 4.227.022 8.454.05 12.68.076 8.008.05 16.015.095 24.023.138 9.115.05 18.229.105 27.344.16 18.753.114 37.506.221 56.259.323-3.517 2.345-4.948 2.255-9.111 2.267l-3.875.026-4.26-.002c-1.493.006-2.986.012-4.479.02-4.058.018-8.116.022-12.174.024-3.384.001-6.769.009-10.154.016-7.983.016-15.967.021-23.95.02-8.243-.002-16.485.02-24.728.051-7.072.026-14.144.037-21.216.036-4.226-.001-8.452.005-12.678.026-3.972.019-7.945.02-11.918.005-1.459-.002-2.919.003-4.379.015-1.989.015-3.978.004-5.967-.01l-3.376.004C682 266 682 266 680.153 264.133c-1.688-3.123-1.744-4.584-1.153-8.133 3.07-6.782 6.635-11.181 13-15Z"/><path fill="#3B3A3B" d="M843 223h3c.082 2.062.139 4.125.188 6.188l.105 3.48c-.322 3.665-1.081 5.429-3.293 8.332-3.338 2.225-4.39 2.249-8.282 2.243l-3.265.009-3.523-.022-3.612-.001c-2.52-.003-5.041-.011-7.561-.023-3.873-.018-7.747-.021-11.62-.02l-7.332-.018-3.535-.003-3.247-.02-2.873-.011C786 243 786 243 785 242c-.041-2-.043-4 0-6l3 2c2.157.309 2.157.309 4.56.275l2.792.029 3.011-.003 3.106.013c2.169.006 4.339.006 6.508.002 3.312-.003 6.623.02 9.935.045 2.109.003 4.218.003 6.326.002l2.993.028c5.31-.035 9.229-.3 13.769-3.391 1.14-2.388 1.14-2.388 1.375-5.062l.398-2.661c.26-2.227.26-2.227.227-4.277Z"/><path fill="#7F7E7E" d="M819 198h1l.148 2.59.227 3.348.211 3.339L821 210l2 1 1-4c1.5 1.375 1.5 1.375 3 3v2l2.887.516 3.801.734 3.761.703c5.063 1.493 7.649 3.695 10.551 8.047 1.335 5.674.779 9.571-1 15l-2 1 1-15h-3l.625 2.062c.481 3.771-.33 6.394-1.625 9.938l-2 1 .395-2.012c.923-5.688.923-5.688-1.083-10.926-4.058-2.526-7.853-3.185-12.488-4.183-4.256-1.325-5.551-3.118-7.824-6.879-.942-2.827-1.135-4.632-1.125-7.562l-.008-2.379C818 200 818 200 819 198Z"/><path fill="#7B7A7A" d="M611 232c0 3 0 3-1.426 4.613l-1.886 1.699c-4.253 4.116-6.796 7.697-7 13.75.279 3.528.558 5.891 2.312 8.938l3 1-1.562-2.438c-1.839-4.556-1.944-7.882-.438-12.562 1.742-2.628 3.719-4.83 6-7l2 1-2.437 2.5c-3.151 3.818-3.72 6.549-3.563 11.5 2.498 3.261 4.104 4.701 8 6 2.436.096 4.875.13 7.312.125l3.926.008c3.358-.119 6.47-.49 9.762-1.133v2c-4.693 2.404-8.987 2.266-14.125 2.188l-2.457-.002c-3.467-.026-6.097-.079-9.418-1.186v2c3 1 4.974 1.116 8.105 1.098l2.979-.01 3.104-.026 3.138-.013c2.558-.012 5.116-.028 7.674-.049-3.637 3.637-7.846 3.185-12.812 3.25-8.752-.082-14.548-2.543-21.188-8.25-2.77-3.493-2.476-7.73-2-12 1.933-7.457 7.5-11.872 13-17Z"/><path fill="#565656" d="M566 130c7.405.717 14.799 1.505 22.188 2.375l3.154.344c5.756.687 10.475 1.656 15.658 4.281v2l1.934.516 2.504.734 2.496.703C616 142 616 142 616.785 144.109L617 146c-5.646-1.389-11.283-2.784-16.875-4.375-6.716-1.864-13.528-3.329-20.333-4.824-4.698-1.044-9.26-2.154-13.792-3.801v-3Z"/><path fill="#292627" d="M703 21c2.798 1.399 2.934 2.903 4 5.813l1 2.644c2.658 9.417 3.386 18.792 3.375 28.543l.004 3.523C711.252 72.024 709.592 81.85 707 92h-2l-1 3c-1.188-4.252-.715-7.192.375-11.438 4.377-17.325 4.226-35.716-.5-52.953-.817-3.37-1.046-6.162-.875-9.609Z"/><path fill="#646364" d="M623 207h2c-.354 6.258-2.084 10.868-4.844 16.484-1.008 2.194-1.672 4.162-2.156 6.516l2 1 .75-1.938c1.658-4.062 3.454-8.059 5.25-12.062h2c-1.825 9.329-8.03 16.787-15 23a742.521 742.521 0 0 1-5 3c-3.306 3.07-3.645 6.422-4.016 10.738.021 3.037.81 5.495 2.016 8.262-1.875-.188-1.875-.188-4-1-2.412-3.979-2.812-8.47-2-13 2.219-5.076 5.642-8.753 9.598-12.527 2.377-2.497 3.86-5.428 5.402-8.473l1.508-2.832c2.957-5.68 5.281-10.872 6.492-17.168Z"/><path fill="#464646" d="M736 220c6.197-.331 10.542-.3 16 3l2.75.937c2.795 1.32 3.121 2.24 4.25 5.063.741 4.742.438 8.169-1.812 12.437C755 244 755 244 752 246l-3-1c-3.067-.959-3.802-1.066-7 0-1.852.093-3.708.13-5.562.125l-2.942.008C731 245 731 245 729 244v-2l2.492.14c7.783.252 13.546-.62 20.508-4.14.685-6.095.685-6.095-1.875-11.375-3.588-1.866-7.103-2.93-11.016-3.914C737 222 737 222 736 220Z"/><path fill="#7C7B7C" d="M778 214c2.507 2.24 3.755 4.285 5.043 7.379l1.064 2.541 1.081 2.642 1.115 2.655c2.697 6.5 2.697 6.5 2.697 8.783h46v1c-6.657.051-13.314.086-19.971.11-2.266.01-4.532.024-6.798.041-3.251.024-6.503.035-9.754.044l-3.085.032h-2.85l-2.517.014C788 239 788 239 786 237v5l51 1v1h-52c-7-14-7-14-8-20l3 2 1-5h-2l-1-7Z"/><path fill="#2F2E2E" d="M636 97c.312 2.688.312 2.688 0 6-2.438 2.688-2.438 2.688-5 5l-1 3 6 1-1 3-9-1c-3.51 9.822-3.69 19.69-4 30h-2c-2.566-7.697-.981-16.423.504-24.227.444-2.481.685-4.888.871-7.398L622 109c1.812-1.125 1.812-1.125 4-2a374.238 374.238 0 0 0 4-6h2v-3c3-1 3-1 4-1Z"/><path fill="#727272" d="M861 211c3.133 2.835 5.699 5.736 6.273 10.058.095 2.425.087 4.828.039 7.254l.01 2.475c-.047 5.378-.83 10.047-2.322 15.213l1-1 3-1c-2.357 8.479-8.34 14.773-15.875 19.188-2.18 1.167-2.18 1.167-4.125 1.812l-3-1 3-1v-2h4v-3l-4-1 1.574-1.031c7.951-5.526 12.37-12.481 14.426-21.969.922-6.93-.499-12.332-3.125-18.75C861 213 861 213 861 211Z"/><path fill="#828282" d="M752.742 221.313c1.383 1.375 1.383 1.375 3.258 3.687-2.614-.502-4.356-1.207-6.688-2.562-4.24-1.841-7.763-1.711-12.312-1.438l1.977.481c5.795 1.547 10.14 2.819 14.023 7.519.474 3.068.362 5.925 0 9l-2 1 .176-1.828c.384-5.267.384-5.267-2.301-9.609-8.872-4.822-17.202-3.673-26.875-2.563l1-3-2.773.875-3.602 1.125-3.586 1.125C710 226 710 226 708 226v-2c12.621-5.863 32.083-12.225 44.742-2.687Z"/><path fill="#747272" d="m682 258 2.114 1.476c3.321 1.753 5.323 1.901 9.056 1.905l3.763.026 4.106-.019c1.448.004 2.895.01 4.343.016 3.928.014 7.856.008 11.784-.001 4.122-.008 8.244-.001 12.366.004 6.93.006 13.86-.002 20.791-.016 7.985-.016 15.969-.011 23.954.006a6747 6747 0 0 0 20.617.007c4.097-.004 8.193-.005 12.29.005 3.861.009 7.722.002 11.583-.015 1.407-.004 2.815-.003 4.222.004 9.079.039 17.255-.966 26.011-3.398l-1 3c-4.284 1.899-8.059 2.251-12.706 2.254l-1.967.009c-2.16.008-4.32.002-6.48-.004l-4.663.01c-4.211.01-8.421.006-12.631 0-4.406-.005-8.812-.001-13.218.002-7.394.004-14.789-.001-22.183-.01-8.556-.011-17.111-.008-25.667.003-7.345.009-14.689.011-22.034.006-4.387-.004-8.775-.004-13.162.003-4.12.005-8.241.001-12.361-.01a983.67 983.67 0 0 0-4.545.002 796.97 796.97 0 0 1-6.185-.011l-3.501-.002C684 263 684 263 682 261v-3Z"/><path fill="#2C2C2C" d="M693.562 170.938 696 171c-.606 3.357-1.803 5.302-3.938 7.938-6.002 7.418-5.714 14.805-5.062 24.062a61.205 61.205 0 0 0 3 10h2l1 6-3 1v-2l-1.812-1.625C682.836 210.565 682 202.622 682 195c.601-6.98 2.244-12.131 6-18a203.355 203.355 0 0 0 2-5c1-1 1-1 3.562-1.062Z"/><path fill="#7D7D7D" d="M850 195v2l-1.681-.032c-2.523-.042-5.046-.067-7.569-.093l-2.644-.051-2.559-.019-2.349-.032c-2.498.258-4.082.887-6.198 2.227-.841 2.074-.841 2.074-1.125 4.437-.538 3.334-.928 4.642-2.875 7.563l-3-1c-.861-11.787-.861-11.787.809-16.078 6.551-7.102 21.564-2 29.191 1.078Z"/><path fill="#302F2F" d="M629 174h1c.05 5.32.086 10.64.11 15.961.01 1.809.024 3.618.041 5.426.024 2.604.036 5.208.044 7.812l.032 2.441c0 4.25-.262 7.481-2.227 11.36h-2l-.551 1.793c-1.406 4.42-2.824 8.332-5.449 12.207l-3-1 .844-2.094c3.621-9.101 6.618-17.688 7.797-27.457C626 198 626 198 627 197c.228-1.704.395-3.416.535-5.129l.264-3.135.263-3.298.276-3.311c.225-2.709.445-5.418.662-8.127Z"/><path fill="#686868" d="m701 95 3 1c-1.238 9.66-4.545 17.606-11 25l-3 1c-1.429 1.401-1.429 1.401-2.688 3.062L685 128l-3-1 1.242-1.285c3.816-4.154 5.29-7.209 6.758-12.715 2.735-5.756 5.478-10.506 10-15l1-3Z"/><path fill="#414141" d="M761 193c3.482.51 5.513 1.434 7.816 4.113 1.815 2.582 3.517 5.208 5.184 7.887l1.297 1.898c2.945 4.546 3.464 8.826 3.703 14.102h2l-1 7c-2.233-2.829-3.965-5.668-5.594-8.879l-1.433-2.791a3936.46 3936.46 0 0 1-2.946-5.797l-1.433-2.787-1.291-2.541c-1.188-2.225-1.188-2.225-2.891-3.771-2.311-2.347-2.645-5.309-3.412-8.434Z"/><path fill="#252122" d="m692 241 1 3c-1.109 1.578-1.109 1.578-2.75 3.25-3.111 3.393-4.669 6.446-6.25 10.75h-2c1.309 3.122 1.309 3.122 4 5 2.986.228 5.955.402 8.945.535l2.682.13c2.833.137 5.665.267 8.498.397l5.754.276c4.707.225 9.414.445 14.121.662v1c-6.211.099-12.422.171-18.634.22-2.114.02-4.227.047-6.341.082-3.036.048-6.071.071-9.107.089l-2.87.062c-6.538.002-6.538.002-9.133-2.313-1.349-3.154-1.489-4.693-.915-8.14 3.07-6.782 6.635-11.181 13-15Z"/><path fill="#909090" d="m692 8 5 1v4h2c3.444 9.41 3.444 9.41 3 14-2.58-2.58-3.336-5.093-4.625-8.5l-1.352-3.531C695 12 695 12 695 10h-2l-.625 2c-1.887 4.116-4.581 7.459-7.375 11-7.473-.887-7.473-.887-10.414-1.52-8.622-1.602-16.44-.44-24.586 2.52l-3.625 1.188L644 26c1-3 1-3 2.855-4.133l2.333-.992 2.292-1.008c9.266-3.189 20.31-3.07 29.52.133h4c2.042-2.664 2.042-2.664 3.75-6l1.859-3.375L692 8Z"/><path fill="#868686" d="M729 169v2l-2.625-.5c-10.278-1.376-19.693-1.832-28.375 4.5-5.639 4.933-8.595 10.609-9.281 18.047-.202 7.157.744 13.263 3.281 19.953h-2c-4.491-8.52-5.984-18.134-3.27-27.527A31.707 31.707 0 0 1 690 180l1.309-1.809c1.316-1.691 1.316-1.691 3.691-4.191h2v-2h3v-2c9.381-4.415 19.211-4.071 29-1Z"/><path fill="#7A7A7A" d="M603 101c7.75.525 14.645 2.556 22 5l4-4c-.75 2.375-.75 2.375-2 5l-2.062.812L623 109c-.64 3.365-.64 3.365-.785 5.758-.338 3.525-1.3 6.826-2.215 10.242h-2c.479-4.714.968-8.666 3-13l-2.043-.371c-3.477-.74-6.856-1.702-10.269-2.691l-3.801-1.098L602 107v-1h11v-2l-2.188.125c-3.019-.134-5.081-.877-7.812-2.125v-1Z"/><path fill="#5C5C5C" d="M829 190c12.057-.758 22.731 1.851 32 10 1.246 2.187 1.246 2.187 2 4h-4v3l-.625-1.938L857 203a148.278 148.278 0 0 0-6-1c-2.751-1.18-5.364-2.586-8-4a709.865 709.865 0 0 0-4-2l3.812-.063 2.145-.035C847 196 847 196 850 197v-2l-21-4v-1Z"/><path fill="#494949" d="M659 32c1.938 1.563 1.938 1.563 3 4-.327 6.327-.327 6.327-3 9-3.071.327-5.15.482-7.875-1.062-1.768-3.045-1.493-5.5-1.125-8.938 2.149-3.7 4.999-3.583 9-3Z"/><path fill="#3E3E3E" d="M658 186h1l.621 2.59.816 3.348.809 3.339c.484 2.617.484 2.617 1.754 3.723.127 2.226.176 4.457.187 6.688l.043 3.699c-.23 3.606-.745 6.323-2.23 9.613l-3 1c-.167-4.681-.328-9.363-.482-14.044-.054-1.594-.109-3.188-.166-4.781a1955.35 1955.35 0 0 1-.231-6.859l-.082-2.171c-.052-1.714-.051-3.43-.039-5.145l1-1Z"/><path fill="#898889" d="M743 179c4.652 1.968 8.68 5.099 11.562 9.25 1.917 2.333 3.508 2.433 6.438 2.75l-2-5c4.875 4.625 4.875 4.625 6 8l-3 1c1.576 3.318 3.265 6.477 5.25 9.562 2.341 3.698 4.513 7.481 6.625 11.313l1.867 3.367L777 222l-1 2-1.215-2.133c-12.742-22.233-12.742-22.233-30.351-40.625L743 180v-1Z"/><path fill="#2E2C2D" d="m642 257-1 3-.312 2.062C640 264 640 264 638.438 265.188c-6.091 2.03-12.391 1.93-18.75 2l-2.14.039c-3.741.006-5.355-.098-8.548-2.227v-2l1.848.016c2.78.021 5.56.034 8.34.046l2.908.026 2.822.01 2.587.016c2.587-.118 4.972-.543 7.495-1.114v-2c4.385-3 4.385-3 7-3Z"/><path fill="#272727" d="M692 0c2.375 0 2.375 0 5 1 4.641 5.437 6.443 11.912 6 19-2.5-2.174-3.436-3.73-4-7h-2V9h-8c.75-6.75.75-6.75 3-9Z"/><path fill="#8A8888" d="M709 37h2c2.165 7.037 2.347 13.666 2.312 21l-.01 3.615c-.28 22.796-.28 22.796-4.907 28.291L707 91c.311-2.23.624-4.459.938-6.688l.527-3.761c.297-1.973.623-3.944 1.06-5.89.531-2.974.605-5.755.608-8.774l.004-3.534-.012-3.666.012-3.63C710.13 48.943 709.946 43.043 709 37Z"/><path fill="#222122" d="M839 239v3h-52v-2l20.288-.427 6.902-.146 9.919-.208 3.119-.067 2.912-.06 2.557-.054c2.101-.035 4.202-.038 6.303-.038Z"/><path fill="#575656" d="m638 70 3 1v2h2c1.074 3.223 1.133 5.615 1.125 9l.008 3.188C644 88 644 88 643 91h-4v4l-3-1 .992-1.887c1.406-4.343 1.221-8.393 1.133-12.925l-.027-2.678c-.024-2.17-.06-4.34-.098-6.51Z"/><path fill="#2D2B2C" d="m612 232 3 1-1.875 2.25c-2.094 2.527-2.094 2.527-3.125 4.75-1 2-1 2-3.062 4.188-2.637 3.827-3.043 7.212-2.938 11.812.805 3.428.805 3.428 2 6-1.875-.188-1.875-.188-4-1-2.413-3.981-2.807-8.467-2-13 2.677-6.155 7.498-11.121 12-16Z"/><path fill="#272425" d="M865 212h2c2.608 5.978 3.301 11.18 3.312 17.625l.016 2.17c-.061 4.737-.846 8.705-2.328 13.205h-2v2l-2-1 .988-3.379c1.219-4.882 1.273-9.551 1.2-14.559l-.002-2.611c.371-4.047.371-4.047-1.186-7.451-.041-2-.043-4 0-6Z"/><path fill="#737272" d="M636 153c3.757 2.078 6.621 4.377 9.625 7.438l2.289 2.308A63.107 63.107 0 0 1 653 169l-1 2-1.645-1.934-2.167-2.504-2.145-2.496c-1.954-2.288-1.954-2.288-5.043-3.066 1.372 2.954 2.989 5.44 5 8l-1 2-1.215-1.504c-4.424-5.287-9.212-9.452-14.785-13.496 1.828-.59 1.828-.59 4-1 2.75 1.438 2.75 1.438 5 3l-2-5Z"/><path fill="#252424" d="m622 146 7 3v2l3.375.688C636 153 636 153 637.437 155.625L638 158a914.14 914.14 0 0 1-4.25-1.375l-2.391-.773C629 155 629 155 625 153l2 10-3-1c-.984-2.582-.984-2.582-1.75-5.812l-.797-3.208c-.425-2.797-.394-4.355.547-6.98Z"/><path fill="#232021" d="M693 220c2 0 2 0 4.625 2.375C700 225 700 225 700 227h2v2h6v4l5 2-1 2-2-1 1 3h-2v-2h-2l-1-2c-3.029-.658-3.029-.658-6-1v-5l-1.812-.25c-2.862-.981-3.701-2.148-5.188-4.75v-4Z"/><path fill="#818181" d="M688 175c0 3.216-.633 4.671-1.937 7.562-4.155 10.201-3.639 20.265.375 30.5 1.383 3.161 1.383 3.161 4.562 4.938l-1 4c-7.561-9.2-10.688-17.818-9.785-29.867.949-6.525 3.028-12.376 7.785-17.133Z"/><path fill="#373737" d="M736 220c6.166-.329 10.59-.349 16 3l2.312.938C756 225 756 225 756.75 226.625c.946 8.984.946 8.984-.75 12.375h-2l-.008-1.793c-.216-4.426-.492-6.617-3.43-10.082-3.478-2.469-7.385-3.45-11.488-4.449L737 222l-1-2Z"/><path fill="#2A2A2A" d="M693.563 170.938 696 171c-.595 3.27-1.652 5.006-3.812 7.5-3.411 4.327-4.829 8.804-6.329 14.059C685 195 685 195 683 196c-.67-9.042 2.763-16.131 7-24 1-1 1-1 3.563-1.062Z"/><path fill="#6A6A6A" d="m636 73 3 2c.363 3.082.363 3.082.312 6.813l-.011 3.706c-.283 3.27-.896 5.543-2.301 8.481l2 1v-4h3c-.615 3.995-2.706 6.745-5 10l-2-3h-3v3l-3 1c.868-2.446 1.769-4.665 3.246-6.809C636.995 88.074 636.49 81.26 636 73Z"/><path fill="#7C7C7C" d="M705 70h2c-.397 6.948-.882 13.365-3 20v4l1-2h2c-.627 3.662-1.645 6.882-3.062 10.312l-1.098 2.676L702 107c-1.226-3.677-.466-4.551 1-8v-3l-2-1-.312 1.813c-.782 2.487-1.814 3.434-3.688 5.187l.516-1.66a527.317 527.317 0 0 0 4.609-16.028l1.008-3.699c.853-3.554 1.411-6.991 1.867-10.613Z"/><path fill="#878787" d="M819 198h1l.078 2.484.172 3.266.141 3.234c.72 3.566 1.944 4.649 4.609 7.016v2l5 2c-1.625.812-1.625.812-4 1-4.111-2.796-6.866-5.009-8-10-.513-7.974-.513-7.974 1-11Zm4 9 3 1 1 4 14 3v1c-2.125-.141-4.25-.288-6.375-.438l-3.586-.246C828 215 828 215 826 214v-2l-3-1v-4Z"/><path fill="#6B6B6B" d="m655 242 1 2c-3.415 8.811-7.637 14.658-16 19 .506-2.169 1-4 2-6l-2.375 1.562L637 260l-2-1 2.812-2.25c2.459-2.04 4.404-4.075 6.188-6.75l2 1c.625 2.062.625 2.062 1 4l1.375-2.5L650 250h2l.375-2.312C653 245 653 245 655 242Z"/><path fill="#505050" d="M843 223h3c.082 2.062.139 4.125.188 6.188l.105 3.48c-.322 3.665-1.081 5.429-3.293 8.332-3.089 2.059-3.709 2.239-7.188 2.125L832 243v-1h7v-3l-4-1 2.875-.875c3.606-2.452 3.697-3.098 4.5-7.187.351-2.347.625-4.567.625-6.938Z"/><path fill="#747474" d="m631 107 1 3a137.36 137.36 0 0 0 6 2 157.635 157.635 0 0 1 7.062 3.812l1.815 1.002c4.043 2.308 7 4.803 10.123 8.186-4.634-1.711-8.541-4.119-12.695-6.758-2.309-1.479-2.309-1.479-5.305-1.242v3c-3.912-1.156-6.875-2.355-10-5l2.938-.375L635 114l1-2-6-1 1-4Z"/><path fill="#969696" d="M685 9h2c-1.447 5.546-1.447 5.546-3.75 7.438-2.25.562-2.25.562-4.68.101-4.99-.754-9.906-.644-14.945-.602l-3.098.014c-2.509.012-5.018.028-7.527.049v2h-5c2.157-2.966 4.784-3.874 8.289-4.656 8.504-1.079 17.271-.716 25.711.656l1.375-2.5L685 9Z"/><path fill="#3B3A3A" d="M640 160c6.002 1.983 9.441 5.895 13 11 .871 2.548 1 4.277 1 7l-3-1v-2l-1.871-.258C647 174 647 174 645.84 172.258l-.902-2.133c-1.006-2.339-1.72-3.914-3.559-5.695C640 163 640 163 640 160Z"/><path fill="#828182" d="M656 211c1.945 2.918 2.453 4.625 3 8h2l1-2c-.585 6.142-1.541 12.007-3 18h-1v-12c-2.082 3.842-2.082 3.842-3 7.625-1 3.375-1 3.375-3 5.375l.402-2.383c.743-4.494 1.452-8.993 2.16-13.492l.42-2.664L656 211Z"/><path fill="#353535" d="m688 6 4 2c-1.642 4.776-4.265 8.794-7 13-4.056-.468-7.466-.88-11-3l2-2 3.438.188L683 16c1.953-2.143 1.953-2.143 3-5l1.188-2.813L688 6Z"/><path fill="#797879" d="m692 236 1 2c-.922 2.765-1.873 3.908-4.25 5.625-4.77 4.119-8.336 9.528-9.25 15.813.374 2.79.374 2.79 2.5 5.562 2.059.724 2.059.724 4 1v2c-3.018-.335-4.809-.866-7.313-2.625-2.463-3.467-2.365-5.169-1.687-9.375 1.732-3.523 3.775-6.769 6-10l1.574-2.301L686 242h2l.875-1.875C690 238 690 238 692 236Z"/><path fill="#9A9A9A" d="M620 152h2c.65 2.52 1.295 5.041 1.938 7.562l.552 2.135c2.105 8.305 2.668 16.194 2.635 24.741l.012 3.025c-.008 5.607-.304 10.991-1.137 16.537h-1l.032-2.503c.034-3.113.059-6.225.078-9.338.015-1.99.04-3.981.066-5.971.037-7.339-.336-14.077-2.176-21.188l-.852-3.496-1.562-5.938C620 155 620 155 620 152Z"/><path fill="#262626" d="m836.812 191.812 2.159.252c3.956.502 7.408 1.25 11.029 2.936v2l-1.896-.092-8.479-.408-2.984-.145-2.852-.136-2.634-.127A97.583 97.583 0 0 0 827 196v-4c3.174-1.587 6.4-.634 9.812-.188Z"/><path fill="#818081" d="m584.188 102.687 2.904-.009c5.022.038 9.207.339 13.908 2.322v1l-2.32-.032c-3.518-.042-7.036-.067-10.555-.093l-3.648-.051c-7.085-.038-13.604.415-20.477 2.176v-2c6.83-2.797 12.848-3.437 20.188-3.313Z"/><path fill="#343233" d="m823 211 3 1v2l15 2v2l3 1v3h-4l-1-2c-1.96-.355-1.96-.355-4.25-.438-3.964-.371-6.629-.914-9.75-3.562-1.312-2.688-1.312-2.688-2-5Z"/><path fill="#6C6C6C" d="M688 116c.684 1.766.684 1.766 1 4-1.215 1.922-1.215 1.922-2.938 3.75l-1.714 1.859L683 127c3.37-1.539 4.816-3.021 7-6h2c-1.433 5.017-3.906 7.015-8 10h-2l-1-2c-2.017-1.134-2.017-1.134-4-2l2.688-2.125c3.216-2.666 5.724-5.602 8.312-8.875Z"/><path fill="#676667" d="M712 234c5.619 2.107 11.006 4.671 16 8-3.832.089-7.266-.121-11-1l4 4c-5.023-1.182-8.095-2.45-12-6l1-3 2-1v-1Z"/><path fill="#444" d="M699 235v5l-1.875.75c-2.601 1.53-2.876 2.531-4.125 5.25a120.27 120.27 0 0 1-2.5 3.75l-1.281 1.859L688 253h-2c1.02-3.061 1.811-4.822 4.188-7.062L692 244c-.338-2.02-.338-2.02-1-4 1.707-4.596 3.036-5 8-5Zm-10 7 2 1h-3l1-1Z"/><path fill="#464646" d="M603 101c10.965.945 10.965.945 16 3 1.191 2.578 1.191 2.578 2 5a877.295 877.295 0 0 1-7.25-.375l-2.066-.094c-3.933-.229-6.073-.725-9.684-2.531h11v-2l-2.188.125c-3.019-.134-5.081-.877-7.812-2.125v-1Z"/><path fill="#3C3C3C" d="m692 241 1 3c-1.109 1.578-1.109 1.578-2.75 3.25-3.111 3.393-4.669 6.446-6.25 10.75h-4l-1-2c2.964-6.752 6.725-11.235 13-15Z"/><path fill="#252425" d="M622 118h1l-1 26h-2c-2.45-7.35-1.219-16.441 0-24l2-2Z"/><path fill="gray" d="m667.125 17.813 3.633-.043c3.045.216 4.695.627 7.242 2.23l-3.586.113c-8.549.332-16.348.787-24.414 3.887l-3.625 1.188L644 26c1-3 1-3 2.855-4.133 1.155-.49 1.155-.49 2.333-.992l2.292-1.008c5.162-1.776 10.218-2.025 15.645-2.055Z"/><path fill="#787878" d="M653 171c3.189 2.62 4.213 5.623 5.625 9.438l1.289 3.433c1.728 4.979 2.188 8.816 2.086 14.129h-1a2104.32 2104.32 0 0 1-1.438-5.625l-.808-3.164c-.719-3.06-1.274-6.106-1.754-9.211h-3l-1 2c-2.5-2.174-3.436-3.73-4-7 2 0 2 0 3.625 1.5L654 178l-1-7Z"/><path fill="#6D6D6D" d="M639 120c3.985 1.178 6.709 2.532 10 5 2.712 1.017 5.365 1.855 8.188 2.5C659 128 659 128 662 130l-1 4c-4.235-.625-7.494-3.021-11-5.312l-1.867-1.186c-3.427-2.217-6.357-4.469-9.133-7.502Z"/><path fill="#2E2E2E" d="M638 116c3.627.584 6.468 1.547 9.688 3.312l2.324 1.239c2.236 1.63 2.867 2.967 3.988 5.449l2 1c-4.819 0-8.534-2.2-12.75-4.375l-2.359-1.211C639 120 639 120 638.234 117.836L638 116Z"/><path fill="#474747" d="M761 193c3.537.518 5.544 1.472 7.887 4.184 2.931 4.135 5.364 8.041 7.113 12.816l-2.25-2.375c-2.364-2.257-3.866-3.323-6.75-4.625-3.421-1.912-3.948-2.848-5.25-6.688L761 193Z"/><path fill="#949393" d="M611 232c0 3 0 3-1.426 4.613l-1.886 1.699c-4.253 4.116-6.796 7.697-7 13.75.28 3.532.748 5.809 2.312 8.938l1 2c-2.288-.915-3.734-1.655-5.25-3.625-1.622-5.136-1.388-10.538.918-15.434 3.109-4.531 7.33-8.209 11.332-11.941Z"/><path fill="#7F7E7E" d="M692 224c3.875 1.75 3.875 1.75 5 4l3 1v5h6l1 3h2l-1 2-3-1v-2l-6 3v-4l-6 1 4-5-2.5-2.938C692 225 692 225 692 224Z"/><path fill="#737273" d="M867 210c5.765 6.289 5.307 14.676 5.203 22.699-.232 3.774-.863 6.784-2.203 10.301h-1l.032-1.908c.042-2.885.067-5.77.093-8.654l.051-3.002c.037-5.612-.437-10.115-2.176-15.436v-4Z"/><path fill="#2E2D2D" d="M566 130c7.407.623 14.682 1.705 22 3l-1 2c-2.375.054-4.749.094-7.125.125l-2.016.051c-4.354.042-7.815-.576-11.859-2.176v-3Z"/><path fill="#323232" d="M557 109c1 3 1 3 0 6l-1.52 1.395c-1.927 2.09-1.964 3.49-2.167 6.293l-.2 2.449L553 127l-3-1c-.511-5.011-.619-8.777 2.375-13 2.625-3 2.625-3 4.625-4Z"/><path fill="#737373" d="m560 103 2 1-2 4 4 1-7 5v-4l-6 5c.416-4.85 2.417-6.843 6-10l3-2Z"/><path fill="#2A2829" d="M703 21c3.469 1.734 3.945 5.615 5.18 9.121 1.004 3.526 1.143 6.25.82 9.879l-3-1c-.949-2.512-.949-2.512-1.688-5.688l-.761-3.136c-.543-3.13-.651-6.007-.551-9.176Z"/><path fill="#2A2929" d="M629 174h1v28h-2l-1 3c.141-3.479.289-6.958.438-10.438l.119-2.951c.257-5.912.72-11.737 1.443-17.611Z"/><path fill="#303030" d="M695 111c1 3 1 3-.625 6.375-2.042 3.354-4.482 5.96-7.375 8.625l-2 2-3-1 1.242-1.355c3.445-3.82 3.445-3.82 5.82-8.333 1.261-3.109 3.247-4.4 5.938-6.312Z"/><path fill="#343233" d="M658 222h1c-.231 7.682-.429 13.659-5 20-1.471-3.929-.571-7.113.313-11.125l.8-3.758C656 224 656 224 658 222Z"/><path fill="#313131" d="M626 32h2l-2 18c-3.278-3.278-3.405-3.836-3.688-8.188l-.199-2.73L622 37h2l.438-1.938C625 33 625 33 626 32Z"/><path fill="#838383" d="m724 219 1 3 7 1v1l-10 1 1-3-2.773.875-3.602 1.125-3.586 1.125C710 226 710 226 708 226v-2c1.913-.842 3.83-1.673 5.75-2.5l3.234-1.406C720 219 720 219 724 219Z"/><path fill="#959595" d="M829 190c10.741-.675 18.868 1.298 28 7-3 1-3 1-4.699.328l-1.989-1.078c-6.711-3.211-14.029-4.071-21.312-5.25v-1Z"/><path fill="#959495" d="M861 211c3.159 2.858 5.692 5.757 6.289 10.106.114 2.472.12 4.92.086 7.394l.035 2.551c-.023 4.821-.347 7.994-3.41 11.949-1-2-1-2-.062-5 2.452-8.186 1.122-14.964-2.063-22.75C861 213 861 213 861 211Z"/><path fill="#2E2E2E" d="m701 95 3 1c-.543 4.565-1.795 7.973-4 12h-3l-1-2a110.866 110.866 0 0 1 5-11Z"/><path fill="#908F90" d="m610 240 2 1-2.437 2.5c-3.151 3.818-3.72 6.549-3.563 11.5 2.414 3.085 4.752 4.835 8 7-3.741-.261-5.811-.871-8.937-3-2.514-3.656-2.576-5.434-1.86-9.707 1.343-3.863 3.872-6.511 6.797-9.293Z"/><path fill="#2B2B2B" d="M723 222c-1 3-1 3-3.145 4.203l-2.667 1.047-2.645 1.078c-2.679.708-3.975.606-6.543-.328v-2a402.097 402.097 0 0 1 4.688-2l2.636-1.125c2.733-.894 4.823-1.04 7.676-.875Z"/><path fill="#7A7A7A" d="M733 167c4.401.503 6.712 2.088 10 5l-7-1v2h2v2l1.938.875C742 177 742 177 743 179c-2.968-1.457-5.864-3.012-8.75-4.625l-2.422-1.352L730 172l4-2-1-3Z"/><path fill="#2A2A2A" d="M603 139c9.983.631 9.983.631 14 4v3c-1.963-.396-3.92-.818-5.875-1.25l-3.305-.703C605 143 605 143 603.617 140.891L603 139Z"/><path fill="gray" d="M634 26v2c-2 1.625-2 1.625-4 3l4 2-4 1-1 5h-1v-7c-3.248 1.722-3.248 1.722-4 5h-2c1.437-5.029 3.942-6.957 8-10 2-1 2-1 4-1Z"/><path fill="#7C7B7C" d="M751 239c-1 3-1 3-4.375 4.688-5.115 1.769-10.27 1.781-15.625 1.312l-2-1v-2l2.598.105c7.02.167 13.174-3.105 19.402-3.105Z"/><path fill="#8E8E8E" d="M623 207h2c-.447 7.89-3.506 14.013-7 21h-2v2l-2-1 1.461-2.781c3.267-6.314 6.268-12.158 7.539-19.219Z"/><path fill="#5D5D5D" d="M636 97c.312 2.688.312 2.688 0 6-2.5 2.875-2.5 2.875-5 5l-1-3h-3c1.375-2 1.375-2 3-4h2v-3c3-1 3-1 4-1Z"/><path fill="#A9A9A9" d="M761 198h2c4.265 5.012 7.3 11.178 10.438 16.938l1.109 2.008c.882 1.652 1.676 3.35 2.453 5.054l-1 2-1.25-2.168a707.282 707.282 0 0 0-12.246-20.312C761 199 761 199 761 198Z"/><path fill="#2F2F2F" d="M767 202c3.251 1.045 4.569 2.591 6.25 5.438C775 211 775 211 775 214h-3a530.075 530.075 0 0 1-2.5-4.312l-1.406-2.426C767 205 767 205 767 202Z"/><path fill="#3A3A3A" d="M821 197h3l-1 14-3-1c-.027-1.979-.046-3.958-.062-5.938l-.036-3.339C820 198 820 198 821 197Z"/><path fill="#646464" d="m707 165-2.5 1.375L702 168v2h-2v2h-3l-1 2v-3l-3-1c1.291-.814 2.583-1.626 3.875-2.437l2.18-1.372c3.229-1.977 4.315-2.28 7.945-1.191Z"/><path fill="#959494" d="m636 73 3 2c.398 3.082.398 3.082.375 6.813l.023 3.706c-.418 3.654-1.148 5.6-3.398 8.481h-2l.992-2.508c1.118-3.874 1.233-7.38 1.133-11.367l-.027-2.086c-.024-1.68-.06-3.36-.098-5.039Z"/><path fill="#353535" d="M626 50h2c3 4.385 3 4.385 3 7l3 1v5c-1.859-.227-1.859-.227-4-1-1.266-1.96-1.266-1.96-2.25-4.375l-1.016-2.398C626 53 626 53 626 50Z"/><path fill="#929292" d="M681 202h2l.988 2.992 1.324 3.883.647 1.973c1.249 3.617 1.762 4.966 5.041 7.152l-1 4c-5.063-6.16-9-11.737-9-20Z"/><path fill="#444" d="M693.562 170.938 696 171c-.472 4.248-2.967 6.2-6 9l-3-2c3.419-6.986 3.419-6.986 6.562-7.062Z"/><path fill="#868686" d="M692 0c2.312.063 2.312.063 5 1 4 5.081 4 5.081 4 8h-2a105.462 105.462 0 0 1-4-5l-6 2c1.875-4.875 1.875-4.875 3-6Z"/><path fill="#323232" d="M864 248c-.309 3.602-.994 4.993-3.375 7.812C858 258 858 258 855 258c1.317-4.189 4.025-10 9-10Z"/><path fill="#686868" d="M865 241c1 2 1 2 1 4l3-1c-.812 2.938-.812 2.938-2 6l-3 1v-3l-4 1c1.625-5.75 1.625-5.75 5-8Z"/><path fill="#363535" d="M867 223h1l1 21-3 1v2l-2-1 .938-3.062c1.656-6.496 1.732-13.269 2.062-19.938Z"/><path fill="#4F4E4E" d="M626 198c2.867 3.823 3.402 4.61 3.75 9l.234 2.562c.015 2.351-.3 4.2-.984 6.438h-2l1-8h-2l-1 2 1-12Z"/><path fill="#313131" d="m736 171 7 1v2l3 1v4c-3.342-.597-5.464-1.736-8-4v-2h-2v-2Z"/><path fill="#2C2A2A" d="M849 258h4v3h-4v2c-3.089 2.059-3.709 2.239-7.188 2.125L838 265c3.144-2.66 6.125-3.708 10-5l1-2Z"/><path fill="#444" d="m642 257-1 3-.188 2.062L640 264c-3.062 1.25-3.062 1.25-6 2l1-3-3-1h3v-2c4.385-3 4.385-3 7-3Z"/><path fill="#2F2E2E" d="M843 223h3c.054 2.104.093 4.208.125 6.312l.07 3.551C846 236 846 236 844 239c-1.067-3.462-1.102-6.64-1.063-10.25l.028-3.266L843 223Z"/><path fill="#383838" d="M725 165c1.484.423 2.962.864 4.438 1.312l2.496.739L734 168l1 3h-6v-2l-8-1 4-1v-2Z"/><path fill="#8E8E8E" d="M756 225c3.138 3.679 3.504 6.022 3.371 10.738-.58 3.536-2.118 5.517-4.371 8.262l-2-1 1.5-2.25c2.503-4.866 1.732-10.436 1.5-15.75Z"/><path fill="#312E2F" d="m700 230 2 1v2l6-2v2l5 2-1 2-2-1 1 3h-2v-2h-2l-1-2c-3.029-.658-3.029-.658-6-1v-4Z"/><path fill="#272727" d="M677 128c1.675.286 3.344.618 5 1v2c-9.41 3.444-9.41 3.444-14 3v-2l1.715-.621 2.223-.817 2.214-.808c1.831-.608 1.831-.608 2.848-1.754Z"/><path fill="#323132" d="M570 101v4l-6 1v2h-4c.625-2.375.625-2.375 2-5 2.769-1.212 4.97-2 8-2Z"/><path fill="#878787" d="M705 70h2c-.595 13.818-.595 13.818-4 19-1.565-4.02-.462-7.7.437-11.75l.448-2.113c.364-1.714.738-3.426 1.115-5.137Z"/><path fill="#8C8B8B" d="M702 29h2c2.303 6.566 3.337 12.037 3 19l-2-1c-.643-2.47-1.169-4.87-1.625-7.375l-.406-2.078C702.417 34.65 702 31.954 702 29Z"/><path fill="#8D8D8D" d="m692 236 1 2c-1.296 3.887-3.866 5.522-7 8-1.758 1.939-3.369 3.95-5 6 0-3.344.475-4.068 2.375-6.688l1.336-1.886L686 242h2l.875-1.875C690 238 690 238 692 236Z"/><path fill="#8E8E8E" d="m655 242 1 2c-2.1 5.417-4.947 10.808-9 15h-2c1.499-3.114 3.082-6.122 5-9h2l.375-2.312C653 245 653 245 655 242Z"/><path fill="#8B8B8A" d="M722 225v2a862.926 862.926 0 0 1-4.375 2l-2.461 1.125C713 231 713 231 711 231l1 3-4-1c1.004-2.583 1.664-3.794 4.059-5.266l2.379-.984 2.371-1.016C719 225 719 225 722 225Z"/><path fill="#6F6F6F" d="M855 198c2.782.376 4.588.673 6.812 2.438C863 202 863 202 863 204h-4v3l-.875-1.938c-.953-2.214-.953-2.214-3.125-3.062v-4Z"/><path fill="#737171" d="M661 217c1.516 3.975.499 7.205-.438 11.25l-.871 3.828L659 235h-1v-15l3-1v-2Z"/><path fill="#909090" d="M711 73h1c-.45 5.882-.985 11.43-3 17l-2 1c.283-2.251.577-4.5.875-6.75l.492-3.797c.539-2.94 1.113-4.924 2.633-7.453Z"/><path fill="#727272" d="M696 102c1.051 3.275.983 4.054-.125 7.562-1.962 3.598-3.217 4.757-6.875 6.438 1.764-4.972 4.394-9.434 7-14Z"/><path fill="#888" d="M659 32c2.467 2.22 2.962 3.436 3.188 6.75L662 41c-2-3-2-3-2-6h-9v-2c2.829-1.415 4.874-1.32 8-1Z"/><path fill="#252525" d="M658 186h1l3 12-3 1c-1.283-4.091-2.38-7.691-2-12l1-1Z"/><path fill="#8A8A8A" d="m691 179 2 1-.84 2.082-1.098 2.73-1.089 2.708A111.712 111.712 0 0 0 688 193h-2c.504-5.042 1.245-10.245 5-14Z"/><path fill="#2A2929" d="M681 256h1l.875 2.875c.893 3.177.893 3.177 3.125 5.125h-2v2c-1.938-.625-1.938-.625-4-2-.875-3-.875-3-1-6l2-2Z"/><path fill="#272727" d="m753 228 4 1c.125 7.75.125 7.75-1 10h-2l-1-11Z"/><path fill="#8D8C8D" d="m825 208 .555 1.891c1.362 2.449 1.362 2.449 4.703 3.156l3.867.703 3.883.734L841 215v1a442.851 442.851 0 0 1-6.312-.312l-3.551-.176C828 215 828 215 826.082 213.707 825 212 825 212 825 208Z"/><path fill="#2C2B2C" d="m636 153 2 5a515.428 515.428 0 0 1-4.375-1.375l-2.461-.773C629 155 629 155 627 153c3.069-1.534 5.701-.55 9 0Z"/><path fill="#2A2728" d="M638 70c3 1 3 1 4 3 .134 2.672.043 5.323 0 8l-2 1c-1.292-4.12-2.263-7.668-2-12Z"/><path fill="#848484" d="M635 260v2c-4.353 2.215-8.08 2.078-12.812 1.625l-2.1-.172c-1.697-.14-3.393-.295-5.088-.453v-1l2.922-.184 3.828-.254 3.797-.246c3.195-.292 6.277-1.316 9.453-1.316Z"/><path fill="#2F2E2E" d="M693 220c2 0 2 0 4.688 2.25C700 225 700 225 699.812 227.312L699 229c-3.438-1.146-4.174-1.957-6-5v-4Z"/><path fill="#393738" d="M753 186h6l2 5c-4.517.366-4.517.366-6.812-1.375C753 188 753 188 753 186Z"/><path fill="#9B9B9B" d="M642 115c5.979 2.11 10.694 5.362 15 10-3.656-1.37-6.955-3.01-10.312-5l-2.676-1.562L642 117v-2Z"/><path fill="#909090" d="M660 20v1l-1.977.586c-4.7 1.4-9.381 2.826-14.023 4.414 1-3 1-3 4.062-4.687 4.07-1.621 7.598-1.541 11.938-1.313Z"/><path fill="#2C2C2C" d="M650 246c.75 1.625.75 1.625 1 4-1.938 3.25-1.938 3.25-4 6l-2-2c.375-2.125.375-2.125 1-4h2l2-4Z"/><path fill="#A9A9A9" d="M743 172c5.271 2.797 9.594 5.982 14 10l-1 2-2.336-1.934-3.039-2.504-3.023-2.496c-2.399-2.05-2.399-2.05-4.602-3.066v-2Z"/><path fill="#807D7E" d="M620 152h2a921.746 921.746 0 0 1 1.5 4.812l.844 2.708C625 162 625 162 625 165h-2a921.746 921.746 0 0 1-1.5-4.812l-.844-2.708C620 155 620 155 620 152Z"/><path fill="#272727" d="M622 222c.688 1.688.688 1.688 1 4-1.438 2.75-1.438 2.75-3 5l-3-1c1.186-3.375 2.276-5.647 5-8ZM717.312 163.875c2.834.096 5.024.273 7.688 1.125v2c-8.571.286-8.571.286-12-2 1-1 1-1 4.312-1.125Z"/><path fill="#292929" d="M689 118h2c-.505 4.379-3.178 6.817-6 10l-3-1 1.277-1.461 1.661-1.914 1.652-1.898c1.48-1.683 1.48-1.683 2.41-3.727Z"/><path fill="#312F30" d="M622 110h2v4h2l-2 8c-1.52-1.207-1.52-1.207-3-3-.074-2.262-.074-2.262.313-4.688l.363-2.449L622 110Z"/><path fill="#252223" d="M588 101h12l-1 3a337.987 337.987 0 0 1-4.375-.375l-2.461-.211C590 103 590 103 588 101Z"/><path fill="#303030" d="m653 16 4 1-4 1v-2Zm-5 2h5l1 2-8 3 2-5Z"/><path fill="#201E1F" d="M609 263c1.792.114 3.584.241 5.375.375l3.023.211C620 264 620 264 622 266a875.65 875.65 0 0 1-5.375.062l-3.023.036C611 266 611 266 609 265v-2Z"/><path fill="#252525" d="M736 220c1.625-.054 3.25-.093 4.875-.125l2.742-.07C746 220 746 220 748 222c-4.69 1.117-7.538.806-12-1v-1Z"/><path fill="#262626" d="M725 220h8l1 2c-3.215 1.607-6.436 1.057-10 1l1-3Z"/><path fill="#959595" d="M768 198c3.263 3.086 6.022 5.935 8 10l-1 2a295.026 295.026 0 0 1-3.5-3.75l-1.969-2.109C768 202 768 202 768 198Z"/><path fill="#626262" d="m625 153 4 2v7h-2c-2.29-3.435-2.178-4.985-2-9Z"/><path fill="#2E2E2E" d="M700 9c2.12 3.534 2.532 6.944 3 11-2.5-2.174-3.436-3.73-4-7h-2l1-2 2 1V9Z"/><path fill="#838182" d="m849 258-1 3c-1.707.801-1.707.801-3.812 1.312l-2.083.551c-2.586.168-3.912-.547-6.105-1.863 1.791-.503 3.583-1.002 5.375-1.5l3.023-.844C847 258 847 258 849 258Z"/><path fill="#3A3A3A" d="m833 192-1 1 6 1v1l-11 1v-4c2.491-1.245 3.411-.777 6 0Z"/><path fill="#242424" d="M686 185c1.323 3.97.366 6.117-1 10l-2 1c-.369-7.508-.369-7.508 1.5-10l1.5-1Z"/><path fill="#272727" d="m692 241 1 3a141.161 141.161 0 0 1-5 5h-2c.188-2.312.188-2.312 1-5 2.562-1.812 2.562-1.812 5-3Z"/><path fill="#242324" d="M656 229c1.604 4.009.387 7.058-1 11l-2 2c.115-1.418.243-2.834.375-4.25l.211-2.391c.429-2.445 1.2-4.207 2.414-6.359Z"/><path fill="#2A292A" d="M640 160c3.653 1.25 4.781 1.671 7 5h-2l-1 2c-2-1.812-2-1.812-4-4v-3Z"/><path fill="#9C9C9C" d="M603 101c5.569.48 10.671 1.299 16 3-5.447 1.961-10.914.312-16-2v-1Z"/><path fill="#848484" d="M701 89h1c-.35 8.193-.35 8.193-3.062 11.562L697 102l1.438-4.813.808-2.706c.558-1.836 1.147-3.661 1.754-5.481Z"/><path fill="#9C9C9C" d="M778 214c2.679 2.319 3.662 4.318 4.688 7.688l.761 2.449L784 226c-1.5-1.375-1.5-1.375-3-3v-2h-2l-1-7Z"/><path fill="#8D8D8D" d="M746 219c4.833.414 6.827 2.464 10 6-3.669-.706-6.705-2.277-10-4v-2Z"/><path fill="#626262" d="M692 213c1.5 1.25 1.5 1.25 3 3v4h-2l-1 4-1-5h2l-1-6Z"/><path fill="#858283" d="M867 210c3.15 3.423 3.562 6.443 4 11h-2c-1.193-3.877-2-6.916-2-11Z"/><path fill="#909090" d="m628 46 .75 1.625c1.547 2.94 3.38 5.633 5.25 8.375l-1 2c-4.976-4.816-4.976-4.816-5.062-9.125L628 46Z"/><path fill="#767575" d="M709 37h2c1.262 2.525 1.099 4.312 1.062 7.125l-.027 2.758L712 49c-2.234-4.033-2.545-7.45-3-12Z"/><path fill="#252424" d="M716 240c4.219.479 6.797 1.166 10 4-2.75.25-2.75.25-6 0-2.375-2-2.375-2-4-4Z"/><path fill="#838383" d="M638 162c3.795 1.491 5.61 3.757 8 7l-1 2c-1.17-1.31-2.336-2.623-3.5-3.938l-1.969-2.214C638 163 638 163 638 162Z"/><path fill="#6C6C6C" d="M654 124c4.234 1.311 8.074 2.944 12 5-2.467.883-3.639 1.131-6.141.223l-2.109-1.161-2.141-1.152L654 126v-2Z"/><path fill="#717171" d="M644 27a209.648 209.648 0 0 1-3.312 2.562l-1.864 1.442L637 32l-3-1 2-1 1-3c2.944-1.178 3.9-1.034 7 0Z"/><path fill="#303030" d="M703 21c2 1 2 1 3.125 4.063L707 28h-1l-1 5h-1l-1-12Z"/><path fill="#868585" d="m692 244 2 1a470.142 470.142 0 0 1-2.875 4l-1.617 2.25L688 253h-2c1.312-3.937 2.919-6.227 6-9Z"/><path fill="#2F2F2F" d="m858 203 5 1 1 6h-2v-2h-2l-2-5Z"/><path fill="#8B8B8B" d="M625 146c4.11 1.45 7.433 3.511 11 6-2 1-2 1-4.375.375-3.113-1.631-4.607-3.535-6.625-6.375Z"/><path fill="#353535" d="m636 63 2 1v5c-1.938-.313-1.938-.313-4-1l-1-3 3-2Z"/><path fill="#2B2B2B" d="M632 28h4v3l-7 1c1.25-2 1.25-2 3-4Z"/><path fill="#292929" d="m861 251 1 3c-1.812 2-1.812 2-4 4h-3v-2a159.15 159.15 0 0 1 6-5Z"/><path fill="#252525" d="M821 202h1l1 9-3-1c-.125-5.75-.125-5.75 1-8Z"/><path fill="#1F1E1E" d="M623 108c2.062.438 2.062.438 4 1l1 4-4 1v-4l-2-1 1-1Z"/><path fill="#5B595A" d="m708 226 2 4-2 1v-2h-6v-2c2.076-.553 3.844-1 6-1Z"/><path fill="#252525" d="m823 211 3 1v2l5 2c-1.75.75-1.75.75-4 1-2.25-1.812-2.25-1.812-4-4v-2Z"/><path fill="#2F2F2F" d="M850 195v2l-12-1v-1c4.316-.762 7.744-1.161 12 0Z"/><path fill="#868686" d="M629 155c2.25.125 2.25.125 5 1 2.312 3.062 2.312 3.062 4 6-3.817-1.555-6.192-4.036-9-7Z"/><path fill="#939393" d="M690 121h2c-1.012 3.403-1.648 4.757-4.625 6.812L685 129c1.369-2.95 2.878-5.525 5-8Z"/><path fill="#252324" d="M570 101h8l-1 2c-2.322.407-4.657.744-7 1v-3Z"/><path fill="#313131" d="m635 97 1 4-3 2-1-5 3-1Zm-5 4 2 1-2-1Z"/><path fill="#292929" d="m653 179 4 1 1 5h-3l-2-6Z"/><path fill="#262626" d="M626 50h2c1.461 2.647 2 3.895 2 7l-3-1-1-6Z"/><path fill="#5A5A5A" d="M691 1h4v2c-3.462 3-3.462 3-6 3l2-5Z"/></g><defs><clipPath id="a"><path fill="#fff" d="M0 0h873v270H0z"/></clipPath></defs></svg>