<svg xmlns="http://www.w3.org/2000/svg" width="187" height="188" fill="none"><path fill="#FFDB74" d="M118.482 74.502c-.154.029-.174.126-.104.244.22.355.39.736.592 1.105.219.341.385.714.495 1.105.05.184.145.353.277.491a.329.329 0 0 1-.017.488.32.32 0 0 1-.166.071c-.202.056-.18.208-.088.29.235.221.37.53.688.65.108.042.198.128.15.259a.426.426 0 0 0 .165.501c.132.118.187.221.022.36a.373.373 0 0 0-.086.42c.02.047.049.09.086.125.09.167.22.31.378.415.079.038.167.144.09.221a.51.51 0 0 0-.088.553.155.155 0 0 1 0 .09c-.077.186-.235.394.178.346.108-.014.396.616.359.742-.037.126-.07.248-.238.182-.07-.03-.138-.122-.206-.034a.22.22 0 0 0 0 .279c.246.197.169.486.189.72.008.192.038.38.09.564.059.182.132.319.361.222.114-.051.18 0 .169.123-.033.314.057.677-.334.851a.148.148 0 0 0-.07.078.155.155 0 0 0-.003.104c.022.095.103.07.172.08.321.032.373.125.193.377a.544.544 0 0 0-.075.372c0 .203.022.402-.173.544a.126.126 0 0 0-.044.041.132.132 0 0 0-.022.057.138.138 0 0 0 .039.112c.064.075.121.028.183 0 .125-.078.22-.045.244.1.024.143-.044.267-.183.251-.38-.037-.345.115-.191.356a.417.417 0 0 1 .029.175c.019.256-.025.52.158.75.075.092 0 .22-.077.3-.077.08-.084.186.018.307.158.195.015.413-.038.612-.028.102-.061.175 0 .277.012.24-.05.48-.178.683-.18.09-.141.188-.033.303.108.115.132.188.027.287-.106.1-.22.206.063.221.084 0 .046.113 0 .17a.945.945 0 0 0-.191.836c.077.338-.238.52-.389.76-.09.147-.108.222.02.359.127.137.23.303-.06.398-.141.046-.11.126-.033.22.253.326.205.454-.187.516-.083.013-.158.03-.187.122-.028.09.027.148.082.21.255.298.253.298-.057.532-.128.098-.097.235-.062.36.02.076.084.162.018.222-.328.316-.297.77-.456 1.152a.877.877 0 0 1-.182.338c-.356.323-.341.692-.178 1.092.057.14-.031.221-.123.31a.342.342 0 0 0-.132.422c.046.128.03.243-.143.137a.157.157 0 0 0-.066-.035.169.169 0 0 0-.143.024.168.168 0 0 0-.051.055.244.244 0 0 0 .016.329c.112.129.301.221.191.443-.077.163-.125.336-.33.391-.037.011-.099.082-.09.102.105.283-.079.333-.282.426a.306.306 0 0 0-.192.248.295.295 0 0 0 .022.161.3.3 0 0 0 .1.128.292.292 0 0 1 .099.206.175.175 0 0 1-.081.181c-.082.042-.13-.011-.172-.07-.042-.06-.068-.138-.156-.095a.138.138 0 0 0-.07.181c.072.17-.018.305-.077.442-.06.137-.174.305.019.453a.106.106 0 0 1 .026.041.105.105 0 0 1-.01.094.117.117 0 0 1-.035.035.114.114 0 0 1-.045.015.097.097 0 0 1-.048-.006.113.113 0 0 1-.066-.068c-.044-.129-.116-.184-.244-.14a.277.277 0 0 0-.193.275c0 .221-.117.47.176.621.083.042.085.155.024.241a.22.22 0 0 1-.22.119c-.128-.022-.095-.128-.106-.221-.011-.093.036-.221-.107-.192a.18.18 0 0 0-.148.096.183.183 0 0 0 .003.178c.204.27.074.469-.069.694-.101.157-.274.303-.143.537.033.058-.03.142-.114.142-.154 0-.136-.142-.165-.235-.068 0-.072.049-.066.084.082.392-.22.624-.376.916-.022.042-.103.079-.097.106.117.493-.395.559-.576.851-.112.181-.323.301-.279.561a.15.15 0 0 1-.013.089.147.147 0 0 1-.064.064c-.33.148-.394.458-.457.763-.027.117-.086.188-.2.177-.22-.025-.31.119-.324.3a1.077 1.077 0 0 1-.51.812c-.244.172-.171.294 0 .402a.989.989 0 0 1 .425.559c.057.184.138.166.25.051.082-.082.161-.201.299-.093a.307.307 0 0 1 .137.387c-.099.283.035.528.154.772.061.132.142.11.233.022.191-.19.301.022.439.101a.258.258 0 0 1 .148.256.236.236 0 0 1-.029.1c-.099.246 0 .387.262.418a.34.34 0 0 1 .275.153c.094.177.23.329.396.442a.28.28 0 0 1 .077.329c-.108.442.204.664.466.849.261.186.492.491.86.564a.25.25 0 0 1 .183.258.246.246 0 0 1-.032.109.38.38 0 0 0-.023.17.38.38 0 0 0 .18.282c.05.029.107.046.164.05a.53.53 0 0 1 .389.185.545.545 0 0 1 .108.192c.022.071.03.146.022.22 0 .035.013.099.035.104.271.084.302.4.473.528.321.239.376.557.44.884.055.272.262.442.413.65.051.069.121.033.19 0a.404.404 0 0 1 .201-.024.398.398 0 0 1 .31.24.411.411 0 0 1 .03.202 1.04 1.04 0 0 0 .422.904c.182.161.301.381.336.621.086.348.137.372.44.222.253-.133.363.119.42.254a.592.592 0 0 0 .312.327c.159.075.258.183.172.382-.06.142-.016.222.151.241.256.031.319.221.297.443a.647.647 0 0 0 .44.705c.189.062.35.139.323.387-.013.101.069.126.154.143.394.082.491.144.401.5-.119.475.114.703.468.86a.854.854 0 0 1 .499.754c.009.1.056.193.132.259a.576.576 0 0 1 .249.512c-.016.155.116.244.25.303a.845.845 0 0 1 .414.403c.081.15.158.442.457.232.024-.018.097-.018.11 0 .193.214.415.401.66.555a.207.207 0 0 1 .017.276c-.101.159-.031.263.071.398.239.317.44.662.6 1.026.097.221.22.442.301.663a.284.284 0 0 0 .18.173.275.275 0 0 0 .247-.034c.239-.11.415-.046.422.201 0 .487.198.924.306 1.382a.502.502 0 0 1-.154.493c-.187.173-.104.243.09.283.059.013.119.024.176.04.371.093.4.126.327.513-.041.236.185.442.058.69-.022.042 0 .126-.02.143-.33.232-.334.728-.75.898-.196.079-.22.318-.312.493-.13.27.127.318.272.404a.256.256 0 0 1 .144.163c.01.036.013.074.008.111a.273.273 0 0 1-.039.104.318.318 0 0 1-.162.192.314.314 0 0 1-.25.007 1.407 1.407 0 0 1-.351-.148c-.247-.148-.304.016-.275.19.05.301-.145.511-.231.756-.086.246-.31.222-.517.144-.387-.13-.512-.09-.732.221a.316.316 0 0 1-.297.164 1.92 1.92 0 0 0-.904.152c-.149.058-.251.029-.277-.152-.042-.301-.336-.403-.49-.615a.16.16 0 0 0-.051-.035.153.153 0 0 0-.169.035c-.066.058-.042.133 0 .19.096.126.101.255-.04.332-.141.077-.343.111-.455-.062a.44.44 0 0 0-.398-.199.662.662 0 0 1-.627-.442 1.875 1.875 0 0 0-.904-.869c-.321-.177-.635-.38-.703-.798a.44.44 0 0 0-.306-.345.528.528 0 0 1-.339-.338 2.227 2.227 0 0 0-.734-.811c-.095-.076-.22-.137-.22-.266-.022-.597-.44-.984-.761-1.406a6.029 6.029 0 0 0-1.082-1.185 2.326 2.326 0 0 1-.534-.745.8.8 0 0 0-.319-.382c-.354-.148-.473-.462-.622-.758a1.193 1.193 0 0 0-.44-.54 1.293 1.293 0 0 1-.44-.588.662.662 0 0 0-.424-.424.534.534 0 0 1-.317-.507.372.372 0 0 0-.196-.338.875.875 0 0 1-.488-.674c-.024-.208-.195-.308-.378-.389-.182-.082-.405-.148-.136-.389.059-.051.028-.111-.016-.157a.307.307 0 0 0-.092-.076c-.548-.236-.829-.733-1.157-1.187-.042-.057-.068-.132-.121-.17-.706-.482-.932-1.346-1.521-1.923-.247-.241-.44-.549-.66-.809a1.72 1.72 0 0 1-.317-.54c-.07-.183-.134-.354-.352-.407a.211.211 0 0 1-.125-.121c-.125-.347-.416-.557-.66-.812a10.8 10.8 0 0 1-.741-1.034 2.719 2.719 0 0 0-.294-.374c-.39-.369-.559-.911-1.012-1.236-.189-.137-.136-.272.097-.294.174-.015.242-.161.358-.245.117-.084.047-.17-.037-.221-.22-.155-.457-.303-.691-.442-.14-.086-.239.015-.301.11-.163.252-.514.257-.659.529-.515-.06-.709.583-1.23.557-.202-.011-.314.256-.475.389-.083.068-.145.188-.264.183a.392.392 0 0 0-.459.281c-.031.095-.152.095-.238.08a.866.866 0 0 0-.923.4c-.207.316-.539.334-.84.367-.238.024-.48.15-.735.044-.103-.042-.171.049-.193.139-.099.387-.394.529-.735.613-.057.013-.136.031-.173 0-.34-.248-.537 0-.748.201a.187.187 0 0 1-.136.042.888.888 0 0 0-.636.221c-.134.095-.26.115-.33-.075s-.16-.159-.266-.047a.91.91 0 0 1-.835.277c-.22-.027-.346.166-.44.32-.192.345-.559.414-1.012.316a.904.904 0 0 0-.904.193c-.074.075-.173.15-.292.088-.152-.079-.22.159-.26.117-.233-.221-.376.042-.554.087-.22.055-.393-.135-.607-.12-.063 0-.147-.073-.19 0-.172.281-.425.221-.68.188-.086 0-.19.073-.24.066-.22-.019-.403.104-.607.087-.046 0-.097-.069-.128-.118-.085-.137-.169-.132-.237 0a.254.254 0 0 1-.273.133.327.327 0 0 0-.305.122c-.139.17-.566.066-.697-.159-.07-.12-.143-.193-.249-.084a.58.58 0 0 1-.56.106 1.658 1.658 0 0 0-.768 0c-.359.104-.739 0-1.1.123a.68.68 0 0 1-.616-.159.46.46 0 0 0-.547-.057c-.244.128-.519-.04-.785-.042-.095 0-.086-.111-.057-.195a.223.223 0 0 0-.08-.267c-.11-.084-.158 0-.22.077 0 0-.015.022-.021.02-.308-.057-.526.02-.616.36-.015.062-.108-.015-.127-.092a.38.38 0 0 0-.383-.308.584.584 0 0 1-.416-.221.339.339 0 0 0-.426-.117c-.143.062-.15.179-.108.327.042.148-.073.17-.158.102a4.002 4.002 0 0 0-.928-.5.325.325 0 0 1-.139-.188c-.06-.165-.134-.181-.25-.053-.117.128-.2.113-.278 0-.22-.338-.545-.221-.837-.188-.293.033-.537.098-.752-.194-.137-.184-.3-.467-.612-.166-.094.091-.22-.027-.248-.135-.066-.243-.163-.221-.297-.06a.218.218 0 0 1-.293.049.154.154 0 0 1-.048-.041.156.156 0 0 1-.034-.12.159.159 0 0 1 .02-.06.22.22 0 0 0 .001-.257.21.21 0 0 0-.066-.061.29.29 0 0 0-.365 0c-.242.199-.394.245-.458-.146a.174.174 0 0 0-.124-.143.173.173 0 0 0-.181.052c-.19.161-.275.08-.383-.104a.643.643 0 0 0-.552-.396.874.874 0 0 1-.47-.236c-.273-.234-.704-.234-.88-.606-.06-.119-.174-.053-.22 0-.145.124-.248.066-.363-.04a.62.62 0 0 0-.475-.221c-.127 0-.165-.075-.184-.188a.251.251 0 0 0-.103-.177.257.257 0 0 0-.199-.044c-.497.022-.813-.314-1.147-.599-.108-.093-.163-.221-.335-.143a.126.126 0 0 1-.086 0c-.103-.261-.44-.239-.565-.518-.125-.278-.44-.338-.712-.422-.132-.042-.22-.062-.282-.203-.116-.248-.235-.52-.6-.467a.178.178 0 0 1-.116-.033.176.176 0 0 1-.067-.102c-.094-.426-.567-.508-.756-.846-.36.084-.378-.261-.554-.418-.242-.221-.457-.504-.827-.544a.193.193 0 0 1-.13-.111c-.184-.645-.714-.975-1.196-1.359a2.084 2.084 0 0 1-.512-.599c-.22-.443-.68-.617-.92-.995s-.66-.675-.77-1.165a.409.409 0 0 0-.219-.27c-.405-.181-.548-.544-.673-.922a.6.6 0 0 0-.246-.32 1.863 1.863 0 0 1-.568-.723c-.149-.301-.44-.531-.398-.94.014-.148-.22-.316-.33-.475-.03-.04-.09-.073-.094-.115-.062-.52-.53-.818-.684-1.271-.22-.648-.64-1.21-.798-1.869a2.536 2.536 0 0 0-.611-1.105.948.948 0 0 1-.22-.455 1.388 1.388 0 0 0-.257-.719.135.135 0 0 1-.025-.112c.176-.374-.028-.697-.112-1.042a3.005 3.005 0 0 0-.262-.493c-.16-.373-.13-.78-.246-1.14-.143-.443-.112-.925-.294-1.356a.666.666 0 0 1-.047-.323.906.906 0 0 0-.14-.6.442.442 0 0 1 .068-.624c.151-.155.26-.316-.073-.394-.097-.022-.075-.124-.092-.201-.093-.387 0-.798-.165-1.18a.443.443 0 0 1 .022-.38 1.038 1.038 0 0 0 .055-.84 1.621 1.621 0 0 1-.075-.613 1.46 1.46 0 0 0-.077-.796.714.714 0 0 1 .11-.663.78.78 0 0 0 .09-.575c-.081-.509-.198-1.01 0-1.525.03-.158.034-.32.011-.478 0-.221-.04-.442.22-.601.125-.073.086-.221.048-.36-.079-.28-.153-.551.014-.839.057-.1 0-.256.02-.384.048-.606.125-1.196.503-1.714.194-.265.145-.63.13-.93.011-.383.076-.763.191-1.128a1.22 1.22 0 0 0 .075-.345c-.011-.157.013-.285.22-.283.079 0 .147-.04.11-.13-.066-.162.088-.305.066-.42-.101-.546.378-.913.393-1.415 0-.029.014-.07.033-.08.456-.22.324-.683.44-1.04.011-.036.018-.091.042-.107.339-.186.358-.526.413-.851a.811.811 0 0 1 .143-.391c.27-.328.356-.745.528-1.121.013-.027.011-.071.03-.082.419-.272.427-.794.707-1.15.077-.116.133-.246.165-.382.059-.184.162-.33.393-.25.148.05.198-.013.22-.155.038-.307.126-.605.26-.884a.628.628 0 0 1 .382-.338.98.98 0 0 0 .576-.557c.22-.442.277-.958.66-1.327.35-.334.515-.82.83-1.194a.612.612 0 0 1 .424-.283.463.463 0 0 0 .378-.468c.045-.257.165-.496.343-.686.03-.037.081-.09.116-.088.383.038.4-.28.506-.513a.602.602 0 0 1 .301-.316.994.994 0 0 0 .36-.35c.183-.231.271-.663.735-.415.08.042.121-.07.159-.144.156-.305.22-.663.52-.884.302-.221.595-.535.896-.776.209-.166.418-.47.772-.442a.061.061 0 0 0 .05-.024c.134-.305.43-.292.684-.38.162-.04.33-.04.493 0 .105.013.255.021.242-.136-.013-.157-.137-.075-.22-.05-.196.055-.207-.067-.18-.2a.266.266 0 0 1 .252-.22c.11 0 .22-.018.282.112.061.13.06.206.189.186a.294.294 0 0 0 .273-.234c.033-.14.127-.18.264-.193a.343.343 0 0 0 .278-.158.348.348 0 0 0 .03-.321c-.051-.19.067-.237.22-.221.19 0 .353-.014.439-.221.042-.089.119-.089.2-.031a.335.335 0 0 0 .497-.093.543.543 0 0 1 .44-.21c.273 0 .37-.301.585-.425.145-.084.22-.236.376-.024a.126.126 0 0 0 .187.02.144.144 0 0 0 .028-.166c-.026-.09-.178-.186 0-.267.178-.082.172.108.242.185.07.078.126.221.253.093.128-.128.185-.243-.048-.303-.09-.024-.194-.03-.178-.155.015-.123.107-.148.189-.172a.19.19 0 0 1 .242.126c.083.382.27.267.494.14.16-.094.357-.124.462-.304.016-.026.082-.057.1-.046.243.148.349-.08.51-.175.125-.075.17-.161.116-.294-.08-.199.02-.265.193-.258.335.01.713-.113.913.311a.154.154 0 0 0 .103.085.152.152 0 0 0 .13-.03c.103-.095 0-.159-.064-.22-.099-.102-.17-.208-.072-.343a.293.293 0 0 1 .4-.086.363.363 0 0 0 .409.013.397.397 0 0 1 .495.075.14.14 0 0 0 .189.031c.079-.053.05-.113 0-.179-.077-.113-.066-.221.077-.256a.168.168 0 0 1 .215.081.17.17 0 0 1 .018.082c.03.31.178.299.371.135a.41.41 0 0 1 .28-.073c.25 0 .528.042.56-.356.014-.163.174-.124.286-.055.148.086.286.22.396-.053.042-.1.143-.058.233-.016a.508.508 0 0 0 .585-.046.22.22 0 0 1 .16-.06c.427.033.855-.032 1.252-.19.055-.02.138-.064.167-.042.411.325.836.057 1.25.02a3.17 3.17 0 0 1 .947 0c.227.03.457.03.684 0a8.539 8.539 0 0 1 1.236-.011c.235.036.475.021.703-.044.26-.098.484-.091.634.196.054.087.13.157.22.206.063.042.189.06.195-.042 0-.232.147-.152.286-.194.413-.127.794.106 1.2.055.22-.027.44.197.698.236a.812.812 0 0 0 .35.011.795.795 0 0 1 .582.047c.22.098.463.133.702.1.29-.015.576.08.8.267.217.16.488.228.754.188.412-.04.85-.093 1.175.3.145.175.395.087.596.135a.611.611 0 0 1 .413.246.44.44 0 0 0 .567.183.422.422 0 0 1 .517.093c.17.125.371.202.581.221.43.07.848.206 1.24.4a.66.66 0 0 1 .261.239.326.326 0 0 0 .26.181c.31.02.563.325.908.181.029-.013.095.027.128.06.294.299.701.296 1.068.385.192.046.288-.062.187-.266-.026-.05-.081-.095-.017-.154a.095.095 0 0 1 .136 0c.139.132.246.04.372-.031.125-.07.279-.177.4.026-.11.04-.238 0-.334.093-.097.093-.233.12-.132.279.05.08.11.152.033.24a.276.276 0 0 1-.306.056.79.79 0 0 0-.552 0c.048.113.209.144.18.267-.035.16-.184.058-.279.089a.309.309 0 0 0-.116.508.714.714 0 0 1 .154.929c-.174.303-.128.455.175.592a.103.103 0 0 1 .055.062c.152.369.362.71.623 1.01a2.4 2.4 0 0 0 .44.522c.393.303.91.412 1.235.818.025.034.091.04.137.047a.337.337 0 0 1 .312.278c.119.549.64.663 1.003.949.36-.182.42.09.503.331 0 .016.029.027.044.038l1.463.977c.015 0 .039 0 .057.015.143.076.143.184.011.242-.325.159-.583.43-.728.762-.262.52-.691.885-1.047 1.327a2.564 2.564 0 0 1-.55-.621 1.75 1.75 0 0 0-.351-.359 3.147 3.147 0 0 0-.722-.371c-.42-.221-.712-.628-1.148-.858a20.203 20.203 0 0 1-1.759-1.074 5.026 5.026 0 0 0-1.464-.743c-.895-.248-1.694-.783-2.64-.909a.733.733 0 0 1-.366-.192c-.053-.046-.108-.117-.178-.097a.956.956 0 0 1-.968-.33.282.282 0 0 0-.134-.064c-.411-.088-.827-.161-1.234-.265a8.27 8.27 0 0 1-1.05-.243c-.581-.235-1.241-.29-1.74-.719a.143.143 0 0 0-.086-.02 2.3 2.3 0 0 1-.88-.234c-.343-.153-.747 0-1.064-.241-.312.221-.598-.442-.915-.024a.043.043 0 0 1-.028 0c-.156-.153-.427-.095-.552-.323-.068-.126-.17-.084-.22.044-.073.221-.176.259-.328.066-.044-.057-.097-.046-.16-.028-.385.115-.772-.352-1.157 0h-.029c-.16-.142-.261-.053-.354.09a.158.158 0 0 1-.165.049c-.305-.029-.613 0-.92-.024-.201-.016-.44-.166-.584-.064-.343.26-.725.22-1.1.254a8.28 8.28 0 0 1-1.055.097 1.75 1.75 0 0 0-.752 0c-.593.199-1.26.102-1.869.332a3.9 3.9 0 0 1-.756.22c-.22.036-.418.182-.64-.01-.08-.069-.17-.053-.22.088-.14.385-.147.376-.52.252a.42.42 0 0 0-.373.031c-.152.13-.324.235-.508.312-.042.013-.075.035-.068.082.048.276-.106.194-.266.177-.16-.018-.396-.124-.46.126s-.14.309-.367.22a.196.196 0 0 0-.136.038c-.28.15-.524.36-.713.617a.238.238 0 0 1-.253.12.51.51 0 0 0-.52.21.141.141 0 0 1-.183.061c-.08-.035-.11 0-.11.08 0 .247-.185.31-.367.371-.313.104-.614.221-.724.577-.029.095-.117.115-.22.13-.29.047-.44.414-.785.363a.413.413 0 0 1-.026.11.457.457 0 0 1-.128.16c-.277.168-.44.473-.796.564a.474.474 0 0 0-.33.395c0 .045-.04.118-.068.122-.42.055-.521.49-.807.707a1.996 1.996 0 0 0-.495.527c-.244.406-.525.791-.793 1.182-.051.071-.152.137-.077.221.074.084.158 0 .22-.05.061-.051.131-.133.195-.034.064.1-.024.175-.092.19-.22.051-.295.222-.411.372-.082.1-.139.175-.29.108-.152-.066-.256.038-.302.17-.046.133-.04.21.108.266.147.055.123.174.022.276a.853.853 0 0 1-.194.186c-.12.062-.25.28-.374.124-.123-.157.102-.221.207-.301.07-.05.123-.106.1-.197a.113.113 0 0 0-.104-.095c-.095 0-.145.064-.178.135a.476.476 0 0 1-.308.307c-.337.06-.273.243-.185.46.037.09.055.19.086.283.04.13.077.272-.073.343-.15.07-.257-.058-.34-.17-.053-.073-.03-.233-.168-.206-.138.026-.158.153-.171.283-.013.13-.335.424-.458.389-.068-.018-.123-.128-.204-.03-.081.096.037.14.057.21.062.22.163.273.332.092.092-.1.183-.042.266 0a.111.111 0 0 1 .049.153.587.587 0 0 1-.627.172c-.073-.053-.121-.197-.24-.108-.119.088-.066.183-.035.278.048.153.075.276-.154.283-.119 0-.103.082-.068.173a.513.513 0 0 1-.242.619.27.27 0 0 0-.154.172c-.09.387-.374.628-.616.917-.143.17-.16.485-.323.701-.02.025.037.133-.035.148-.385.091-.196.403-.244.62-.057.258-.374.302-.425.588-.096.548-.085 1.12-.376 1.633a3.025 3.025 0 0 0-.22.644c-.156.546-.085 1.165-.525 1.622a.068.068 0 0 0-.011.058c.13.351 0 .683-.081 1.017-.082.334.061.663-.157.95a.365.365 0 0 0 0 .266c.057.233.03.479-.077.694a.784.784 0 0 0 0 .738c.13.221.22.502-.059.728a.148.148 0 0 0 .02.254c.174.108.24.22.046.362a.125.125 0 0 0-.053.141.126.126 0 0 0 .024.047c.157.197.036.358-.057.522-.092.163-.305.345.075.424.022 0 .055.049.05.06-.076.168.03.387-.094.522a.614.614 0 0 0-.134.776c.017.048.017.1 0 .148-.11.4.055.74.22 1.083.075.153.105.299-.062.425a.22.22 0 0 0-.072.291c.072.197.165.385.277.562a.348.348 0 0 1 .03.489c-.074.097-.127.22.018.31.207.134.158.289.046.461a.38.38 0 0 0 .055.56.399.399 0 0 1 .152.37c-.015.162-.029.321.191.377.106.026.121.128 0 .159-.336.09-.187.24-.1.442.085.201.353.416.283.595-.117.298 0 .537.028.8a.756.756 0 0 0 .346.597c.494.312.45.858.556 1.337a.144.144 0 0 1-.022.087c-.046.084-.14.165-.022.258.119.093.17-.082.288-.099-.08.199-.123.384.064.528.181.182.324.4.42.639.202.365.246.8.53 1.123a.72.72 0 0 1 .171.276c.113.321.29.615.52.865a.55.55 0 0 1 .156.4c-.018.21-.06.442.272.431.04 0 .09.097.123.159.144.349.37.657.66.898a.628.628 0 0 1 .257.517c0 .144.027.292.174.358.196.091.123-.188.286-.221-.1.241.064.336.22.442.225.15.405.36.519.606a.628.628 0 0 0 .391.387c.363.119.515.489.81.688a.175.175 0 0 1 .05.132c-.011.19.055.288.257.261a.216.216 0 0 1 .117.027.213.213 0 0 1 .085.084c.146.189.329.346.537.462.235.154.323.497.574.55.572.126.603.869 1.168.968.01 0 .01.058.022.084.099.222.187.443.501.306a.122.122 0 0 1 .132.046c.176.131.34.279.486.442a.845.845 0 0 0 .706.383.488.488 0 0 1 .37.168c.195.232.536.311.659.632a.183.183 0 0 0 .207.095c.545-.113.903.305 1.253.564.382.287.801.523 1.245.7.268.111.55.166.822.261.474.133.939.296 1.392.489.321.164.741.141 1.023.442a.098.098 0 0 0 .063.04.095.095 0 0 0 .073-.016c.171-.152.277-.033.405.078a.54.54 0 0 0 .44.104c.096-.016.22-.06.292-.025.22.1.391.153.556-.088.044-.064.178-.053.242.024.064.078-.015.128-.086.162a.111.111 0 0 0-.044.026.11.11 0 0 0-.01.144.219.219 0 0 0 .14.146c.034.01.07.006.102-.01a.138.138 0 0 0 .067-.076c.055-.097.093-.201.112-.31a.223.223 0 0 1 .22-.197.22.22 0 0 1 .237.148c.045.122-.07.171-.146.221-.077.051-.154.084-.062.18a.261.261 0 0 0 .378-.078c.031-.095-.024-.221.145-.247.17-.027.21.092.273.221.014.03.035.056.063.076a.19.19 0 0 0 .189.015.19.19 0 0 0 .073-.065c.159-.234.352-.221.596-.221.179 0 .32.1.489.106.428.013.428.022.466.425.33-.518.802-.442 1.277-.376.062 0 .128.024.168-.029.187-.265.42-.205.66-.102a.344.344 0 0 0 .316-.028.6.6 0 0 1 .811.095c.06.059.172.15.22.026.07-.194.246-.221.383-.309.22-.131.462-.296.719-.025a.346.346 0 0 0 .312.049c.2-.061.383-.168.534-.312a.368.368 0 0 1 .493-.017c.205.181.337.106.473-.06.11-.13.253-.241.415-.168a1.114 1.114 0 0 0 .922.062c.262-.1.545-.115.787-.303.526-.405.532-.394 1.034.013h.061c.08-.082.04-.201.095-.3.31-.571.967-.403 1.407-.688.024-.015.077.016.114.024.262.056.495.049.643-.221.04-.075.118-.177.206-.152.22.066.394-.093.585-.111.298-.033.572-.182.763-.413a.349.349 0 0 1 .191-.137.349.349 0 0 1 .234.013.248.248 0 0 0 .171.024c.35-.132.686-.274.86-.663a.884.884 0 0 1 .581-.517.543.543 0 0 0 .285-.151.36.36 0 0 1 .524-.064c.055.036.162.144.204-.024.126-.38.361-.714.675-.959.185-.171.339-.443.598-.462a.613.613 0 0 0 .475-.308c.094-.167.23-.305.396-.4a1.29 1.29 0 0 0 .772-.725.26.26 0 0 1 .238-.159c.27-.013.545 0 .503-.409 0-.02.033-.051.057-.067.511-.351.75-.972 1.287-1.302a.627.627 0 0 0 .255-.395.99.99 0 0 1 .268-.493c.42-.405.515-.993.827-1.457-.128-.354.363-.442.317-.77.424-.364.578-.884.815-1.361.275-.555.423-1.174.803-1.685.183-.182.327-.4.424-.639.058-.234.097-.455.381-.508.028 0 .066-.06.068-.093.036-.258.133-.504.282-.717.184-.342.092-.81.479-1.056.061-.04.048-.13.039-.2a.775.775 0 0 1 .064-.38c.181-.52.331-1.05.451-1.589.044-.161.066-.33.099-.489.073-.333.44-.632.169-1.025a.15.15 0 0 1 0-.144c.209-.243.165-.55.198-.83.027-.22.22-.441.161-.61a.795.795 0 0 1-.027-.477c.164-.904.279-1.817.343-2.734.007-.352.07-.7.185-1.03.033-.078.057-.166-.022-.222-.079-.055-.086.109-.244.104.26-.47.053-.935.053-1.401a1.73 1.73 0 0 1 .035-.175.498.498 0 0 0 0-.237c-.244-.59 0-1.216-.15-1.82-.123-.494-.059-1.032-.411-1.47a.74.74 0 0 1-.132-.573c.066-.36-.22-.69-.074-1.056 0-.013 0-.037-.022-.053-.295-.413-.282-.96-.632-1.366-.219-.26-.246-.663-.453-.964-.116-.168-.299-.316-.281-.548.037-.456-.33-.805-.31-1.258a.235.235 0 0 0-.139-.221c-.325-.108-.406-.385-.486-.663-.066-.221-.197-.246-.34-.08-.205.239-.392.49-.583.74a.1.1 0 0 0-.018.056c0 .208 0 .411-.286.442-.055 0-.068.07-.048.122.07.172-.081.22-.145.34a1.417 1.417 0 0 1-.541.537.498.498 0 0 0-.233.372.357.357 0 0 1-.315.345c-.255.055-.27.194-.204.395.039.12.066.255-.049.332-.206.14-.283.376-.439.55-.156.175-.207.443-.427.531-.409.184-.44.646-.717.929-.033.033-.028.119-.015.174.072.367-.299.517-.411.798-.042.104-.297.246-.374.41-.11.22-.376.35-.403.616a.316.316 0 0 1-.22.292.309.309 0 0 0-.219.35c0 .152-.018.318-.205.353a.345.345 0 0 0-.334.431c.015.124-.088.19-.2.221-.112.031-.183.093-.104.221.139.221 0 .288-.182.32-.134.025-.185.058-.145.222.039.163-.255.608-.418.663-.123.044-.257.097-.191.243.132.285-.036.4-.236.522-.14.084-.272.179-.409.27-.037-.283.247-.241.372-.359.125-.117.268-.16.125-.373a.222.222 0 0 1-.034-.224.219.219 0 0 1 .179-.136c.332-.065.31-.354.418-.56.038-.073-.066-.22 0-.22.44-.043.31-.5.532-.69a.404.404 0 0 0 .066-.063c.031-.048.082-.103.079-.154-.01-.25.154-.363.348-.43a.3.3 0 0 0 .241-.236.319.319 0 0 0 .001-.12.294.294 0 0 1 .033-.228.288.288 0 0 1 .187-.136c.059-.015.127-.03.143-.095.092-.371.422-.599.563-.942a.32.32 0 0 1 .198-.21c.114-.04.136-.135.189-.236.118-.221.387-.391.22-.708 0 0 0-.02.013-.024.303-.221.365-.643.659-.869.251-.21.47-.457.649-.732.079-.147.183-.279.306-.39.184-.142.068-.443-.172-.51a.201.201 0 0 1-.167-.27c.046-.134.163-.096.244-.028.082.069.183.027.29-.013.464-.166.541-.739.983-.92.014 0 .027-.033.027-.05-.011-.184.024-.332.242-.374.05 0 .059-.078.026-.126-.033-.049-.083-.025-.123.01a.255.255 0 0 1-.044.04.276.276 0 0 1-.378-.01.163.163 0 0 1-.07-.113.155.155 0 0 1 .004-.068.157.157 0 0 1 .031-.06c.103-.153.23-.069.347-.03a.341.341 0 0 0 .314-.017c.383-.192.44-.61.671-.9.126-.197.302-.356.51-.462.236-.08.46-.1.33-.442 0-.026.044-.084.075-.121.208-.326.47-.613.774-.85.097-.068.077-.159.066-.267a.514.514 0 0 1 .259-.57.624.624 0 0 0 .346-.3c.109-.204.275-.37.477-.48.156-.087.378-.173.182-.425a.088.088 0 0 1-.019-.054c0-.02.007-.04.019-.054.093-.13.623-.18.744-.069.161.19.351.352.563.482.278.112.531.28.743.493.303.298.723.478 1.044.774.22.214.5.214.634.435Zm-5.339 37.616c0-.088 0-.221-.141-.197a.26.26 0 0 0-.22.252c0 .1.079.16.171.166.154.014.187-.088.19-.221Z"/><path fill="#E75C34" d="M108.217 70.824c.356-.442.785-.81 1.046-1.327.145-.333.403-.603.728-.763.132-.057.132-.165-.011-.24-.017 0-.042 0-.057-.016l-1.462-.977c-.016-.011-.04-.022-.044-.038-.084-.24-.143-.513-.504-.331-.363-.288-.879-.4-1.003-.949a.337.337 0 0 0-.312-.279c-.046 0-.112-.013-.136-.046-.326-.407-.842-.515-1.236-.818a2.456 2.456 0 0 1-.44-.521c-.26-.3-.471-.642-.622-1.01a.122.122 0 0 0-.021-.037.114.114 0 0 0-.034-.026c-.303-.137-.35-.29-.176-.592a.715.715 0 0 0-.154-.929.302.302 0 0 1-.082-.286.31.31 0 0 1 .199-.222c.094-.031.244.07.279-.089.029-.123-.132-.154-.18-.267a.79.79 0 0 1 .552 0 .27.27 0 0 0 .305-.055c.077-.089.018-.162-.033-.241-.101-.16.055-.197.132-.279.077-.082.22-.053.334-.093l.17-.064c.173-.044.237-.294.479-.22.44.116.75-.198 1.1-.346.104-.06.214-.108.329-.141.115-.02.302-.014.308-.175.007-.161-.187-.088-.279-.148-.011 0 0-.033-.018-.066.22-.042.44-.221.61.046.169.268.239.201.345 0 .22-.442.693-.47 1.066-.639.15-.066.343-.086.506-.155.2-.084.356-.355.618-.121.013.013.062 0 .084-.018.347-.247.752-.28 1.154-.354.22-.042.519-.081.622-.267a.57.57 0 0 1 .39-.323c.354-.022.609-.25.919-.358.143-.074.29-.14.44-.199.457-.113.932-.192 1.319-.508-.035-.093-.288 0-.202-.2.063-.148.2-.148.334-.123.048 0 .094.03.141.044a.245.245 0 0 0 .204 0c.348-.221.823-.192 1.1-.546a.1.1 0 0 1 .077-.038c.367.087.516-.316.789-.369.273-.053.44-.389.767-.234a.098.098 0 0 0 .074-.008.085.085 0 0 0 .028-.025.089.089 0 0 0 .017-.034.085.085 0 0 0 .002-.058.087.087 0 0 0-.035-.048c-.055-.046-.22-.026-.129-.165.09-.14.204-.1.314-.016a.167.167 0 0 0 .148.057.17.17 0 0 0 .131-.09c.038-.05.075-.104.143-.07.202.092.341-.058.495-.131.088-.042.165-.148.264-.113.163.064.22-.05.275-.144l.035-.035c.123-.161.341-.221.422-.425a.262.262 0 0 1 .284.065c-.042.103-.084.207-.137.344.205-.06.24-.22.321-.342.124-.086.234-.25.372 0 .07.124.132 0 .205-.051.167-.102.36-.332.499.04.022.062.103.106.145.07.277-.22.33.04.416.193.156.285.149.29.439.133.084-.045.324.192.33.325a.232.232 0 0 1-.092.178c-.126 0-.187.08-.134.193.052.113.11.046.158-.018l.281.257a.146.146 0 0 0-.013.154v.162c.108.14.203.272.038.442-.064.064-.086.203-.027.25.137.104.137.152 0 .256-.055.042.016.153.077.201.062.049.123 0 .152-.07.029-.071.125-.087.202-.073.077.013.073.101.099.161.101.243 0 .486.024.727v.206c-.332.3-.332.3-.05.517l-.055.135c-.13.055-.119.11 0 .168.01.009.02.018.028.029l.08.267c-.106.056-.185.126-.143.264a.667.667 0 0 1-.143.442.612.612 0 0 0-.141.442c.035.179.095.325-.092.475-.091.07-.049.248.074.305.354.166.139.365.044.553-.033.068-.16.117-.127.188.154.327-.095.462-.273.634-.066.067-.13.135-.035.221.095.087.132 0 .187-.05a.175.175 0 0 1 .22-.04c.092.046.075.135.044.21-.084.203.075.303.176.429v.22c-.172.03-.117.178-.099.257.061.274.037.365-.242.18a.2.2 0 0 0-.271.034.201.201 0 0 0-.044.089c-.035.13.088.177.205.197.068.014.135.033.2.057.189.069.176.168.035.274a.736.736 0 0 1-.402.18c-.108 0-.22.028-.185.165s.158.078.249.047c.09-.031.204-.078.31-.106.105-.03.169-.042.198.064.005.02.007.04.003.06a.126.126 0 0 1-.129.106c-.242.026-.22.132-.116.3.14.241.085.385-.196.495-.189.075-.178.232-.066.29.171.103.317.243.429.409.026.037.053.073.081.108.011.288.06.582-.259.76-.097.056-.086.144-.036.26.081.231.187.454.315.663a.11.11 0 0 1 0 .139c-.235.276-.156.623-.22.937-.057.281-.048.443.31.352-.358.508-.383.851-.097 1.123l.033.04c-.037.243.22.528-.105.731-.016 0-.013.089 0 .111.277.283.022.557-.027.827-.022.128-.019.33-.25.342-.057 0-.068.091-.033.15.035.06.134.118.195.04.17-.22.159.027.22.08-.015.058 0 .142-.046.17-.31.235-.092.465-.02.712.055.195.075.418-.209.484-.077.016-.136.04-.136.126a.15.15 0 0 0 .123.15c.09.023.178.038.178.162a.181.181 0 0 1-.115.18.178.178 0 0 1-.074.012c-.248.02-.046.553-.332.372-.286-.181-.358.05-.523.082-.22.04-.169.19-.035.298.081.066.22.086.151.237-.068.15-.22.11-.334.053-.046-.12-.147-.075-.22-.073-.25.013-.404-.177-.589-.292-.053-.031 0-.221-.143-.148a.221.221 0 0 0-.119.278c.033.106.071.208-.013.31a.107.107 0 0 0-.032.04.113.113 0 0 0 0 .103c.007.016.018.03.032.04.075.06.121 0 .176-.048.154-.142.292-.157.383.07-.297.339-.629.255-.968.085a.423.423 0 0 0-.484-.155c-.44.115-.73.024-.908-.336-.114-.221-.134-.442-.42-.17-.051.05-.152 0-.22-.067a1.966 1.966 0 0 1-.288-.3.775.775 0 0 0-.552-.339l-.075-.07c-.134-.222-.413-.222-.587-.37-.321-.296-.741-.475-1.044-.773a2.206 2.206 0 0 0-.744-.493 2.354 2.354 0 0 1-.562-.482c-.121-.11-.66-.062-.744.068a.088.088 0 0 0 0 .109c.196.252-.026.338-.182.424-.202.11-.368.277-.477.48a.624.624 0 0 1-.346.3.508.508 0 0 0-.259.57c.011.109.031.2-.066.268a3.388 3.388 0 0 0-.774.85c-.031.037-.084.094-.075.12.13.339-.094.359-.33.443a1.304 1.304 0 0 0-.51.462c-.233.29-.288.707-.671.9a.34.34 0 0 1-.314.017c-.117-.04-.244-.123-.348.03a.17.17 0 0 0-.011.191c.012.02.028.036.047.05a.275.275 0 0 0 .378.01.26.26 0 0 0 .044-.04c.039-.035.081-.07.123-.01.042.059.024.117-.026.125-.22.042-.253.19-.242.374 0 .018-.013.046-.027.05-.439.182-.519.755-.983.92-.107.04-.182.102-.29.014-.108-.089-.198-.106-.244.029a.196.196 0 0 0-.01.09.2.2 0 0 0 .177.18c.24.063.356.366.172.508a1.458 1.458 0 0 0-.306.39c-.18.275-.398.522-.649.733-.29.22-.352.64-.659.868 0 0-.016.02-.014.025.165.316-.103.482-.219.707-.053.102-.075.197-.19.237a.327.327 0 0 0-.197.21c-.141.343-.471.57-.563.942-.016.064-.084.08-.143.095a.287.287 0 0 0-.187.135.296.296 0 0 0-.033.23.318.318 0 0 1-.047.228.3.3 0 0 1-.195.127c-.194.067-.359.18-.348.43 0 .05-.048.105-.079.154a.45.45 0 0 1-.066.062c-.22.19-.101.648-.532.69-.059 0 .044.148 0 .22-.108.206-.086.496-.418.56a.218.218 0 0 0-.179.137.221.221 0 0 0 .034.223c.143.221 0 .261-.125.374-.126.113-.409.075-.372.358l-.026.166c-.042.011-.051.038-.033.073l-.22.221c-.029 0-.075.016-.079.029-.114.375-.307.72-.565 1.014-.058.078-.029.222-.115.299-.244.186-.334.517-.624.663a.291.291 0 0 0-.119.166c-.119.374-.174.767-.44 1.092-.079.1-.2.153-.248.285-.163.365-.43.673-.768.885a.564.564 0 0 0-.165.756c.073.112.049.146-.072.22-.332.195-.414.6-.66.87-.02.022.011.086 0 .117-.114.185-.156.442-.347.548a.746.746 0 0 0-.482.77c0 .07 0 .19-.044.192-.453.028-.407.475-.607.712a.095.095 0 0 1-.02.022c-.173.22-.483.336-.472.685 0 .058-.07.086-.132.102-.332.093-.348.413-.456.663-.032.075.025.192-.09.221-.173.057-.158.166-.107.307.05.142-.053.221-.146.303-.092.082-.175.016-.261-.046-.18-.133-.306-.078-.301.15a.803.803 0 0 1-.44.69c-.22.152-.317.497-.693.418-.147-.034-.286.033-.207.245.024.066.121.142.031.21-.09.069-.176 0-.248-.042a1.172 1.172 0 0 0-.57-.239c-.255-.02-.365.075-.33.347l.154-.042c.123-.035.26-.053.312.084.07.182-.11.171-.206.221-.06.037-.121.068-.185.096-.066.024-.17.033-.176-.049-.024-.334-.14-.221-.288-.08a.212.212 0 0 1-.198.011c-.204-.104-.468-.132-.554-.404-.033-.109-.119-.093-.22-.109-.297-.053-.693.142-.847-.313 0-.036-.079-.06-.125-.071-.154-.04-.253-.093-.264-.292 0-.146-.092-.35-.306-.124-.092.102-.158.027-.206-.06-.196-.353-.352-.718-.247-1.138.027-.1 0-.221-.114-.17-.266.11-.292-.062-.36-.239a.793.793 0 0 0-.231-.332l-.04-.046a.359.359 0 0 0-.196-.192l-.052-.093-.642-1.145v-.157c.079-.076.07-.173.076-.279-.125-.015-.244.05-.356 0a.139.139 0 0 1-.03-.03.248.248 0 0 0-.124-.222l-.057-.086c0-.051-.015-.084-.07-.09l-.128-.193c.077-.491-.22-.9-.286-1.36a.222.222 0 0 0-.116-.194l-.055-.089v-.088c-.205-.336-.44-.65-.484-1.068-.013-.13-.13-.049-.174.042l-.266.254c-.099 0-.16.047-.132.162l-.132.19c-.279.188-.556.373-.633.74a.193.193 0 0 1-.198.153c-.176 0-.253.117-.363.221-.178.166-.103.489-.373.586l-.113.102c-.38.353-.512.901-.94 1.215a.099.099 0 0 0-.014.027c-.07.218-.174.422-.31.606-.158.174-.292.37-.396.581-.134.221-.44.39-.622.663-.095.14-.273.261-.3.427-.05.334-.27.425-.54.489-.132.03-.262.08-.137.26.093.133.044.241-.072.336a.853.853 0 0 0-.191.292c-.176.328-.52.54-.647.907 0 .013-.035.017-.053.026-.182.098-.365.184-.4.442a.26.26 0 0 1-.22.184c-.244.024-.316.168-.308.389 0 .057 0 .15-.035.168a4.36 4.36 0 0 0-.941.763c-.09.082-.183.128-.196.258a.664.664 0 0 1-.301.476c-.191.157-.468.236-.559.508l-.028.031a.592.592 0 0 1-.682-.239.204.204 0 0 0-.255-.097.119.119 0 0 0-.088.139.242.242 0 0 0 .22.186h.15c.206.053.22.261.279.409.028.069-.09.097-.156.06a.94.94 0 0 1-.203-.17c-.085-.096-.178-.144-.275-.036-.096.108-.189.095-.307.018a.19.19 0 0 0-.068-.032.192.192 0 0 0-.144.024.193.193 0 0 0-.054.052c-.073.104 0 .168.088.221.164.091.105.27.145.402.04.133-.073.102-.13.047-.134-.131-.312-.221-.398-.396-.037-.079-.11-.144-.19-.093-.078.051-.243.118-.285.244-.042.126.061.15.15.185.125.047.2.113.05.221l-.077-.053c-.066-.152-.156-.077-.22 0a.64.64 0 0 1-.246.14c-.15-.062-.154-.261-.304-.323-.07-.082-.09-.21-.22-.239l-.153-.15c-.09-.202-.174-.414-.273-.597-.068-.126-.174-.617-.541-.221-.026.026-.125-.016-.191-.025l-.095-.09c.026-.347-.321-.734-.737-.816v-.221c.143.015.295-.013.253-.186a1.025 1.025 0 0 1 .049-.524l.094-.055c.117.075.246.035.37.042.072 0 .15-.027.134-.115a.1.1 0 0 0-.018-.048.101.101 0 0 0-.09-.044.106.106 0 0 0-.048.017c-.018-.241.22-.407.184-.663a1.181 1.181 0 0 1 .541-1.181c.343-.245.66-.442.737-.904a.082.082 0 0 1 .03-.051c.364-.221.52-.648.852-.902.03.031.068.042.092 0 .024-.042-.01-.049-.02-.075l.049-.09a.59.59 0 0 0 .429-.28.382.382 0 0 0 .195-.236l.41-.117c-.4-.133-.025-.33-.148-.482l.068-.097c.174 0 .266-.075.246-.261l.203-.367c.173-.11.23-.314.358-.464.066-.078.123-.164.238-.155.248.022.316-.153.38-.34.047-.194.112-.382.196-.562.142-.256.36-.46.624-.584.11-.055.16-.146.295-.05.134.094.345.063.352 0 .026-.25.354-.308.319-.569a.162.162 0 0 0-.055-.102.495.495 0 0 1-.18-.388l.035-.16c.158 0 .083-.093.055-.163.08-.296.238-.565.46-.776.129 0 .19-.056.14-.193l.04-.046a.295.295 0 0 0 .34-.181l.115-.135c.096-.08.235-.144.277-.246.088-.22.2-.19.343-.092.088.057.178.139.23-.016.04-.117.159-.28-.072-.338-.23-.058-.134-.135-.037-.234.096-.101.211-.182.338-.24.104-.041.187-.068.22.087s.145.09.22.044c.3-.179.385-.533.607-.774.068-.073.024-.18-.05-.272a.407.407 0 0 1 .087-.623c.253-.148.407-.5.794-.402.053.013.139-.1.207-.157.068-.058.097-.13.167-.104.202.075.233-.089.304-.2.13-.203-.029-.54.303-.662.011 0 0-.056 0-.087.015-.185.03-.373.048-.559l.11-.141c.077 0 .106-.025.066-.1l.05-.084c.203-.008.4-.067.575-.172.202-.069.147-.204.086-.339.05-.06.074-.117-.014-.165.093-.173.19-.343.282-.516.11-.248.292-.458.523-.599a.637.637 0 0 0 .22.065c.22-.02.47.134.64-.098.121-.168.2-.132.33-.015s.242.292.44.12l.202-.03a1.114 1.114 0 0 1 .88.39c.195.196.44.389.791.22.145-.075.46.157.48.306-.113 0-.203-.252-.317-.049-.114.203.09.221.202.29.118.073.244.132.376.174.22.058.372.422.249.55-.22.24-.233.257.085.379.544.205.581.643.387 1.072-.094.208-.279.411-.237.679.011.08 0 .166.099.197a.137.137 0 0 0 .117-.001.14.14 0 0 0 .074-.09c.02-.053.031-.126.112-.106.082.02.084.106.077.172-.015.184-.04.367-.066.602.226-.19.38-.162.462.086.121.378.086.776.128 1.163a.222.222 0 0 1-.09.22.172.172 0 0 0 .013.301c.134.093.15-.055.195-.137.047-.082.097-.139.19-.108.092.03.099.113.068.199a.247.247 0 0 0 .068.272c.075.075.132.154.026.254-.105.1-.059.184.02.26.1.1.16.233.167.374 0 .089.02.188.152.175l.123.14c-.061.066.013.198-.103.22-.117.023-.14-.064-.178-.13a.34.34 0 0 0-.282-.192.064.064 0 0 0-.066.05.064.064 0 0 0 0 .03.409.409 0 0 0 .22.304.772.772 0 0 0 .163.076c.174.037.288.112.28.318-.01.206-.168.177-.302.181-.05 0-.108.011-.106.075a.185.185 0 0 0 .057.129c.117.08.63-.076.728-.21.298-.333.575-.683.832-1.048.22-.359.332-.803.602-1.126.411-.457.744-.98.985-1.547.203-.524.57-.986.856-1.48a.5.5 0 0 1 .296-.231.308.308 0 0 0 .242-.277 1.11 1.11 0 0 1 .22-.517c.15-.256.346-.489.363-.809a.394.394 0 0 1 .14-.29c.342-.185.324-.605.595-.85.36-.326.391-.947.947-1.117a.075.075 0 0 0 .044-.042c.084-.325.42-.54.403-.911a.763.763 0 0 1 .068-.336c.116-.296.411-.442.541-.736.094-.208.094-.51.35-.602.255-.09.274-.263.354-.442.063-.137.127-.272.186-.409.115-.267.205-.55.557-.601.101-.013.121-.122.132-.221.017-.144.081-.201.242-.181.198.022.264-.096.272-.297a1.82 1.82 0 0 1 .42-1.145 7.23 7.23 0 0 0 .618-.908c.22-.363.33-.807.777-.989a.224.224 0 0 0 .114-.163c.171-.736.66-1.278 1.135-1.824a1.94 1.94 0 0 0 .316-.442 1.71 1.71 0 0 1 .44-.697c.273-.244.51-.527.701-.84.311-.43.522-.935.832-1.37Zm-33.412 33.444c.012-.06.018-.121.02-.181 0-.124-.099-.162-.198-.186-.057-.016-.123-.022-.154.046-.03.069.029.151.086.201.103.091.117.168 0 .266a.139.139 0 0 0 0 .21.138.138 0 0 0 .06.041.14.14 0 0 0 .074.003.166.166 0 0 0 .134-.172 1.814 1.814 0 0 0-.022-.228Zm11.778-11.416c.101-.027.22-.045.235-.18.016-.134-.041-.139-.136-.134a.219.219 0 0 0-.22.183c-.02.08.037.13.121.13Zm-6.1 6.775c0-.066-.018-.163-.145-.152a.165.165 0 0 0-.158.183.168.168 0 0 0 .175.168c.095-.002.128-.081.128-.198Zm2.366-2.025c.07-.048.191-.04.196-.152.004-.113-.108-.11-.174-.135-.108-.04-.134.05-.136.135a.135.135 0 0 0 .108.152h.006Zm15.024-10.08a.253.253 0 0 0 .162-.222.111.111 0 0 0-.085-.118.11.11 0 0 0-.053.001.207.207 0 0 0-.165.192c-.011.08.035.135.134.146h.007Zm-11.556-2.083c0-.064-.024-.133-.119-.126a.14.14 0 0 0-.135.1.14.14 0 0 0-.005.06c0 .079.037.134.123.134.085 0 .125-.066.13-.168h.006Zm37.655-19.262a.222.222 0 0 0-.151-.164.094.094 0 0 0-.085.012.09.09 0 0 0-.03.033.107.107 0 0 0-.011.043c-.013.082.018.138.106.14.088.002.134.026.165-.064h.006Z"/><path fill="#FFDB74" d="M120.401 54.013c-.066.093-.112.208-.275.144-.098-.036-.175.07-.263.113-.154.072-.293.22-.495.13-.068-.033-.106.02-.143.07a.17.17 0 0 1-.131.09.17.17 0 0 1-.148-.056c-.11-.084-.233-.104-.315.015-.081.12.075.12.13.166a.087.087 0 0 1 .035.047c.006.02.005.04-.002.06a.088.088 0 0 1-.017.033.088.088 0 0 1-.029.025.092.092 0 0 1-.073.008c-.321-.155-.499.18-.767.234-.269.053-.423.455-.79.37a.105.105 0 0 0-.077.038c-.288.352-.763.32-1.099.545a.245.245 0 0 1-.205 0c-.046-.014-.092-.036-.14-.044-.135-.025-.271-.025-.335.123-.085.2.167.106.203.2-.394.315-.869.395-1.32.508-.15.058-.297.124-.44.199-.31.108-.565.336-.919.358a.557.557 0 0 0-.389.323c-.103.185-.402.22-.622.267-.403.073-.807.106-1.155.354-.022.018-.07.03-.083.018-.262-.235-.418.037-.618.121-.163.069-.356.089-.506.155-.374.168-.842.206-1.067.639-.105.208-.197.25-.345 0-.147-.25-.398-.089-.609-.047 0 .033 0 .06.018.067.092.06.288-.025.279.148-.009.172-.194.155-.308.175a1.489 1.489 0 0 0-.33.141c-.354.148-.675.462-1.099.345-.242-.066-.306.183-.48.22.004-.178.028-.356.073-.53a.133.133 0 0 1 .01-.059.141.141 0 0 1 .142-.091.538.538 0 0 0 .264-.133c.395-.267.459-.26.798.117.101.115.171.047.191-.044.066-.33.337-.442.576-.603.053-.033.11-.071.167-.049a.977.977 0 0 0 .975-.168 1.232 1.232 0 0 1 .912-.292c.158.018.339-.143.504-.22.165-.078.255-.193.455-.06.114.075.279-.091.383-.17.133-.099.289-.162.453-.186a4.21 4.21 0 0 0 1.139-.456c.36-.194.778-.22 1.136-.442.53-.31 1.199-.371 1.582-.946.151-.221.439-.19.679-.18.132 0 .163 0 .22-.123.11-.221.244-.442.596-.356.198.047.365-.221.589-.267a.584.584 0 0 1 .255-.034c.313-.056.605-.194.847-.4a.444.444 0 0 1 .409-.296c.165 0 .262-.152.363-.243.261-.221.596-.086.879-.221.108-.044.194.157.332.15Zm-3.14 1.344c.013-.053-.013-.066-.044-.062-.031.005-.046.02-.046.029a.454.454 0 0 0 .029.07l.061-.037ZM124.243 70.209c-.286-.272-.262-.615.097-1.123-.359.088-.367-.07-.31-.352.068-.313 0-.663.22-.937a.11.11 0 0 0 0-.14 3.391 3.391 0 0 1-.315-.662c-.05-.115-.061-.204.035-.26.319-.178.271-.472.26-.76a.374.374 0 0 1 .088.549c-.365.342-.13.663 0 .96.075.17.13.291 0 .452-.068.084-.084.221.101.162a.175.175 0 0 1 .145.006.174.174 0 0 1 .058.047.17.17 0 0 1 .034.066c.042.12-.063.175-.147.221-.062.03-.122.066-.178.106-.081.078-.11.157.015.24.26.171.258.401.28.709.026.36-.058.477-.341.572-.027.016-.029.095-.042.144ZM124.276 62.564c-.101-.126-.259-.22-.176-.429.031-.075.048-.163-.044-.21a.175.175 0 0 0-.22.04c-.055.06-.094.142-.187.051-.092-.09-.03-.161.035-.221.179-.172.427-.307.273-.635-.033-.07.095-.119.128-.188.094-.187.31-.386-.044-.552-.123-.058-.165-.235-.075-.305.187-.15.127-.297.092-.476a.617.617 0 0 1 .141-.442.666.666 0 0 0 .143-.442c.257.146.029.332.035.497 0 .05-.064.098-.09.15-.026.054-.185.169-.092.253.092.084.151-.069.22-.117.068-.049.085-.135.162-.104.077.03.064.144.053.21-.066.34.086.745-.292.995a.151.151 0 0 0-.053.132c.138.29.024.584.024.885 0 .3-.018.59-.033.908ZM124.146 65.865a1.348 1.348 0 0 0-.429-.41c-.112-.057-.123-.22.066-.289.282-.11.337-.254.196-.495-.094-.168-.125-.274.117-.3a.13.13 0 0 0 .129-.106.136.136 0 0 0-.004-.06c-.029-.106-.123-.084-.198-.064-.075.02-.207.072-.31.106-.103.033-.22.095-.248-.047-.029-.141.077-.161.184-.166a.74.74 0 0 0 .403-.179c.14-.106.154-.205-.035-.274a1.302 1.302 0 0 0-.201-.057c-.116-.02-.239-.067-.204-.197a.202.202 0 0 1 .124-.147.2.2 0 0 1 .19.023c.28.186.304.095.242-.179-.017-.08-.072-.221.099-.256.064.263.121.528.196.789a1.2 1.2 0 0 1-.22.977c-.154.221 0 .442-.108.663-.024.042.09.084.165.084.075 0 .196-.046.207.095 0 .098-.075.148-.152.16-.198.03-.204.176-.209.329ZM124.287 72.53c-.064-.053-.053-.296-.22-.08-.061.078-.147.04-.196-.04-.048-.079-.024-.147.033-.15.22-.013.22-.22.251-.342.048-.27.303-.544.026-.827-.022-.022-.024-.102 0-.11.335-.204.069-.489.106-.732.085-.024.172-.043.259-.058.084-.01.152.045.126.122-.064.19 0 .442-.235.557-.064.031-.13.102-.077.168a.445.445 0 0 1 .059.522c-.046.082.046.115.121.124a.142.142 0 0 1 .137.097c.006.02.008.04.006.06 0 .092-.057.179-.128.18-.343.016-.316.184-.189.412.022.06.022.122-.079.097ZM124.496 57.152c-.027-.24.077-.484-.024-.727-.027-.06 0-.146-.099-.161-.099-.016-.163-.025-.203.072-.039.098-.07.133-.151.071-.082-.062-.132-.159-.077-.2.136-.105.136-.153 0-.257-.06-.047-.038-.186.026-.25.165-.17.07-.303-.037-.442.134.017.209-.24.358-.093a.425.425 0 0 1 .143.506.183.183 0 0 0 .037.243c.082.06.22.12.161.221-.158.33.169.69-.079 1.004-.011.011-.038.009-.055.013ZM118.556 74.566a.774.774 0 0 1 .552.339c.085.11.182.21.288.3.06.06.161.118.22.067.286-.268.306-.06.42.17.178.36.473.442.908.336a.424.424 0 0 1 .484.155c-.505.084-1.002.13-1.387-.32-.051-.063-.115-.142-.198-.11a.438.438 0 0 1-.539-.22c-.22-.274-.558-.423-.748-.717ZM122.387 75.849c-.09-.221-.22-.221-.383-.071-.055.048-.101.108-.176.048a.129.129 0 0 1-.032-.04.113.113 0 0 1 0-.102.129.129 0 0 1 .032-.04c.084-.103.047-.204.014-.31a.22.22 0 0 1 .118-.278c.154-.067.091.116.143.147.185.115.339.305.59.292.081 0 .182-.047.22.073-.196.05-.284.312-.526.28ZM120.859 53.553c-.082.201-.299.263-.422.425-.049-.186-.152-.403.202-.35.086.014.112-.15.22-.075ZM124.436 57.875c-.281-.22-.281-.22.051-.517a.076.076 0 0 1 .03.023c.008.01.013.021.016.033a.094.094 0 0 1-.002.038.08.08 0 0 1-.02.032.191.191 0 0 0-.066.257.198.198 0 0 0 .066.07c.013.02-.022.073-.075.064ZM77.73 58.71c0 .1-.038.127-.108.125a.197.197 0 0 1-.202-.14c-.024-.086.053-.086.11-.09a.175.175 0 0 1 .2.106ZM121.327 53.62c-.081.119-.116.283-.321.342l.136-.345.185.003ZM124.487 58.474l-.079-.267c.211.062.229.12.079.267ZM123.671 54.685c-.048.064-.116.108-.158.018-.042-.09 0-.184.134-.193a.173.173 0 0 1 .035.085.165.165 0 0 1-.011.09ZM107.148 117.247c.012 0 .024.003.034.008a.076.076 0 0 1 .028.022.083.083 0 0 1 .017.067c0 .01-.002.02-.006.029a.102.102 0 0 1-.018.023.07.07 0 0 1-.026.013.07.07 0 0 1-.029.002.084.084 0 0 1-.035-.007.088.088 0 0 1-.028-.022.084.084 0 0 1-.016-.033.073.073 0 0 1 0-.036c.004-.048.039-.059.079-.066ZM124.379 58.178c-.116-.057-.127-.113 0-.168a.156.156 0 0 1 .024.084c0 .03-.008.059-.024.084ZM123.94 55.096a.14.14 0 0 1 .013-.155c.077 0 .099.043.088.104-.011.062-.049.073-.101.051Z"/><path fill="#FFFFFE" d="M113.142 112.118c0 .133-.035.235-.182.221-.092 0-.183-.066-.172-.166a.262.262 0 0 1 .22-.252c.134-.015.13.109.134.197Z"/><path fill="#FFDB74" d="M103.792 88.496c-.077.352-.072.743-.439.955a.104.104 0 0 0-.034.03.105.105 0 0 0-.019.041c-.073.442-.378.697-.704.95a.641.641 0 0 0-.22.42c-.031.336-.167.651-.389.903a.861.861 0 0 0-.317.557c0 .144-.22.126-.294.221a3.63 3.63 0 0 1-.526.6.307.307 0 0 0-.035.49c.136.144.059.307-.134.365-.156.046-.246.119-.233.294 0 .037 0 .1-.024.112-.421.222-.418.703-.627 1.055-.033.053-.064.11-.13.115-.422.022-.409.378-.46.648-.041.22-.057.4-.334.395a.136.136 0 0 0-.147.124c-.013.365-.242.586-.501.792a.175.175 0 0 0-.051.132.341.341 0 0 1-.312.394c-.22.053-.288.292-.339.486-.035.14-.03.274-.174.356-.085.047-.064.135-.07.221-.022.31-.22.486-.508.425-.171-.038-.22 0-.22.163a.499.499 0 0 1-.171.372c-.39.318-.729.695-1.003 1.118a.22.22 0 0 1-.24.099.23.23 0 0 1-.083-.041c-.077-.047-.148-.102-.22-.142-.073-.04-.141-.124-.21-.053-.067.071 0 .146.058.208.17.221.057.276-.158.274-.069 0-.156-.024-.205.011-.44.316-.803-.024-1.179-.168-.105-.042-.182-.106-.296-.026-.2.143-.306.017-.337-.162-.03-.179-.127-.208-.292-.168-.368.089-.41.062-.506-.309-.046-.175-.167-.146-.282-.117-.114.028-.184.048-.257-.065-.233-.364-.556-.678-.66-1.127a1.127 1.127 0 0 1-.068-.318c0-.082 0-.155-.083-.204-.293-.166-.301-.493-.418-.756.11.085.195.197.248.325.069.177.095.35.361.239.119-.05.14.07.114.17-.105.42.051.785.247 1.139.048.086.114.161.206.059.22-.22.3-.022.306.124.011.199.11.252.264.292.046 0 .114.035.125.071.154.455.55.261.847.314.092.015.178 0 .22.108.085.272.35.301.554.405a.212.212 0 0 0 .198-.012c.147-.132.264-.254.288.08 0 .082.11.073.176.049a1.57 1.57 0 0 0 .184-.095c.097-.051.278-.04.207-.221-.053-.137-.189-.12-.312-.084l-.154.042c-.035-.272.075-.367.33-.348.208.027.404.11.57.239.072.049.167.104.248.042.081-.062 0-.143-.03-.21-.08-.221.058-.278.206-.245.376.079.473-.265.693-.418a.797.797 0 0 0 .44-.69c0-.22.12-.283.3-.15.086.062.161.13.262.046s.194-.165.145-.302c-.048-.138-.066-.25.108-.308.114-.037.057-.155.09-.22.108-.248.123-.57.456-.664.061-.016.134-.044.131-.102-.01-.35.3-.468.473-.685a.093.093 0 0 0 .02-.022c.2-.237.154-.683.607-.712.044 0 .046-.122.044-.192a.752.752 0 0 1 .481-.77c.192-.097.234-.362.348-.548.018-.031-.013-.095 0-.117.253-.27.334-.674.66-.87.121-.07.145-.103.072-.22a.56.56 0 0 1 .165-.756c.338-.212.605-.52.768-.885.048-.132.169-.185.248-.285.257-.325.312-.718.44-1.092a.287.287 0 0 1 .119-.166c.29-.141.38-.473.624-.663.086-.068.057-.22.114-.298.265-.298.461-.65.577-1.033-.009-.015.037-.022.063-.03ZM88.4 84.43a.523.523 0 0 1 .66.054c.116.1.219.192.333 0 .058-.089.163-.055.249-.066.086-.012.2 0 .2-.129 0-.128.077-.22.198-.161.12.06.352.108.316.303a.444.444 0 0 0 .13.387c.22.291.328.64.66.849.17.103.154.355.08.552-.1.257.019.4.232.498a.662.662 0 0 1 .313.342c.061.118.123.201.03.35a.444.444 0 0 0 0 .46.906.906 0 0 1 .137.39.189.189 0 0 0 .114.178c.023.01.048.015.072.015.22.027.284.162.157.332-.128.17-.04.272 0 .43.079.335.384.644.145 1.038a.19.19 0 0 0-.02.202.19.19 0 0 0 .174.105c.127.018.244.117.233.237.002.21.07.414.193.583.154.283.016.586.08.871-.132.013-.144-.086-.152-.174a.57.57 0 0 0-.167-.374c-.08-.078-.115-.17-.02-.261.094-.09.048-.179-.027-.254a.246.246 0 0 1-.068-.272c.031-.086.027-.168-.068-.2-.094-.03-.152.038-.189.11-.037.07-.062.22-.196.136a.171.171 0 0 1-.094-.146.174.174 0 0 1 .081-.154.221.221 0 0 0 .09-.221c-.041-.387 0-.785-.127-1.163-.082-.248-.236-.277-.462-.087.026-.234.05-.417.066-.6 0-.067.013-.151-.077-.173-.09-.022-.092.053-.112.106a.14.14 0 0 1-.133.103.139.139 0 0 1-.059-.013c-.094-.03-.088-.117-.099-.196-.041-.268.143-.471.238-.679.194-.429.156-.867-.387-1.072-.319-.122-.31-.14-.086-.378.123-.128-.024-.493-.248-.55a1.671 1.671 0 0 1-.376-.175c-.112-.062-.308-.098-.203-.29.106-.192.205.058.317.049-.02-.148-.334-.38-.48-.305-.342.174-.595-.018-.791-.221a1.12 1.12 0 0 0-.858-.365ZM84.987 95.283a.517.517 0 0 1-.194.442.676.676 0 0 0-.248.46.147.147 0 0 1-.086.146c-.44.153-.51.513-.53.911 0 .141-.126.133-.22.137-.095.004-.209.038-.154.18.077.205-.066.273-.204.33-.22.096-.423.187-.31.5.041.115-.044.173-.163.195-.28.053-.398.221-.332.489a.189.189 0 0 1-.163.26.532.532 0 0 0-.365.323.857.857 0 0 1-.22.285c-.253.221-.15.754-.64.792a.884.884 0 0 1-.499.628.268.268 0 0 0-.106.172.39.39 0 0 1-.382.347c-.139.02-.27.091-.22.221.174.442-.24.431-.429.542-.127.075-.253.11-.264.267-.022.286-.47.177-.44.414.051.287-.134.351-.27.497-.183.193-.44.266-.618.46a.102.102 0 0 1-.068.027.102.102 0 0 1-.068-.027c.09-.272.367-.351.558-.508a.673.673 0 0 0 .301-.476c.014-.13.106-.177.196-.258.277-.297.594-.554.941-.763.031-.018.038-.111.036-.168 0-.221.063-.365.307-.389a.259.259 0 0 0 .22-.184c.035-.249.22-.336.4-.442.018 0 .049-.013.053-.026.128-.367.47-.58.647-.907a.855.855 0 0 1 .191-.292c.117-.095.165-.203.073-.336-.126-.18 0-.22.136-.26.27-.065.49-.155.541-.49.026-.165.204-.286.3-.426.18-.265.487-.424.621-.663.105-.212.238-.407.396-.581.136-.184.241-.388.31-.606a.102.102 0 0 1 .013-.027c.44-.298.572-.846.953-1.196ZM80.881 91.368a2.02 2.02 0 0 1 .963-1.211 1.365 1.365 0 0 0 .726-.885 1.6 1.6 0 0 1 .45-.716c.163-.153.234-.402.526-.416.112 0 .123-.19.167-.298.088-.221.207-.36.469-.31.134.025.191-.101.277-.156.336-.222.193-.626.422-.863-.017.186-.033.374-.048.56v.086c-.332.11-.174.442-.304.663-.07.11-.1.274-.303.199-.07-.026-.117.06-.167.104s-.154.17-.207.157c-.387-.097-.541.254-.794.402a.405.405 0 0 0-.177.469c.018.057.049.11.09.155.074.09.118.199.05.272-.22.24-.308.594-.607.773-.08.047-.187.133-.22-.044s-.117-.128-.22-.086a1.074 1.074 0 0 0-.339.239c-.096.1-.184.181.038.234.222.053.112.221.072.338-.053.155-.143.073-.23.016-.144-.097-.256-.122-.344.093-.055.081-.193.145-.29.225ZM77.776 104.31c.057.221.042.393-.185.504a.183.183 0 0 0-.063.061.183.183 0 0 0-.027.085c-.02.126-.081.168-.17.06-.144-.186-.188-.087-.29.055-.1.141-.23.234-.22.429a.116.116 0 0 1-.143.119c-.164-.066-.406.029-.494-.192-.088-.221-.27-.257-.39-.4-.03-.038-.08-.067-.124-.014a.07.07 0 0 0-.018.082c.004.01.01.018.017.024.17.113.121.332.236.474.05.061.061.163-.04.196s-.209.042-.22-.106c0-.079-.077-.144-.041-.221.149-.113.074-.179-.051-.221-.088-.035-.185-.08-.15-.186.036-.106.18-.174.286-.243.106-.068.152.013.19.093.085.181.263.265.397.396.058.055.16.059.13-.047s.02-.311-.145-.402c-.084-.044-.16-.108-.088-.221a.193.193 0 0 1 .054-.052.192.192 0 0 1 .212.008c.119.077.205.099.308-.018.103-.117.19-.06.275.035a.941.941 0 0 0 .202.171c.066.037.185 0 .156-.06-.066-.148-.072-.356-.279-.409-.048-.011-.101 0-.15 0a.246.246 0 0 1-.22-.186.119.119 0 0 1 .089-.139.21.21 0 0 1 .146-.001.205.205 0 0 1 .109.098.593.593 0 0 0 .701.228ZM74.766 105.21c-.17.039-.148.298-.368.298-.314 0-.53-.15-.64-.544a.813.813 0 0 0-.369-.508c-.286-.168.022-.323 0-.484.066 0 .165.05.192.024.367-.389.472.102.54.221.1.183.183.396.273.597-.108.044-.268 0-.297.179a.2.2 0 0 0 .106.221c.25.113.29-.084.345-.252.125.049.145.166.218.248ZM77.17 96.236c.106-.381.356-.706.696-.906a.33.33 0 0 0 .165-.164c.103-.22.21-.442.321-.663.09-.177.176-.36.422-.374a.295.295 0 0 0 .163-.117.22.22 0 0 1 .334-.057c.124.088.22.035.18-.095-.096-.34.177-.553.245-.832a.498.498 0 0 0 .18.39c.03.025.05.062.055.101.035.261-.292.319-.319.568 0 .064-.242.08-.352 0-.11-.08-.184 0-.294.051a1.39 1.39 0 0 0-.625.584c-.083.18-.149.368-.195.561-.064.188-.132.363-.38.34-.115 0-.172.078-.238.156-.124.143-.185.347-.359.457ZM93.237 92.41c.139.128.11.3.126.464.015.163.015.386.281.393-.099.135-.611.29-.728.21a.183.183 0 0 1-.057-.128c0-.064.055-.073.106-.075.134 0 .29.04.3-.181.012-.222-.105-.281-.278-.319a.772.772 0 0 1-.163-.075.409.409 0 0 1-.22-.305.064.064 0 0 1 .037-.075.064.064 0 0 1 .029-.005.337.337 0 0 1 .281.193c.038.066.084.152.178.13.095-.022.042-.172.108-.228ZM73.292 103.881c-.074 0-.136-.069-.22-.029-.083.04-.22-.013-.233-.068-.037-.266-.336-.423-.279-.719.411.082.759.469.732.816ZM86.559 84.389a.354.354 0 0 1 .484-.087c.134.069.241.073.325-.077a.22.22 0 0 1 .286-.104.282.282 0 0 0 .37-.082.1.1 0 0 1 .133-.028.096.096 0 0 1 .016.135c-.08.114.028.207.026.314-.202.172-.323-.012-.44-.12-.116-.108-.208-.152-.33.016-.169.232-.424.077-.64.097a.636.636 0 0 1-.23-.064ZM86.667 93.48c.05.117-.064.143-.112.22-.152.197-.405.317-.414.62 0 .119-.14.15-.248.174a.454.454 0 0 0-.42.522c0 .331-.22.17-.374.172.27-.097.195-.42.374-.586.11-.101.186-.22.362-.22a.191.191 0 0 0 .198-.153c.077-.376.354-.562.634-.75ZM88.318 95.63a.105.105 0 0 1-.084-.021.106.106 0 0 1-.039-.078c.046-.513-.297-.948-.28-1.455a.22.22 0 0 1 .117.195c.07.46.368.869.286 1.36ZM74.805 104.268c.01.073.016.147.018.221a.165.165 0 0 1-.134.172.13.13 0 0 1-.073-.003.138.138 0 0 1-.061-.041.139.139 0 0 1 0-.21c.11-.097.096-.175 0-.265-.058-.051-.128-.109-.086-.201.042-.093.097-.062.154-.047.099.025.195.062.198.186 0 .063-.005.126-.016.188ZM72.567 102.846a2.1 2.1 0 0 0-.013-.221.357.357 0 0 1 .314-.477 1.024 1.024 0 0 0-.048.524c.033.161-.12.19-.253.174ZM87.86 93.988a1.238 1.238 0 0 1-.503-.745 1.497 1.497 0 0 0-.16-.37c.043-.09.16-.172.173-.041.046.417.28.731.484 1.067.013.022.004.058.007.089ZM89.653 97.835c-.018 0-.049.015-.053 0a4.87 4.87 0 0 1-.633-1.126l.044-.029.642 1.155Z"/><path fill="#FFFFFE" d="M74.546 104.971c-.055.168-.095.365-.346.252a.2.2 0 0 1-.105-.221c.029-.179.19-.135.297-.179l.154.148Z"/><path fill="#FFDB74" d="M86.583 92.852c-.083 0-.14-.051-.13-.13a.221.221 0 0 1 .22-.184c.095 0 .154.028.137.135-.018.106-.126.152-.227.179ZM80.483 99.627c0 .118-.026.197-.127.2a.166.166 0 0 1-.176-.169.165.165 0 0 1 .158-.183c.12-.011.132.086.145.153ZM76.39 97.56a.707.707 0 0 1 .262-.599c.124.153-.252.35.148.482l-.41.117ZM85.101 86.18c.08-.432.354-.208.574-.173a1.208 1.208 0 0 1-.574.172ZM82.843 97.602a.132.132 0 0 1-.09-.052.135.135 0 0 1-.025-.1c0-.084.029-.175.137-.135.066.024.178.031.173.135-.004.104-.125.104-.195.152ZM72.954 102.081c.079-.139.261-.031.347-.15a.106.106 0 0 1 .05-.015.108.108 0 0 1 .089.044c.01.015.015.031.017.048.016.089-.061.12-.134.115-.123-.006-.253.034-.37-.042ZM97.866 87.521c-.099-.01-.145-.066-.14-.141a.209.209 0 0 1 .164-.192.11.11 0 0 1 .139.117.255.255 0 0 1-.163.216ZM89.006 96.532c-.094-.095-.255-.123-.279-.287.112.06.23 0 .356 0-.006.115.002.212-.077.287ZM75.535 105.404a2.71 2.71 0 0 1-.22.177c-.09.06-.19.115-.241-.049a.63.63 0 0 0 .248-.139c.057-.066.147-.141.213.011ZM86.31 85.439c0 .102-.033.17-.136.168-.103-.002-.123-.055-.123-.135a.143.143 0 0 1 .034-.112.142.142 0 0 1 .107-.047c.094-.007.114.062.118.126ZM123.966 66.177c-.031.09-.108.066-.172.064-.063-.002-.118-.058-.105-.14a.096.096 0 0 1 .081-.093c.015-.001.03 0 .044.005a.218.218 0 0 1 .152.164ZM75.766 98.076c.06-.222.238-.264.429-.28a.592.592 0 0 1-.429.28ZM76.72 96.864a.456.456 0 0 1 .245-.254c.022.179-.07.256-.244.254ZM80.426 91.684c.06-.163.22-.13.34-.181a.298.298 0 0 1-.34.181ZM89.901 98.12c-.153.024-.22-.036-.195-.193a.355.355 0 0 1 .195.193ZM88.696 96.214c-.145 0-.15-.104-.123-.221a.247.247 0 0 1 .123.221ZM80.246 91.923a.206.206 0 0 1 .14-.192c.05.137-.01.19-.14.192ZM86.93 93.128a.136.136 0 0 1-.074.148.135.135 0 0 1-.057.013c-.03-.115.032-.152.131-.161ZM85.76 85.669c-.079-.051-.09-.106-.013-.166.095.053.07.106.014.166ZM79.731 92.863c-.026-.069-.029-.13.055-.164.037.07.103.153-.055.164ZM88.515 95.913c-.078.013-.113 0-.07-.09.055.006.072.04.07.09ZM75.645 98.241c0-.05.022-.075.073-.075 0 .027.028.06.02.075-.01.016-.062.031-.093 0ZM84.991 86.362c-.013-.057 0-.092.065-.099.044.075.011.104-.065.1ZM104.04 88.209c.04 0 .053.026.037.053-.015.026-.045.015-.069.022-.018-.04-.009-.075.032-.075Z"/><path fill="#E75C34" d="m117.26 55.357-.061.037a.573.573 0 0 1-.028-.07s.028-.026.046-.029c.017-.002.056.01.043.062Z"/><path fill="#FFDB74" d="M67.949 74.944a.196.196 0 0 1-.128-.196.133.133 0 0 1 .156-.137.125.125 0 0 1 .118.087.128.128 0 0 1 .006.052c-.003.102-.084.146-.152.194Z"/></svg>