<svg xmlns="http://www.w3.org/2000/svg" width="187" height="188" fill="none"><path fill="#FAB06F" d="M83.667 113.597c-.176 0-.171-.11-.143-.252.086-.442-.083-.588-.497-.46a.793.793 0 0 1-.847-.205c-.092-.091-.182-.186-.276-.274-.095-.089-.2-.149-.297-.107-.25.111-.44.182-.515-.196-.02-.1-.17-.073-.246.02a.21.21 0 0 1-.214.097.213.213 0 0 1-.076-.031 1.918 1.918 0 0 0-.684-.186 6.853 6.853 0 0 1-.9-.254.862.862 0 0 1-.609-.559.126.126 0 0 0-.02-.05.128.128 0 0 0-.088-.053.133.133 0 0 0-.052.005c-.24.093-.469-.042-.706-.019-.348.03-.56-.222-.768-.443a.547.547 0 0 0-.494-.221c-.207.027-.354-.108-.53-.188-.354-.163-.59-.574-.897-.632-.44-.08-.643-.484-1.071-.526-.192-.02-.379-.239-.533-.402-.153-.164-.237-.222-.42-.076-.125.097-.26.182-.4.255-.066.035-.132.057-.116.146a.26.26 0 0 0 .173.192c.075.026.132-.024.17-.091.037-.066.088-.161.184-.181.097-.02.141-.024.187.051a.131.131 0 0 1 .03.097.137.137 0 0 1-.049.089c-.493.515-.915 1.105-1.364 1.647-.449.541-.866 1.189-1.344 1.735-.52.597-.868 1.326-1.431 1.875-.22.203-.403.445-.539.714-.244.528-.745.844-1.06 1.326a1.68 1.68 0 0 1-.703.648c-.077.035-.16.122-.084.221.158.201.029.259-.136.307a.518.518 0 0 0-.365.442c0 .04 0 .102-.02.118-.42.294-.517.84-.89 1.165a1.105 1.105 0 0 0-.313.353c-.12.243-.298.452-.517.611-.22.163-.288.424-.407.652-.035.068-.044.166-.118.199-.44.196-.622.623-.88.988-.07.098-.15.187-.242.265-.593.511-1.011 1.168-1.458 1.798-.028.039-.07.097-.059.132.097.332-.156.442-.345.613-.19.17-.48.344-.532.663-.001.01-.004.02-.01.029a.075.075 0 0 1-.019.024c-.596.367-.774 1.185-1.506 1.415a.64.64 0 0 0-.37.442.629.629 0 0 1-.297.36c-.246.131-.54.115-.774.33-.154.141-.338-.033-.292-.266.018-.086.09-.179-.024-.236-.115-.058-.174.02-.231.09-.13.157-.328.259-.365.498-.024.146-.165.128-.27.093a2.12 2.12 0 0 0-.733-.111c-.125 0-.264-.029-.29-.163-.077-.385-.36-.266-.565-.221-.416.099-.41.117-.596-.279a.666.666 0 0 1-.117-.469c.044-.221-.099-.289-.29-.19-.09.047-.176.097-.264.144-.16.084-.27 0-.352-.126a.25.25 0 0 1 .002-.297.251.251 0 0 1 .08-.068c.107-.086.336-.102.27-.301a.92.92 0 0 0-.34-.546c-.377-.234-.518-.663-.753-1.003-.044-.067.029-.131.077-.179a.29.29 0 0 0 .081-.277c-.07-.325.11-.442.385-.466.275-.025.345-.078.119-.301-.273-.272-.062-.579 0-.844.071-.226.12-.459.145-.695.018-.221.108-.34.35-.245a.262.262 0 0 0 .115.036.27.27 0 0 0 .283-.186c.136-.442.44-.798.585-1.232a.552.552 0 0 1 .145-.185.31.31 0 0 0 .11-.372.295.295 0 0 1 .094-.368.29.29 0 0 1 .126-.052.358.358 0 0 0 .246-.192c.042-.082.114-.168.22-.117.22.112.319-.047.402-.188a.789.789 0 0 1 .414-.409c.061-.02.147-.091.147-.137 0-.385.39-.593.416-.964a.532.532 0 0 1 .35-.442c.44-.208.483-.314.44-.812-.023-.221.045-.393.298-.431.038 0 .11-.011.11-.022.042-.385.486-.362.636-.641.077-.139.178-.237.114-.429a.272.272 0 0 1 .24-.351c.169-.029.22-.095.165-.266-.033-.106.525-.791.642-.807a.168.168 0 0 1 .114.014c.315.232.372 0 .427-.235a.928.928 0 0 1 .281-.486 1.075 1.075 0 0 0 .378-.84c0-.221.157-.416.376-.36.22.055.33-.067.451-.195a.678.678 0 0 0 .174-.345c.1-.499.379-.943.785-1.247.048-.037.037-.079.037-.13a.467.467 0 0 1 .259-.465.457.457 0 0 1 .181-.046c.264-.037.37-.177.31-.442s.128-.307.282-.394c.363-.208.681-.486.936-.82a.266.266 0 0 0 .018-.261.402.402 0 0 1 .198-.506c.207-.152.301-.442.609-.475.108-.016.108-.159.077-.283a.456.456 0 0 1 .4-.487c.36.014.502-.163.44-.537a.665.665 0 0 1-.015-.236.225.225 0 0 1 .137-.212.222.222 0 0 1 .245.057c.141.111.22.066.27-.073a.885.885 0 0 1 .313-.389c.15-.108.138-.221 0-.345a1.244 1.244 0 0 1-.44-.756c0-.053-.06-.144-.092-.144-.418 0-.343-.402-.502-.614-.325-.442-.464-1.035-1.042-1.265a.12.12 0 0 1-.075-.146c.095-.471-.29-.663-.547-.924-.088-.086-.185-.117-.156-.274a.888.888 0 0 0-.44-.811c-.293-.16-.326-.294-.106-.553a.445.445 0 0 0 .084-.367.222.222 0 0 0-.14-.21c-.095-.029-.146.037-.188.11-.042.073-.094.142-.187.091-.092-.05-.09-.15-.063-.239.099-.358.013-.574-.317-.705-.255-.102-.121-.385-.27-.53a.121.121 0 0 1 .046-.064c.072-.034.22.035.209-.105-.012-.139-.154-.117-.249-.159-.05-.022-.127-.084-.123-.117.042-.278-.174-.413-.297-.606a.362.362 0 0 1 .055-.534c.064-.051.123-.127.08-.208-.045-.082-.13-.02-.201 0-.174.066-.275-.038-.22-.186a.357.357 0 0 0-.145-.462.154.154 0 0 1-.037-.221c.248-.356-.027-.663-.108-.982-.06-.22-.19-.455-.25-.698a1.218 1.218 0 0 0-.197-.465c-.048-.062-.107-.154-.092-.22.068-.235.104-.443-.152-.6-.079-.048 0-.144.062-.199.097-.095.19-.199.112-.34-.077-.142-.145-.221-.31-.155a.096.096 0 0 1-.134-.082.16.16 0 0 1 .072-.181c.22-.135.22-.239-.028-.343-.165-.07-.123-.199-.011-.28.185-.138.12-.242.015-.396-.169-.252-.44-.489-.253-.858a.222.222 0 0 0-.079-.243c-.05-.049-.116-.113-.06-.18a.264.264 0 0 0-.045-.415c-.018-.017-.035-.062-.027-.08.22-.47-.118-.866-.167-1.3-.013-.132-.057-.254.038-.369a.19.19 0 0 0 .044-.196c-.198-.347.02-.703-.04-1.053a.276.276 0 0 1 .042-.199c.119-.188.13-.34-.156-.358-.104 0-.178-.055-.167-.165.015-.147.11-.138.22-.098a.12.12 0 0 0 .16-.033c.044-.073 0-.135-.055-.184-.14-.126-.22-.254-.08-.442.097-.132-.045-.22-.1-.316-.145-.247-.132-.292.15-.338.056 0 .124 0 .149-.064.024-.064-.029-.13-.09-.17-.273-.175-.238-.458-.249-.725 0-.067.03-.093.11-.1a.507.507 0 0 0 .453-.557 1.062 1.062 0 0 1 .119-.72c.1-.208.15-.434.147-.664 0-.142.07-.292.057-.405-.056-.37.002-.748.165-1.085.055-.113.037-.29.143-.42a.361.361 0 0 0 .04-.49.135.135 0 0 1-.016-.169.626.626 0 0 0 .097-.457c0-.127.033-.208.174-.222a.438.438 0 0 0 .35-.329.548.548 0 0 1 .142-.221c.139-.16.22-.312-.059-.429-.158-.066-.165-.221-.095-.356a.163.163 0 0 1 .165-.108c.093 0 .097.08.106.152.009.073-.029.197.092.166.121-.03.117-.183.066-.254-.112-.162-.06-.312-.057-.48 0-.486.282-.842.506-1.227a.155.155 0 0 1 .158-.091c.022.002.043.01.062.02.079.04.156.047.206-.041.051-.089-.015-.135-.079-.166-.15-.075-.116-.184-.079-.308.112-.349.262-.428.66-.464.16-.013.253-.221.301-.37.068-.22.268-.43.09-.715-.046-.073.055-.323.156-.396.335-.239.379-.738.81-.884.052-.018.063-.076.063-.126 0-.394.258-.569.574-.701.163-.069.315-.184.31-.367a.666.666 0 0 1 .22-.493c.238-.27.55-.487.755-.75.288-.371.774-.501.987-.93.033-.065.116-.069.176-.102a.492.492 0 0 0 .312-.405.637.637 0 0 1 .521-.663c.123-.04.244-.086.367-.124.124-.037.174-.121.124-.22a.252.252 0 0 1 .032-.296.249.249 0 0 1 .086-.06c.27-.17.473-.443.814-.518.114-.022.167-.146.204-.243a1.013 1.013 0 0 1 .627-.564c.195-.076.369-.198.506-.356a.392.392 0 0 1 .154-.137c.486-.155.796-.586 1.247-.787.202-.09.428-.117.47-.402.011-.08.134-.115.22-.13a.417.417 0 0 0 .26-.133c.281-.339.677-.412 1.075-.487.046 0 .12-.015.134-.046.16-.365.552-.392.823-.59.336-.248.732-.182 1.075-.332.072-.033.171-.04.22-.095.378-.49.97-.542 1.488-.743.18-.07.39-.062.53-.239.07-.09.183-.04.282-.017.244.05.44.053.605-.221.11-.188.391-.173.604-.202.075 0 .167.038.22-.03.295-.37.715-.29 1.1-.297.238.017.475-.046.673-.181.2-.133.435-.201.675-.197.492.007.983-.053 1.46-.177.567-.19 1.143-.19 1.715-.272.095-.015.156 0 .178.102.062.285.185.181.29.04a.442.442 0 0 1 .448-.232c.06.008.117.028.168.06.14.054.292.068.44.041a4.402 4.402 0 0 1 1.458.06c.03.009.06.009.09 0 .616-.24 1.185.042 1.77.157a.386.386 0 0 0 .205.013c.428-.196.837 0 1.257.027.3.018.588.22.895.07.066-.03.113 0 .15.063a.17.17 0 0 0 .235.064c.2-.102.354-.144.37.168 0 .075.099.088.171.093.247-.019.494.033.713.15.114.08.2-.018.22-.155.01-.1.061-.19.171-.155.11.036.07.14.018.221-.053.082-.05.113.013.155a.176.176 0 0 0 .22-.015c.154-.142.29-.188.45 0 .095.115.198.01.28-.064.081-.076.204-.173.334-.042.13.13.088.22-.017.34-.055.055-.135.126-.053.201a.168.168 0 0 0 .142.035.167.167 0 0 0 .115-.092c.18-.272.424-.29.708-.21.08.022.183.037.174.126-.022.243.18.314.303.442.029.029.082.077.093.07.305-.194.464.116.66.222.195.106.487.128.639.353.291-.143.471.367.803.126.086-.062.292.062.378.186a.556.556 0 0 0 .396.221.53.53 0 0 1 .334.184c.09.115.192.199.356.115a.2.2 0 0 1 .245.066.304.304 0 0 0 .27.097c.205-.015.328.011.237.281-.052.161.099.292.253.31a.376.376 0 0 1 .319.22c.117.222.244.222.392.016a.226.226 0 0 1 .064-.072.224.224 0 0 1 .185-.033c.031.009.06.024.085.045a.187.187 0 0 1 .108.197c-.022.093-.106.064-.17.08-.063.015-.22-.067-.193.09.005.026.016.05.031.07a.172.172 0 0 0 .206.054c.28-.135.51.102.774.082.143 0 .15.221.273.254.238.078.332.36.616.387.138.013.154.164.028.272-.039.033-.074.084-.039.13a.1.1 0 0 0 .034.029c.014.006.029.01.044.01.015 0 .03-.004.043-.01a.094.094 0 0 0 .035-.029c.13-.128.22-.066.323.042.103.109.266.21.396.319.086.073.174.166.077.28-.097.115-.044.241.061.325.22.166.361.467.744.332.189-.068.281.195.396.312.261.267.659.442.686.884 0 .053.07.058.118.07a.69.69 0 0 1 .579.663.486.486 0 0 0 .404.479c.332.088.475.415.631.687.076.162.176.311.297.442.304.266.376.637.517.978.033.08.07.172.143.17.279 0 .576.062.831-.049a.814.814 0 0 1 .418-.093c.172.016.341.115.501-.044a.09.09 0 0 1 .042-.02.087.087 0 0 1 .082.032.092.092 0 0 1 .017.043c.029.255.24.221.403.272-.084.124-.196.064-.297.04-.101-.024-.139-.031-.192.07-.14.262-.248.162-.329-.048-.082-.21-.269-.316-.471-.199a.613.613 0 0 1-.526.09.325.325 0 0 0-.391.14c-.075.153.117.203.202.29.049.05.104.119.163.126.343.04.391.33.44.568.033.199.13.376.145.577a.176.176 0 0 0 .22.177c.22-.058.29.08.354.232.038.123.091.241.158.351.068.091.108.184-.02.281-.127.097-.07.197.06.237a1.003 1.003 0 0 1 .626.625c.135.294.194.621.44.867a.423.423 0 0 1 .084.442c-.011.033-.014.068-.011.103a.263.263 0 0 0 .031.098c.138.343.292.41.769.319.145-.03.299-.091.44 0a.81.81 0 0 0 .607.06 3.908 3.908 0 0 1 1.113 0c.413.055.798-.076 1.209-.036.42.075.852.057 1.265-.053.182-.064.347.086.545.086.254-.03.51-.041.765-.035.278.058.566.046.838-.036a.555.555 0 0 1 .347.02c.394.11.801 0 1.201 0 .24 0 .499-.02.746-.035.42-.025.846.022 1.264.01.418-.01.763.03 1.146.052.336.02.684-.14 1.024.026.427-.239.88.049 1.335-.086a.31.31 0 0 1 .387.212.317.317 0 0 1 .005.162 2.84 2.84 0 0 0 .057 1.899.195.195 0 0 1-.018.197c-.231.369-.044.789-.158 1.187-.115.398.299.74.094 1.156-.035.07.06.144.121.194.128.106.13.204 0 .321a.583.583 0 0 0-.083.663.373.373 0 0 1-.064.442.42.42 0 0 0-.064.473.648.648 0 0 1 .075.255 9.576 9.576 0 0 0-.101 1.395c0 .367-.108.723-.029 1.105.059.322.065.651.02.975-.035.274-.029.548-.051.82-.061.772.302 1.532.051 2.31a.386.386 0 0 0 0 .208c.11.442 0 .885 0 1.327 0 .594-.189 1.185.02 1.786.069.184.12.374.152.568.05.347-.192.595-.234.92-.074.581.099 1.12.128 1.682a.2.2 0 0 0 .185.17c.057 0 .132 0 .129.087-.002.086-.066.09-.12.112-.055.023-.22 0-.198.162.072.41-.148.811-.025 1.231.124.42-.015.818.165 1.203a.219.219 0 0 1 0 .174c-.132.182 0 .352 0 .529 0 .391.042.798-.182 1.156a.297.297 0 0 0-.069.189c0 .07.025.136.069.19a.394.394 0 0 1 .07.472c-.27.392-.154.827-.11 1.234.04.411.051.825.033 1.238-.016.355.038.709.159 1.043.134.367-.055.759.103 1.119a.124.124 0 0 1-.018.086c-.27.442-.101.962-.264 1.426a.67.67 0 0 0 .077.52c.251.378.106.709-.037 1.059a.911.911 0 0 0-.084.344c0 .376.22.741.042 1.137-.055.124.145.256.106.42a.699.699 0 0 0 .099.619.297.297 0 0 1-.04.376.78.78 0 0 0-.196.709c.121.597.157 1.212-.409 1.656-.116.091-.063.279-.18.363-.475.34-.912.731-1.304 1.165a.094.094 0 0 0-.036.06.096.096 0 0 0 .016.068c.194.334.031.292-.22.234-.439-.104-.558-.017-.701.414a7.29 7.29 0 0 1-.174.475c-.064.155-.176.175-.22.02-.094-.287-.22-.175-.406-.097-.3.13-.535.442-.913.36-.121-.022-.092.075-.088.139.004.064.079.166.018.257-.313-.151-.484-.117-.678.141a.249.249 0 0 1-.143.091c-.184.066-.349.19-.574.13a.347.347 0 0 0-.299.095c-.22.301-.53.305-.853.323-.244.013-.501.04-.607.334-.033.091-.108.115-.22.115-.261 0-.536-.075-.721.265-.077.142-.275.442-.58.201a.135.135 0 0 0-.103-.013.126.126 0 0 0-.047.025.12.12 0 0 0-.033.041c-.108.202-.22.111-.323 0a.46.46 0 0 0-.243-.135.444.444 0 0 0-.276.032c-.189.046-.255.205-.35.342a.22.22 0 0 1-.094.087c-.039.019-.083.025-.126.019-.092-.022-.099-.099-.077-.166.088-.258-.103-.221-.242-.236-.187 0-.301.15-.426.254-.126.104-.013.162.079.137.27-.07.31.301.554.272.029 0 .033.071 0 .102-.086.097-.165.221-.292.243-.128.022-.154-.117-.189-.221 0-.029-.058-.042-.137-.097.075.241 0 .322-.2.334-.145 0-.292.042-.44.053-.2.013-.376.145-.294.347a.895.895 0 0 1 .028.442c-.008.157.012.314.06.464.057.21.303.349.288.495a.93.93 0 0 0 .233.641c.251.462.466.942.644 1.437.114.268.306.551.136.885-.05.101-.026.238.161.287.187.049.286.166.035.316a.372.372 0 0 0-.165.467c.068.178.092.371.068.561-.063.442.04.865 0 1.298a.633.633 0 0 0 .079.376c.044.075.062.15-.019.221a.656.656 0 0 0-.22.645.746.746 0 0 1-.266.717.319.319 0 0 0-.124.206.323.323 0 0 0 .051.236c.244.258.022.34-.119.471a1.108 1.108 0 0 0-.206.221c-.181.274-.22.663-.616.76-.04 0-.057.086-.024.133.033.046.083.033.123 0 .04-.033.097-.08.143 0 .046.08-.106.458-.22.442a.384.384 0 0 0-.387.221c-.095.157-.18.168-.332.053a.562.562 0 0 0-.748.104c-.066.077-.22.285-.272-.049-.018-.132-.165-.095-.249-.061a3.91 3.91 0 0 0-.367.196c-.06.031-.134.078-.191 0a.178.178 0 0 1 0-.199c.022-.05.096-.073.07-.192-.154.106-.262.027-.378-.082a.165.165 0 0 0-.064-.04.155.155 0 0 0-.143.023.147.147 0 0 0-.048.057 1.126 1.126 0 0 1-.924.542c-.108 0-.244.081-.284-.056-.039-.137.115-.126.205-.152.09-.027.116-.058.105-.126a.1.1 0 0 0-.017-.05.104.104 0 0 0-.091-.046.1.1 0 0 0-.05.014c-.132.051-.253 0-.38-.013a.615.615 0 0 0-.631.236c-.069.109-.117.184-.249.153s-.127-.135-.121-.239c0-.06 0-.13-.066-.15-.066-.02-.101.064-.132.121-.031.058-.033.12-.108.135-.081-.048.049-.192-.061-.194-.189 0-.385-.157-.57 0-.033.028-.074.101-.114.035-.143-.252-.24-.06-.336.033a.28.28 0 0 1-.33.053.185.185 0 0 1-.073-.039.189.189 0 0 1-.061-.149.182.182 0 0 1 .024-.079c.02-.04.02-.084-.022-.102a.077.077 0 0 0-.059-.008.061.061 0 0 0-.026.015.088.088 0 0 0-.019.024c-.096.292-.292.19-.486.135-.105-.031-.219-.1-.325.035-.106.135-.15.292-.312.144a.307.307 0 0 0-.37-.06c-.125-.362-.288-.141-.439-.022-.055.044-.095.064-.157.033-.22-.11-.395-.09-.503.164-.029.073-.11.075-.185.06a.122.122 0 0 1-.101-.098c-.011-.088.053-.119.125-.137.073-.017.139 0 .121-.093-.017-.092-.092-.101-.167-.092-.075.008-.18 0-.22.05-.242.246-.659.051-.879.359-.027.035-.128.039-.183.084-.055.044-.077.044-.103 0a.134.134 0 0 1-.018-.053.133.133 0 0 1 .007-.056c.068-.097.18-.199.022-.296a.338.338 0 0 0-.389.062c-.117.088-.238.175-.352.265-.073.058-.172.049-.161-.022.031-.208-.066-.245-.233-.318a1.331 1.331 0 0 0-.46-.073c-.072 0-.16.017-.16.099 0 .358-.301.429-.517.628-.066-.232.031-.298.187-.34a.221.221 0 0 0 .174-.248c-.035-.15-.178-.086-.279-.084a.187.187 0 0 0-.074.01.171.171 0 0 0-.063.039.174.174 0 0 0-.057.135c-.024.221-.191.298-.369.336-.179.037-.317 0-.244-.222.035-.114.035-.201-.095-.234s-.24-.035-.304.108c-.037.082-.068.168-.112.246a.193.193 0 0 1-.104.104.182.182 0 0 1-.073.013.183.183 0 0 1-.073-.015c-.106-.042-.11-.135-.08-.222.031-.086.088-.159 0-.221-.087-.061-.167.029-.208.104-.187.35-.526.106-.777.206-.046.02-.107-.064-.085-.128.105-.321-.029-.277-.22-.162-.05.029-.132.062-.17.04-.143-.084-.424.257-.468-.172-.013-.135-.242-.089-.376-.076-.134.014-.095.102-.08.199.034.222-.182.27-.248.177-.23-.325-.552.221-.75-.11l-.066.055c-.318.252-.428.221-.573-.141-.025-.058-.031-.12-.11-.111-.08.009-.145.051-.121.135.046.15 0 .148-.128.115-.336-.1-.695.093-1.031-.071a.157.157 0 0 0-.117 0c-.1.047-.147 0-.22-.073a.458.458 0 0 0-.308-.163.44.44 0 0 0-.332.106.346.346 0 0 1-.24.108c-.151-.02-.294-.117-.362.141-.029.109-.147 0-.187-.079-.163-.358-.22-.372-.57-.186a1.178 1.178 0 0 1-.747.102.272.272 0 0 0-.167-.004.27.27 0 0 0-.137.097c-.173.196-.332.179-.499-.042a.133.133 0 0 0-.073-.066.133.133 0 0 0-.098.004.583.583 0 0 1-.48-.053.336.336 0 0 0-.167-.057.338.338 0 0 0-.365.318c0 .039-.057.079-.097.108a.425.425 0 0 1-.34.083.418.418 0 0 1-.286-.205.161.161 0 0 0-.134-.092 1.752 1.752 0 0 1-1.245-.721c.101-.016.244 0 .22-.157-.024-.157-.17-.055-.26-.071.011-.152.154-.192.236-.285.125-.142.088-.442-.07-.462-.16-.02-.26-.051-.236-.221.024-.17.193-.097.286-.159.03-.02.092.013.143.02.04.006.08-.002.115-.023a.173.173 0 0 0 .076-.09c.046-.1-.02-.153-.106-.173-.085-.02-.099-.106-.132-.177-.186-.384-.035-.764.018-1.145.02-.154.033-.276-.15-.331-.13-.038-.14-.122-.068-.221.13-.188 0-.233-.15-.286-.078-.028-.182.02-.248-.084a1.11 1.11 0 0 1 .16-.132c.368-.208.377-.239.15-.584-.05-.077-.074-.168.03-.194.155-.04.188-.199.307-.272.119-.073.174-.164.055-.33a1.037 1.037 0 0 1-.163-.707c.033-.279.084-.535-.12-.772a.137.137 0 0 1-.035-.052.15.15 0 0 1 .009-.122.156.156 0 0 1 .04-.047.686.686 0 0 0 .128-.833.667.667 0 0 1 .04-.743c.022.018.063.046.06.053a.736.736 0 0 0 .11.787.304.304 0 0 1 0 .208c-.098.424 0 .862-.082 1.28-.054.331.009.672.178.962a.26.26 0 0 1-.046.329c-.315.332-.328.489-.025.829.183.203.22.351-.068.475-.136.056-.178.153-.07.283.037.044.092.1.09.151a6.05 6.05 0 0 1-.037 1.105c-.044.237-.05.396.145.546a.224.224 0 0 1 .099.177.221.221 0 0 1-.086.183.65.65 0 0 0-.04.699c.102.166.19.36 0 .535a.268.268 0 0 0 .06.473c.247.105.514.154.783.146.68-.093 1.37-.035 2.042-.195.159-.037.284-.042.159.177-.037.064-.084.135 0 .179.083.045.132-.02.165-.088.081-.153.187-.221.363-.144a.774.774 0 0 0 .736-.071.689.689 0 0 1 .673-.024.63.63 0 0 0 .57.055c.358-.192.684-.057 1.027.054.184.061.36.221.576.141l.598-.221c.24-.1.404-.069.462.221.028.137.132.183.189.04.092-.221.23-.166.389-.122.247.042.5-.002.72-.124.344-.154.635-.199.975.038a.161.161 0 0 0 .19 0 1.06 1.06 0 0 1 .993.027c.075.042.152-.001.231-.014.37-.051.741-.152 1.111 0 .099.042.22.113.314.069.46-.192.967-.245 1.456-.151.512.089 1.029.014 1.539.078.22.026.471.097.708-.075a.352.352 0 0 1 .491.046c.055.069.138.062.22.058.459-.031.912-.208 1.381-.058.05.016.116-.026.176-.031.262-.027.52-.085.769-.172.242-.073.332.013.293.258 0 .062-.033.122.033.155s.116 0 .158-.053c.073-.086.143-.17.268-.166.299-.013.594-.064.88-.15a.369.369 0 0 1 .424.121c.11.144.251.135.44.096.343-.071.693-.239 1.062-.045.196.102.44.199.557-.132 0-.027.063-.042.101-.056.319-.11.659.027.919.111.339.108.591.201.864-.075.037-.038.106-.064.134-.025.141.193.381.096.535.182.358.194.373-.038.47-.274.083-.248.252-.457.475-.591.367-.194.359-.663.684-.899v-.058c-.052-.397.045-.8.273-1.13.039-.066.103-.161.085-.221-.105-.291.04-.526.146-.769.024-.055.077-.111.039-.168-.149-.221-.064-.478-.086-.716-.063-.754.018-1.512-.068-2.266a1.401 1.401 0 0 1-.059-.412 1.682 1.682 0 0 0-.172-1.056c-.272-.635-.521-1.287-1.046-1.769a.191.191 0 0 1-.081-.122.183.183 0 0 1 .032-.143.416.416 0 0 0 .065-.214.41.41 0 0 0-.052-.217 2.447 2.447 0 0 1-.112-.778c0-.08-.015-.175.055-.222.238-.17.242-.497.466-.663.029-.022-.022-.11.075-.075.22.077.334-.02.343-.261 0-.062-.072-.168.027-.174.259-.016.479-.277.765-.12.021.014.047.02.072.017a.104.104 0 0 0 .066-.032c.038-.049 0-.089-.037-.126-.171-.175-.04-.184.103-.19.143-.007.291.048.352-.177.035-.133.183-.078.271 0 .088.077.099.168-.016.238-.068.045-.162.089-.11.18.053.09.146.035.22 0a.71.71 0 0 0 .282-.164c.046-.053.114-.113.178-.053.114.108.22 0 .31 0 .31 0 .569-.199.897-.15.095.015.565.221.486-.281 0-.067.073-.091.134-.073a.22.22 0 0 0 .22-.018c.15-.128.299-.221.506-.093.077.049.152-.024.185-.104.063-.152.107-.336.316-.13a.095.095 0 0 0 .082-.013c.114-.142.279-.129.439-.164a.274.274 0 0 0 .164-.068.289.289 0 0 0 .092-.153c.028-.146.109-.172.184-.038.075.135.176.129.253.023.183-.25.609-.202.688-.591.018-.093.196-.057.304-.051.059 0 .154.058.169.038.155-.194.375-.325.618-.369.09-.022.145-.246.352-.17.044.017.147-.062.191-.122.141-.197.297-.48.502-.482a.44.44 0 0 0 .479-.332h.029c.439-.19.699-.599 1.066-.884.209-.157.323-.442.51-.628a1.166 1.166 0 0 0 .4-.999c-.039-.378-.219-.783.075-1.15a.118.118 0 0 0 .014-.055.118.118 0 0 0-.014-.055c-.22-.299-.048-.588-.033-.884a4.429 4.429 0 0 0 0-1.042c-.088-.462-.198-.884.057-1.326a.152.152 0 0 0 .028-.057.167.167 0 0 0 .001-.063.149.149 0 0 0-.07-.101c-.047-.031-.082-.044-.088-.126-.042-.579.107-1.152.037-1.731-.011-.093.068-.139.099-.21.066-.162.24-.383.152-.482-.176-.206-.09-.396-.068-.588a1.368 1.368 0 0 0-.11-.725 1.549 1.549 0 0 1-.106-.465c-.048-.508.073-1.012-.022-1.525-.121-.663.099-1.326-.011-1.99 0-.06.015-.12.044-.172a.26.26 0 0 0-.02-.292c-.066-.093-.103-.318.029-.374.312-.134.233-.329.149-.55a.456.456 0 0 1 0-.378c.033-.062.099-.124.053-.19-.147-.221-.094-.453-.112-.69a5.787 5.787 0 0 0-.07-.732 3.27 3.27 0 0 1 0-1.191c.05-.304.039-.614-.033-.913a3.073 3.073 0 0 1 0-1.548c.094-.332.015-.603 0-.9-.016-.296-.106-.597-.093-.884.065-.716.092-1.434.082-2.153-.016-.283-.062-.548.101-.803a.176.176 0 0 0 .015-.117c-.066-.475-.105-.95-.143-1.428-.046-.57.027-1.132.016-1.698a10.358 10.358 0 0 1-.02-1.306c.042-.403-.046-.814.066-1.22a.734.734 0 0 0-.022-.403c-.09-.296-.134-.606.105-.871.071-.078.139-.221.044-.259-.299-.126-.132-.296-.083-.466a.732.732 0 0 1 .178-.372.133.133 0 0 0 .044-.05.136.136 0 0 0 .016-.066.136.136 0 0 0-.016-.065.132.132 0 0 0-.044-.05.333.333 0 0 1-.128-.198.333.333 0 0 1 .033-.234.371.371 0 0 0-.057-.37.543.543 0 0 1-.086-.249c-.039-.402.143-.814-.048-1.21.343-.278.112-.61.09-.923 0-.168 0-.336-.024-.507a5.112 5.112 0 0 1-.031-.981c.02-.232-.072-.266-.248-.246-.128.014-.262.111-.378.053-.416-.207-.88.19-1.285-.112-.019-.013-.081 0-.11.03a.5.5 0 0 1-.457.08c-.427-.11-.858-.028-1.284-.05-.315-.016-.623 0-.937.01-.266.014-.554 0-.829.012-.414.026-.828.03-1.242.013a12.326 12.326 0 0 0-1.54 0c-.527.03-1.057-.168-1.579.03a.087.087 0 0 1-.057 0c-.345-.158-.717-.061-1.053-.041-.752.046-1.502-.014-2.25.03a.46.46 0 0 1-.233-.035c-.259-.137-.497 0-.741.047-.053.01-.116.064-.088.1.167.205.062.486.247.713.234.305.396.66.472 1.037.071.305-.107.716.317.9.018 0 .031.055.029.082-.018.15.074.263.114.393.093.24.148.493.165.75 0 .457-.02.884.233 1.31.167.28.24.562.66.407.235-.088.395.173.633.18.361 0 .706-.085 1.058-.111.22-.016.4 0 .499.221.099.221.171.073.207-.024.116-.314.354-.303.613-.257.093.035.192.05.29.044.383-.097.744-.119 1.06.175.018.016.057.011.086.013l.932.027c.051 0 .108.011.137-.038.158-.267.22-.11.31.056.046.084.156.276.242.084.085-.193.147-.148.255-.078.107.071.198.16.039.274-.044.034-.081.096-.022.113.205.062.319.374.603.221a.158.158 0 0 1 .141 0c.257.172.506.358.745.555a.316.316 0 0 1 .079.358 3.074 3.074 0 0 1-.382.575c-.181.272-.15.544.175.663a.31.31 0 0 1 .22.316c.036.328-.22.363-.371.509-.152.146-.48.296-.528.49-.103.412-.237.222-.416.102-.121-.075-.206-.22-.391-.245.262.38.244.473-.11.584a3.83 3.83 0 0 1-.957.128c-.324.03-.65.03-.974 0a8.99 8.99 0 0 0-1.4-.025c-.563.016-1.153-.053-1.711.12a.482.482 0 0 1-.396-.055.582.582 0 0 0-.541.048c-.123.058-.013.221 0 .33a.646.646 0 0 1-.013.205c-.139.544-.011 1.106-.154 1.654a.332.332 0 0 0 .05.26.477.477 0 0 1 .042.46c-.06.201-.092.41-.094.62-.018.18.017.428-.143.521-.28.162-.139.275-.013.412.081.088.219.196.131.305-.233.31-.164.687-.272 1.021-.13.402-.064.849-.288 1.23a.266.266 0 0 0 0 .147c.028.41-.183.737-.33 1.095-.099.24-.323.473-.207.769a.587.587 0 0 1-.079.566.443.443 0 0 0-.108.24 1.23 1.23 0 0 1-.411.841.728.728 0 0 0-.233.343c-.103.497-.372.93-.539 1.4-.22.594-.618 1.078-.842 1.664-.128.331-.479.563-.44.977 0 .015-.017.033-.028.05-.35.618-.97 1.055-1.175 1.769-.022.071-.129.118-.2.173a1.174 1.174 0 0 0-.451.614c-.039.137.029.202.119.146a.47.47 0 0 1 .576 0c.055.04.11 0 .15-.062a.23.23 0 0 1 .085-.073.231.231 0 0 1 .219 0 .23.23 0 0 1 .085.073.258.258 0 0 0 .074.08c.03.022.063.037.099.045a.27.27 0 0 0 .21-.036c.253-.135.486-.221.732 0 .022.018.084 0 .114-.013.385-.222.812.064 1.201-.1.026-.011.077.042.11.035.233-.046.468.089.697 0 .18-.073.345-.163.51.031.031.036.112.027.167.04.513.131.988-.159 1.498-.128.165.011.33-.102.402.141 0 .02.066.045.068.04.22-.289.475 0 .711-.042.177-.032.36-.019.532.036a.446.446 0 0 0 .378-.02c.383-.159.763-.241 1.036.221.064.108.198.073.323.024.51-.197.475-.17.726.296.171.323.184.725.481.986a.093.093 0 0 1 .03.069.077.077 0 0 1-.008.037.077.077 0 0 1-.022.031c-.057.056-.108.011-.156-.026-.048-.038-.086-.071-.127-.018-.042.053 0 .115.041.153a.314.314 0 0 0 .152.084c.202 0 .235.159.271.305a.359.359 0 0 1-.179.38 3.957 3.957 0 0 1-.631.484.337.337 0 0 0-.189.314c0 .184-.11.288-.294.168a.175.175 0 0 0-.063-.037.164.164 0 0 0-.073-.007.157.157 0 0 0-.069.023.18.18 0 0 0-.053.05.258.258 0 0 1-.124.083.249.249 0 0 1-.148-.001c-.326-.124-.634.09-.948.033-.266-.049-.521.051-.787.026a4.274 4.274 0 0 0-1.135-.039c-.409.079-.812-.036-1.212.048-.138.029-.268-.163-.393-.095-.407.221-.847.091-1.245.067a19.963 19.963 0 0 0-2.188-.012c-.836.04-1.669.012-2.502.02-.44 0-.88-.044-1.333 0a4.633 4.633 0 0 1-1.366-.02.355.355 0 0 0-.258.049.334.334 0 0 0-.148.219c-.029.091-.036.201-.15.186-.196-.029-.281.104-.391.221-.185.188-.451.3-.528.59a.14.14 0 0 1-.145.091c-.295-.038-.389.185-.504.384-.033.062-.055.144-.13.155-.483.064-.754.458-1.099.725-.2.155-.451.181-.644.38a1.092 1.092 0 0 1-.893.409c-.134-.013-.18.091-.264.186-.2.221-.519.307-.739.526-.015.016-.105-.037-.156-.066a.14.14 0 0 0-.1-.022.14.14 0 0 0-.087.053c-.32.291-.693.517-1.099.663a1.314 1.314 0 0 0-.579.418c-.103.146-.176.201-.323.057-.147-.143-.23-.057-.255.096-.049.289-.16.313-.37.123a.302.302 0 0 0-.163-.071.304.304 0 0 0-.175.036c-.112.06-.068.166-.038.265.07.221-.076.29-.24.246-.162-.045-.318-.151-.424.097-.03.066-.158.053-.22 0-.22-.195-.351 0-.463.135-.236.285-.33.3-.682.19-.246-.077-.53-.155-.708.161-.062.109-.165.098-.264.071-.057-.015-.13-.069-.165 0-.22.365-.697.312-.948.619-.042.053-.099.142-.198.082-.099-.06-.081-.142-.053-.237a.18.18 0 0 0-.088-.232.186.186 0 0 0-.237.066.658.658 0 0 1-.457.257c-.185.011-.278.086-.28.274 0 .077-.035.139-.12.142-.086.002-.097-.054-.126-.111-.178-.345-.35-.369-.596-.075a.478.478 0 0 1-.367.17c-.249.027-.464.082-.688-.077-.086-.06-.183.042-.27.09-.164.089-.32.261-.518.186-.31-.117-.64-.022-.947-.117-.19-.058-.398-.104-.508.102-.11.205-.253.477.04.694.08.059.056.152.072.238.048.301-.194.513-.22.805-.008.159.012.319.06.471.028.119.094.279-.089.363.064-.25-.112-.465-.105-.699 0-.287.1-.579-.17-.809a.12.12 0 0 1-.032-.146.12.12 0 0 1 .032-.042c.22-.133.152-.332.163-.52 0-.148.119-.316.075-.442-.062-.159-.268-.042-.405-.079a.278.278 0 0 1-.107-.044c-.108-.087-.17-.054-.275.035-.174.144-.35.318-.636.183-.286-.134-.56-.347-.88-.088-.03.024-.094.013-.14 0-.306 0-.563-.365-.906-.13-.02.013-.097-.031-.128-.067-.15-.168-.327-.113-.519-.117-.308 0-.622.102-.93-.099-.34-.222-.453-.144-.453.247a2.02 2.02 0 0 0-.022.21Zm24.084-39.992 1.057-.04c.062 0 .156-.02.132-.078-.083-.203.046-.495-.275-.605a.445.445 0 0 1-.294-.442c.052-.34-.209-.518-.328-.759-.167-.342-.268-.74-.596-.995-.057-.042-.066-.148-.116-.203a1.905 1.905 0 0 0-.44-.431.854.854 0 0 1-.299-.26 2.971 2.971 0 0 0-.629-.726 4.055 4.055 0 0 1-.961-.833c-.194-.252-.37-.24-.631 0-.262.238-.249.22-.359-.129.376-.22.398-.384.097-.663a2.056 2.056 0 0 0-.143-.155c-.334-.24-.517-.647-.893-.84a4.212 4.212 0 0 1-.472-.351c-.148-.1-.22-.308-.407-.332-.282-.03-.359-.411-.671-.382 0 0-.033-.067-.046-.102a.619.619 0 0 0-.537-.407c-.2-.026-.371-.084-.422-.311-.011-.054-.029-.104-.086-.102-.27 0-.402-.37-.717-.259-.059.022-.07-.082-.105-.126a1.853 1.853 0 0 0-.205-.22c-.29-.27-.785-.222-.983-.638a.031.031 0 0 0-.024-.013c-.429-.062-.754-.362-1.148-.504a.438.438 0 0 0-.316-.046c-.196.08-.32.055-.376-.177-.033-.133-.174-.102-.255-.064-.29.13-.568 0-.82-.082-.4-.117-.761-.327-1.215-.305-.453.022-.94-.186-1.453-.135a5.292 5.292 0 0 1-1.383-.133c-.288-.048-.552-.247-.869-.143a2.755 2.755 0 0 1-.404.066c-.42.073-.772-.168-1.157-.252-.09-.018-.187-.073-.25 0-.236.267-.612.015-.86.243-.038.035-.117-.02-.141-.08-.088-.238-.176-.145-.321-.035-.146.11-.321.303-.546.086a.173.173 0 0 0-.22.027c-.235.256-.567.19-.855.248-.47.068-.926.206-1.355.408a8.558 8.558 0 0 1-.936.398c-.663.23-1.348.392-2.043.482-.295.035-.58.123-.845.259-.44.265-.97.334-1.455.497-.082.03-.183-.013-.262.04-.466.314-1.06.314-1.524.621-.255.17-.56.104-.829.261-.528.308-.994.71-1.528 1.002a8.329 8.329 0 0 0-1.247.767 2.606 2.606 0 0 1-.647.497 1.67 1.67 0 0 0-.842.57c-.22.337-.543.569-.796.865-.22.261-.514.442-.721.72-.225.363-.481.705-.765 1.022-.315.305-.642.573-.825.997a3 3 0 0 0-.25.526c-.045.206-.168.465-.366.516-.314.081-.382.307-.47.546-.088.238-.126.548-.453.64-.033 0-.062.076-.075.122-.101.36-.22.716-.29 1.081a1.207 1.207 0 0 1-.143.442 3.364 3.364 0 0 0-.407.717c-.145.429-.477.782-.506 1.262a.132.132 0 0 1-.026.053c-.246.336-.128.747-.205 1.119-.015.25-.086.494-.206.714a.785.785 0 0 0-.17.411c-.04.582-.248 1.147-.145 1.742a.68.68 0 0 1-.116.573.18.18 0 0 0-.025.196c.185.425.022.82-.114 1.212a.493.493 0 0 0 0 .376c.09.19.136.398.132.608-.044.48.152.937.13 1.428 0 .22-.084.51.053.754a.73.73 0 0 1 .032.742.133.133 0 0 0 0 .169.818.818 0 0 1 .234.663c0 .252.184.473.11.727a.652.652 0 0 0 .022.41c.246.726.336 1.5.66 2.21.122.272 0 .641.327.842.02.023.031.053.03.084.027.308.22.56.29.847.036.185.111.36.22.513.258.285.392.65.647.935.324.358.41.838.583 1.264.3.739.78 1.369 1.155 2.059.158.296.182.663.44.902.44.426.553 1.13 1.145 1.445.02.012.024.051.04.078.1.194.242.364.415.497.195.109.34.289.405.502.026.157.09.195.235.199.145.005.308 0 .378.179.098.2.245.37.43.493.186.151.439.221.573.442.101.168.198.409.49.323.031-.011.086.042.121.075.273.218.53.454.772.705.17.202.275.527.649.352a.036.036 0 0 1 .029 0c.332.221.782.294.954.756.101.272.622.502.91.458a.404.404 0 0 1 .365.159c.122.146.283.254.464.312.36.081.772.035 1.005.422a.1.1 0 0 0 .034.029c.013.007.028.01.043.011.288.012.573.055.851.128.273.047.526.171.73.358.145.128.293.27.52.093a.27.27 0 0 1 .36.035c.288.416.76.387 1.163.524.132.044.22.051.194-.161-.011-.166-.093-.396-.027-.491.341-.493-.066-.984.022-1.479.035-.19-.024-.442.018-.663.015-.08.046-.155-.026-.221-.152-.14-.049-.243.043-.356.093-.113.365-.272 0-.422a.153.153 0 0 1-.048-.135c.088-.221-.035-.409-.055-.613-.013-.135-.068-.3.046-.404a.462.462 0 0 0 .112-.664.29.29 0 0 1-.044-.201c.07-.283-.158-.581.049-.857a.154.154 0 0 0 0-.142c-.28-.179-.101-.376-.027-.561.075-.186.13-.297-.03-.432-.058-.048-.042-.108 0-.157.088-.09.05-.185 0-.278a.402.402 0 0 1 .066-.471c.112-.133.22-.276-.07-.334-.062-.01-.128-.053-.1-.121.165-.41-.187-.874.145-1.267a.297.297 0 0 0 0-.263 1.602 1.602 0 0 1-.118-1.052c.077-.359-.025-.71.046-1.013a1.828 1.828 0 0 0-.057-.935.932.932 0 0 1-.031-.356c.086-.573-.022-1.154.097-1.722.022-.102-.02-.21.11-.285.13-.076.138-.197-.038-.25-.077-.025-.143-.047-.09-.14.22-.395-.185-.829.073-1.224.01-.016-.014-.058-.025-.084-.19-.403-.052-.84-.136-1.254a.303.303 0 0 1 .077-.22c.044-.067.099-.145.073-.222-.069-.206.059-.416.03-.573a3.799 3.799 0 0 1-.028-.972 2.885 2.885 0 0 1-.035-.443c.04-.22.162-.442-.093-.627a.095.095 0 0 1 0-.137c.22-.188.18-.392.058-.615a.33.33 0 0 1 0-.292.705.705 0 0 0 0-.493c-.045-.22-.108-.455.05-.634a.238.238 0 0 0 .015-.338.41.41 0 0 1-.08-.19c-.04-.399.124-.79.036-1.19a.196.196 0 0 1 .022-.115.415.415 0 0 0-.028-.453.327.327 0 0 1-.03-.292c.14-.462.045-.935.07-1.402 0-.165-.049-.334.114-.462.048-.04.024-.106.013-.168-.088-.495-.268-.99 0-1.487a.234.234 0 0 0 0-.173c-.139-.371-.081-.75-.062-1.127.11.068.069.179.073.274 0 .188-.064.43.026.559.21.292.062.548.016.818-.03.126-.045.255-.042.385.022.254.061.508.094.756.018.298-.013.596-.092.884-.09.424.05.851-.053 1.271a.222.222 0 0 0 .038.17c.077.111.037.221.04.334.01.376-.205.794.166 1.117.064.053.027.124 0 .194-.076.294 0 .644-.294.858.103.418-.05.884.103 1.26.128.316-.2.637.088.907 0 0 0 .017-.01.026-.192.418.039.869-.102 1.291-.022.069.05.133.06.195.048.314.22.663.03.944-.27.407-.176.833-.152 1.251.053.31.09.625.108.94 0 .203-.112.43-.015.614.184.352.085.679-.013 1.01-.053.173.12.343 0 .491a.443.443 0 0 0-.053.478.55.55 0 0 1-.013.351c-.09.31-.064.644.074.935.046.1.053.212.02.316-.101.376-.048.476.304.622-.22.128-.456.322-.44.56.037.355-.04.722.092 1.067a.64.64 0 0 1-.042.515 1.045 1.045 0 0 0 .073.997.407.407 0 0 1 .057.495.853.853 0 0 0-.05.64c.118.499-.095.992-.014 1.491 0 .053-.04.113-.055.171a.528.528 0 0 0-.024.174c.049.535.326 1.077-.048 1.603a.238.238 0 0 0 0 .203c.09.182-.018.443.152.56.169.117.162.192.094.318-.154.294-.119.615-.163.926-.04.264.086.527 0 .768-.085.241.128.285.22.42.093.134-.24.309-.079.526.005.008.01.017.013.026a.39.39 0 0 1 0 .476.807.807 0 0 0-.118.238c-.022.087 0 .221.11.202a.748.748 0 0 1 .536.205c.045.032.1.05.155.05a.27.27 0 0 0 .155-.05.364.364 0 0 1 .504.089.592.592 0 0 0 .677.159c.396-.164.682-.091.913.294.092.155.18.137.283.051.104-.087.25-.29.42-.031.049.073.119-.027.174-.038.266-.044.543-.168.803 0a.421.421 0 0 0 .475.033c.156-.104.055-.296.05-.442a.78.78 0 0 0-.075-.194c-.024-.073-.02-.142.075-.162.048.11.082.226.1.345 0 .261.168.296.366.38.335.142.607-.095.924-.082.317.014.611-.092.89.122.042.033.113.053.135.011.13-.254.4-.221.609-.309.363-.153.732-.051 1.086 0 .202.028.512.035.55-.022.22-.337.44-.175.688-.089.08.031.16.058.22 0 .383-.343.895-.369 1.344-.555.501-.21 1.046-.309 1.554-.504.3-.079.574-.231.8-.442.06-.069.205-.241-.039-.241-.336 0-.675-.035-1.005-.069-.499-.05-1.022.155-1.513-.221-.35-.265-.813-.382-1.123-.727-.156-.172-.363-.36-.302-.615.062-.254.453-.32.324-.663.35-.046.167-.254.105-.42.097 0 .22.029.238 0 .16-.258.514-.373.547-.727a.292.292 0 0 1 .192-.246.12.12 0 0 1 .103-.012.105.105 0 0 1 .044.03.11.11 0 0 1 .026.047c.053.296.176.205.337.086.116-.076.24-.142.367-.197a.239.239 0 0 1 .303.035c.286.323.636 0 .961.082.163.04.475-.077.715-.143a.346.346 0 0 1 .44.145c.055.098.14.071.187-.013.085-.161.209-.121.356-.124.21.003.417.035.618.095a1.1 1.1 0 0 0 .642-.037c.229-.058.468-.07.701-.033.24.013.471.17.691-.06.024-.024.092 0 .141 0 .303 0 .609.137.919-.033a.295.295 0 0 1 .36.057c.141.221.282.095.409.027.183-.097.295-.33.557-.288.05 0 .072-.061.077-.112.042-.411.369-.597.659-.792.202-.124.377-.287.515-.479.153-.284.398-.507.695-.63.094-.031.22-.023.207-.16-.014-.137-.141-.121-.238-.121h-3.105c-.879 0-1.746.017-2.617-.014a19.154 19.154 0 0 0-1.38-.013c-.18 0-.32-.155-.517-.064-.266.12-.552 0-.832.013-.402.011-.809-.06-1.207-.024a1.543 1.543 0 0 1-.921-.221c-.126-.073-.207-.32-.42-.126 0 0-.077-.055-.121-.07-.317-.122-.288-.456-.422-.688a1.069 1.069 0 0 1-.07-.982.098.098 0 0 0-.04-.13c-.26-.135-.106-.336-.06-.493a.343.343 0 0 1 .396-.288.322.322 0 0 0 .328-.166c.44-.583 1.05-.48 1.656-.41.14.017.314.143.417.039.22-.221.453-.126.684-.064.06.025.128.03.192.015.268-.077.543-.265.813 0a.134.134 0 0 0 .11 0c.36-.136.751-.173 1.13-.106.614.104 1.263.168 1.889-.077a.614.614 0 0 1 .603.046.203.203 0 0 0 .22 0c.497-.199 1.018-.08 1.511-.04.395.034.778-.01 1.165-.01.189 0 .347-.02.479.136.088.102.168.116.308.051.31-.139.629-.313.988-.121a.136.136 0 0 0 .114 0 1.12 1.12 0 0 1 .88-.033c.283.08.406-.045.499-.275.064-.2.163-.387.292-.552.22-.239.589-.427.352-.86a.112.112 0 0 1-.01-.044c0-.016.004-.03.01-.045.183-.336.123-.804.552-1.014.099-.047.136-.109-.022-.197-.22-.124-.429-.029-.629-.062a4.5 4.5 0 0 0-1.231 0c-.38.023-.762.023-1.142 0-.22 0-.466.124-.659.05a1.999 1.999 0 0 0-.955-.07c-.558.069-1.115-.037-1.669.029a2.782 2.782 0 0 1-.558.042 5.93 5.93 0 0 0-1.52 0 .317.317 0 0 1-.176 0c-.404-.175-.829-.029-1.244-.078-.526-.06-1.07.056-1.595 0-.49-.046-.97.047-1.46.018a2.095 2.095 0 0 1-.805-.172c-.08-.038-.151-.093-.252-.06-.374.124-.513.064-.66-.276a.598.598 0 0 0-.172-.24c-.261-.21-.582-.386-.472-.817.021-.09-.084-.093-.135-.135-.16-.133-.125-.323-.12-.497a.302.302 0 0 1 .259-.288c.257-.07.352-.442.69-.373 0 0 .011-.016.018-.022.157-.151.287-.326.387-.52.055-.155.308-.221.365-.155.24.288.488.084.693.02a1.004 1.004 0 0 1 .921.2c.148.103.196.105.255-.047.038-.093.068-.237.178-.208.196.053.374-.047.566-.016.19.031.402.186.593-.04.044-.052.145.03.22.045.251.046.453.325.748.159.136-.077.275-.221.44-.144.248.122.475.277.659-.064a.028.028 0 0 1 .015-.004c.005 0 .01.001.014.004.202.135.47.031.649.144a.253.253 0 0 0 .196.067.257.257 0 0 0 .182-.1c.079-.064.204-.137.272.015.088.201.17.241.273.078.103-.164.231-.197.385-.073.07.057.156.026.22.048.253.073.528 0 .776.15.092.052.299.105.264-.15-.022-.141.084-.141.143-.112.163.081.308 0 .464 0 .156 0 .317-.089.387.152.033.108.138.06.22.013.165-.086.38-.302.492-.22.317.238.623-.034.909.061.35.116.725.132 1.084.044a.393.393 0 0 1 .303.067c.249.143.545-.109.805.068l.033-.046a.247.247 0 0 1 .178-.15.244.244 0 0 1 .222.068.128.128 0 0 0 .167 0 .248.248 0 0 1 .18-.093.24.24 0 0 1 .188.078c.094.077.195.022.272-.04.077-.062.042-.164 0-.243a.266.266 0 0 1-.011-.31c.104-.181.199-.368.284-.56.075-.13.079-.22-.035-.304a.27.27 0 0 1-.11-.172.271.271 0 0 1 .044-.2c.149-.305.297-.612.191-.972a.346.346 0 0 1 .031-.233.332.332 0 0 0-.062-.442.401.401 0 0 1-.011-.588.221.221 0 0 0 .062-.245c-.159-.407-.301-.502-.748-.46-.083 0-.123-.042-.185-.073a.227.227 0 0 0-.191-.046c-.745.22-1.508.1-2.252.028a7.554 7.554 0 0 0-1.051 0c-.519.025-1.033.106-1.539-.066a.437.437 0 0 0-.29.03 1.41 1.41 0 0 1-.44.072c-.405.01-.798-.093-1.205-.069-.486.031-.974 0-1.46-.01-.41.021-.82.021-1.23 0a9.276 9.276 0 0 0-1.356-.025c-1.014.03-2.023 0-3.033-.036-.385 0-.822-.03-1.055-.442-.08-.137-.112-.135-.24-.073-.165.082-.323.067-.319-.183 0-.184-.061-.221-.22-.115a.182.182 0 0 1-.246 0 5.616 5.616 0 0 1-.418-.467.262.262 0 0 1-.01-.358.478.478 0 0 0 .023-.61.344.344 0 0 1 .049-.33.744.744 0 0 0 .103-.428c0-.075-.017-.184.097-.186.114-.002.088.09.088.162 0 .07 0 .128.075.139.074.01.072-.067.1-.115.109-.197.117-.491.467-.46.11 0 .16-.086.06-.206-.17-.196.098-.4 0-.603l.023-.016c.133-.084.238-.082.32.076a.242.242 0 0 0 .268.148c.123-.023.1-.13.112-.221a.155.155 0 0 1 .101-.135c.325-.148.644-.319 1.02-.241.097.02.205 0 .284.015.332.075.66 0 1.003.084.22.058.466.17.688-.075a.29.29 0 0 1 .383.049c.04.037.107.112.143.04.094-.195.259-.087.391-.115.489-.075.985-.09 1.478-.045.393.011.879-.123 1.2.27.051.062.15.084.156-.015.022-.33.236-.221.409-.193a.2.2 0 0 0 .192-.042.424.424 0 0 1 .574-.015.454.454 0 0 0 .44.062l.409-.133c.072.104-.053.39.079.287.242-.183.494-.097.73-.177.301-.12.636-.12.937 0 .365.193.659.127 1.011.016.352-.11.761-.181 1.1.15.048-.22.147-.267.312-.106.033.031.108.06.136.042.31-.174.671-.077.988-.203.25-.097.398 0 .439.296 0 .04.018.084.066.082a.15.15 0 0 0 .097-.051c.048-.073.044-.177.136-.221a.334.334 0 0 0 .117-.493c-.092-.186-.099-.387-.178-.568-.055-.126.059-.248-.02-.376-.325-.53-.42-1.139-.534-1.733a.611.611 0 0 0-.22-.427c-.108-.08-.242-.177-.183-.345.095-.278-.015-.396-.297-.382.029-.126.183-.248 0-.32a.199.199 0 0 1-.122-.101.2.2 0 0 1-.014-.158.25.25 0 0 0-.141-.275.732.732 0 0 1-.321-.347c-.162-.347-.44-.32-.728-.27-.143.027-.257.05-.34-.092Zm15.993 9.608c.068.163.22.066.314.112a.12.12 0 0 0 .196-.095c.018-.077 0-.17-.099-.128-.132.066-.295-.018-.409.11h-.002ZM67.889 104.49a.302.302 0 0 0-.189-.201c-.107-.029-.127.066-.134.148-.006.082 0 .188.119.21.119.022.167-.053.211-.157h-.007Zm27.327-13.594c.084-.02.165-.05.163-.168a.121.121 0 0 0-.044-.107.12.12 0 0 0-.114-.019c-.093.018-.178.069-.183.168-.004.1.088.124.178.126Zm.143 6.17a.269.269 0 0 0-.257-.168c-.086 0-.198.027-.185.109.029.166.22.09.317.148.057.026.125-.005.132-.089h-.007Zm10.193-35.43a.152.152 0 0 0-.154.147c0 .097.088.117.167.121.079.005.147 0 .136-.104a.198.198 0 0 0-.149-.163Zm-22.767 50.89a.316.316 0 0 0-.237-.19.058.058 0 0 0-.03.002.076.076 0 0 0-.024.016.061.061 0 0 0-.015.026.06.06 0 0 0-.001.029c.022.128.132.164.235.192.04 0 .072-.031.072-.075Zm39.67-8.244c-.035-.059-.075-.13-.167-.137a.09.09 0 0 0-.043.002.092.092 0 0 0-.039.021.09.09 0 0 0-.025.036.089.089 0 0 0-.007.043c0 .106.07.135.158.135s.121-.011.123-.111v.011Zm-33.262 10.103a.228.228 0 0 0-.085.175.219.219 0 0 0 .085.175v-.35Zm16.317-18.415c.026-.058 0-.08-.024-.075a.178.178 0 0 0-.086.055c-.022.03 0 .057.035.055a.239.239 0 0 0 .075-.035Zm11.696 22.505c-.031-.022-.048-.046-.07-.048-.022-.003-.062 0-.068.026-.02.053.026.062.059.062s.044-.02.079-.04Z"/><path fill="#E75F35" d="M83.667 113.597c0-.079.013-.159.013-.239 0-.391.113-.47.453-.247.308.201.623.09.93.099.192 0 .37-.051.52.117.03.036.107.08.127.067.343-.235.6.119.906.13.046 0 .11.014.14 0 .326-.258.612-.04.88.089.269.128.462-.04.636-.184.105-.088.167-.121.275-.035a.25.25 0 0 0 .108.044c.136.038.343-.08.404.08.044.115-.066.283-.075.442-.01.188.051.387-.162.519a.13.13 0 0 0-.033.042.125.125 0 0 0 0 .104.121.121 0 0 0 .033.042c.27.221.176.522.169.809 0 .235.17.442.106.699l-.095.11c-.204.045-.138.146-.055.255.03.042.048.099 0 .137-.048.037-.094-.02-.132-.058-.037-.037-.055-.059-.108-.037a.232.232 0 0 0 .011.272c.091.117.175.239.251.367a1.151 1.151 0 0 1-.295 1.222c-.077.066-.145.235-.077.246.251.037.26.353.51.384.148.02.159.162.034.221-.126.06-.139.208-.194.33-.097.221.134.442-.073.619.128.121 0 .4.273.442-.024.075-.046.15-.14.168-.095.018-.135.106-.036.155.22.11.15.234.042.371-.04.053-.055.106.02.144l-.024.124a.66.66 0 0 0-.04.742.69.69 0 0 1-.127.834.145.145 0 0 0-.05.169.153.153 0 0 0 .034.052c.205.236.154.493.121.771-.032.248.025.5.163.708.118.166.09.241-.055.329-.145.089-.152.221-.308.272-.103.027-.08.117-.029.195.22.345.22.376-.15.583a1.117 1.117 0 0 0-.16.133c.066.104.17.055.249.084.147.053.279.097.15.285-.073.109-.062.193.067.221.183.056.17.177.15.332-.053.38-.204.76-.018 1.145.033.071.029.155.132.177.104.022.152.073.106.172a.18.18 0 0 1-.076.091.179.179 0 0 1-.115.022c-.051 0-.113-.04-.143-.02-.093.062-.264-.013-.286.159-.022.173.088.206.235.221.147.016.196.321.07.463-.08.092-.22.132-.235.285a.18.18 0 0 0 .035.221 1.745 1.745 0 0 0 1.245.72.173.173 0 0 1 .079.029.179.179 0 0 1 .055.064.418.418 0 0 0 .465.201.426.426 0 0 0 .162-.079c.04-.029.09-.069.097-.108a.348.348 0 0 1 .191-.284.335.335 0 0 1 .174-.034c.06.004.117.023.167.057a.575.575 0 0 0 .48.053.133.133 0 0 1 .097-.004.133.133 0 0 1 .074.066c.167.221.325.238.499.042a.27.27 0 0 1 .136-.097.272.272 0 0 1 .167.004c.254.049.516.013.748-.102.352-.186.407-.172.57.186.039.088.158.188.186.079.069-.258.22-.161.363-.141a.346.346 0 0 0 .24-.108.447.447 0 0 1 .64.057c.075.069.12.119.22.073a.156.156 0 0 1 .116 0c.337.164.695-.029 1.032.071.118.033.173.035.127-.115-.024-.084.044-.128.121-.135.077-.007.086.053.11.111.145.367.255.393.574.141l.066-.055c.198.342.519-.221.75.11.066.093.281.036.248-.177-.015-.097-.055-.185.08-.199.134-.013.362-.059.375.076.044.429.326.088.469.172.037.022.119 0 .169-.04.198-.115.332-.159.22.162-.022.064.04.148.086.128.25-.1.589.144.776-.206.042-.075.103-.172.209-.104.106.069.029.142 0 .221-.029.08-.026.186.079.222.023.01.048.015.073.015a.19.19 0 0 0 .074-.013.2.2 0 0 0 .104-.104c.044-.078.075-.164.112-.246.064-.143.182-.139.303-.108.121.031.13.119.095.234-.073.222.079.266.244.222.165-.045.345-.124.369-.337a.183.183 0 0 1 .194-.183c.101 0 .244-.066.279.084a.224.224 0 0 1-.173.248c-.157.042-.253.108-.187.34.22-.199.516-.27.516-.628 0-.082.088-.104.161-.099.156-.003.312.022.46.073.167.073.263.11.233.318-.011.071.088.08.16.022.114-.091.235-.177.352-.265a.336.336 0 0 1 .389-.062c.159.097.046.199-.022.296a.133.133 0 0 0 .011.109c.027.039.071.019.104 0 .033-.02.156-.049.182-.084.22-.308.633-.113.88-.359.046-.046.149-.042.22-.05.07-.009.151.015.167.092.015.078-.068.078-.121.093-.053.016-.137.049-.126.137a.117.117 0 0 0 .036.065.119.119 0 0 0 .066.033c.074.015.156.013.184-.06.108-.254.284-.274.504-.164.061.031.101.011.156-.033.143-.119.306-.34.44.022a.306.306 0 0 1 .369.06c.163.148.233-.033.312-.144.08-.11.22-.066.326-.035.193.055.389.157.486-.135a.072.072 0 0 1 .045-.039.075.075 0 0 1 .058.008c.042.018.042.062.022.102a.184.184 0 0 0 .038.228.18.18 0 0 0 .072.039.28.28 0 0 0 .33-.053c.097-.093.194-.285.336-.033.04.066.082 0 .115-.035.185-.168.38 0 .569 0 .11 0-.019.146.062.194.075-.015.081-.086.108-.135.026-.048.03-.152.132-.121.101.031.068.09.066.15 0 .104 0 .208.121.239.12.031.18-.044.248-.153a.625.625 0 0 1 .631-.236c.128 0 .249.064.381.013a.097.097 0 0 1 .05-.014.1.1 0 0 1 .09.046c.01.015.016.032.018.05 0 .068-.046.108-.106.126-.059.017-.244.015-.204.152.039.137.176.062.283.056a1.118 1.118 0 0 0 .924-.542.156.156 0 0 1 .117-.086.159.159 0 0 1 .138.046c.117.109.22.188.378.082.027.119-.048.141-.07.192a.186.186 0 0 0-.03.1c0 .035.011.07.03.099.057.067.132.02.191 0 .119-.072.242-.137.368-.196.083-.034.219-.071.248.061.046.334.207.126.273.049a.555.555 0 0 1 .747-.104c.152.115.238.104.332-.053a.386.386 0 0 1 .387-.221c.115 0 .284-.351.22-.442-.063-.091-.096-.042-.143 0-.046.042-.085.062-.123 0-.037-.062-.015-.122.024-.133.394-.104.44-.486.616-.76.059-.083.128-.157.207-.221.141-.131.363-.221.119-.471a.324.324 0 0 1 .072-.442.738.738 0 0 0 .266-.717.673.673 0 0 1 .22-.645c.082-.062.064-.137.02-.221a.626.626 0 0 1-.079-.376c.033-.442-.071-.864 0-1.298.023-.19 0-.383-.068-.561a.367.367 0 0 1 .165-.467c.25-.15.142-.267-.036-.316-.178-.049-.22-.186-.16-.287.169-.339-.022-.622-.136-.885a10.338 10.338 0 0 0-.645-1.437.935.935 0 0 1-.233-.641c.016-.146-.231-.285-.288-.495a1.28 1.28 0 0 1-.059-.464.883.883 0 0 0-.029-.442c-.081-.202.095-.334.295-.347.149 0 .297-.045.44-.054.206 0 .274-.092.2-.333.079.055.127.068.136.097.035.102.037.245.189.221.152-.024.207-.146.293-.243.026-.031.022-.104 0-.102-.245.029-.284-.343-.555-.272-.092.025-.173-.057-.079-.137.095-.079.24-.259.427-.254.138 0 .33-.022.242.236-.022.067-.016.144.077.166a.219.219 0 0 0 .22-.106c.094-.137.16-.296.349-.343a.452.452 0 0 1 .519.104c.095.111.22.202.323 0a.149.149 0 0 1 .033-.041.126.126 0 0 1 .047-.025.135.135 0 0 1 .103.013c.306.248.504-.059.581-.201.184-.34.459-.261.721-.265.108 0 .182-.024.22-.115.105-.294.363-.321.607-.334.323-.018.631-.022.853-.323a.343.343 0 0 1 .299-.095c.22.06.389-.064.574-.13a.255.255 0 0 0 .143-.091c.193-.258.365-.292.677-.141.062-.091-.011-.173-.018-.257-.006-.084-.033-.161.088-.139.379.071.614-.221.913-.36.178-.078.312-.191.407.097.05.155.167.121.22-.02.052-.141.121-.316.173-.475.143-.442.264-.518.702-.414.251.058.413.1.22-.234a.092.092 0 0 1-.016-.068.086.086 0 0 1 .036-.06 8.151 8.151 0 0 1 1.304-1.165c.116-.084.063-.272.18-.363.565-.442.53-1.059.409-1.656a.78.78 0 0 1 .196-.709.295.295 0 0 0 .039-.376.704.704 0 0 1-.099-.619c.04-.164-.16-.296-.105-.42.169-.396-.04-.761-.042-1.137a.92.92 0 0 1 .083-.345c.143-.349.289-.68.038-1.058a.672.672 0 0 1-.077-.52c.163-.464 0-.986.264-1.426a.124.124 0 0 0 .017-.086c-.158-.36.031-.752-.103-1.119a2.684 2.684 0 0 1-.158-1.043 9.134 9.134 0 0 0-.033-1.238c-.044-.407-.161-.843.11-1.234a.391.391 0 0 0-.071-.473.296.296 0 0 1 0-.378c.22-.358.189-.765.183-1.156 0-.177-.126-.347 0-.529a.219.219 0 0 0 0-.174c-.181-.385-.053-.814-.165-1.203-.112-.389.097-.82.024-1.231-.029-.16.114-.129.198-.162s.121-.042.121-.112c0-.071-.073-.078-.13-.087a.201.201 0 0 1-.185-.17c-.028-.561-.202-1.105-.127-1.682.042-.325.284-.573.233-.92a2.868 2.868 0 0 0-.152-.568c-.22-.601-.017-1.192-.019-1.786 0-.442.105-.885 0-1.327a.386.386 0 0 1 0-.208c.25-.778-.113-1.547-.051-2.31.022-.272.015-.546.051-.82a3.096 3.096 0 0 0-.02-.975c-.079-.378.028-.734.028-1.105 0-.467.034-.933.101-1.395a.647.647 0 0 0-.074-.255.406.406 0 0 1-.043-.246.41.41 0 0 1 .106-.227.376.376 0 0 0 .064-.442.581.581 0 0 1 .084-.663c.123-.117.121-.221 0-.32-.062-.051-.156-.124-.121-.195.204-.416-.198-.792-.095-1.156.104-.365-.072-.818.159-1.188a.195.195 0 0 0 .017-.196 2.846 2.846 0 0 1-.057-1.9.307.307 0 0 0-.005-.161.307.307 0 0 0-.386-.212c-.44.135-.909-.153-1.335.086-.341-.166-.688 0-1.025-.026-.383-.022-.756-.06-1.146-.051-.389.009-.844-.035-1.264-.011-.246.015-.506.035-.745.035-.401 0-.807.102-1.201 0a.558.558 0 0 0-.348-.02 1.705 1.705 0 0 1-.837.036 5.55 5.55 0 0 0-.766.035c-.198 0-.362-.15-.545-.086-.413.11-.844.128-1.264.053-.412-.04-.796.09-1.21.035a3.915 3.915 0 0 0-1.113 0 .808.808 0 0 1-.606-.06c-.135-.086-.289-.024-.44 0-.477.091-.631.025-.77-.318a.245.245 0 0 1-.03-.098.255.255 0 0 1 .01-.103.414.414 0 0 0-.083-.442c-.242-.245-.302-.573-.44-.867a1.003 1.003 0 0 0-.627-.625c-.129-.04-.191-.137-.059-.237.132-.1.088-.19.02-.28a1.61 1.61 0 0 1-.159-.352c-.063-.153-.145-.29-.354-.232a.176.176 0 0 1-.22-.177c-.015-.201-.112-.378-.145-.577-.042-.239-.09-.529-.44-.568-.059 0-.114-.076-.162-.126-.086-.087-.277-.137-.203-.29a.328.328 0 0 1 .392-.14.609.609 0 0 0 .525-.09c.203-.117.383-.035.471.2.088.233.189.309.33.048.053-.102.108-.09.191-.071.084.02.22.084.297-.04l.062-.062c0 .053.219-.084.081.102a.236.236 0 0 0-.014.27.218.218 0 0 0 .065.07c.046-.196.259-.247.288-.42.028-.172.11-.135.22-.088.244.097.481.263.763.084a.353.353 0 0 1 .206 0 .81.81 0 0 0 .57-.113c.11-.075.185-.055.246.089.097.22.22.254.457.097.238-.157.53-.493.832-.053.015.024.074.03.112.024a.543.543 0 0 1 .481.184c.113.104.22.055.337.068a.76.76 0 0 0 .781-.33c.015.007.03.014.043.023.016.12-.219.254-.035.33.185.075.321-.032.348-.253 0-.057.077-.106.116-.161h.126c.158.084.356.104.417.334a.24.24 0 0 0 .269.139c.151-.046-.016-.161.015-.25a.446.446 0 0 0 0-.146l.249-.073c.112.11.169 0 .235-.06.105 0 .143.087.185.164-.036.06-.069.122-.108.177-.04.055-.114.153-.04.237a.195.195 0 0 0 .247.02c.164-.12.402-.202.343-.485.202-.046.409-.097.508.168-.106.157.019.24.11.325.09.087.219.038.294-.03a.979.979 0 0 1 .754-.213c.262.011.359-.068.427-.276.112-.025.22-.104.341-.016 0 0-.011.014-.011.02v.022-.042h.27c.022.1-.052.252.069.283.12.031.136-.11.169-.203.033-.093.154-.04.174-.135a.202.202 0 0 1 .096.05.214.214 0 0 1 .058.094c-.06.015-.08.053-.047.104a.105.105 0 0 0 .033.038c.013.01.029.015.046.017.017.002.034 0 .049-.007a.093.093 0 0 0 .039-.03l.141.079c0 .044.022.077.064.07.042-.006.055-.061.037-.11a.22.22 0 0 1 .031-.042c.207.022.156-.13.165-.243a.372.372 0 0 1 .22.033c-.048.117.026.201.09.387.062-.411.361-.334.556-.442l.091.042c-.073.135-.146.27-.22.424.165-.013.22-.132.327-.19.108-.057.181-.128.291-.03a.182.182 0 0 0 .246.032.202.202 0 0 0 .075-.143.206.206 0 0 0-.057-.15c.125-.05.206.07.314.081.081.221.132.239.286.08.037-.016.09-.055.108-.044.248.168.53 0 .787.081a.388.388 0 0 0 .22-.028c.195-.073.385-.162.589-.016a.145.145 0 0 0 .139 0c.305-.285.642-.17.978-.09.057.013.13.048.167 0 .194-.275.44-.21.684-.111a.237.237 0 0 0 .02.102.222.222 0 0 0 .262.12c.158-.038 0-.187.028-.284 0-.015 0-.035-.015-.055h.178c-.035.353.418.46.407.816.013.096.037.19.072.28.027.109.139.17.194.082.101-.163.347-.22.316-.475 0-.06 0-.133.086-.128.086.004.101.08.073.152-.029.073-.027.144.05.18.238.11.427.33.717.324l.088.089c.579.22.638.731.66 1.269l-.158-.069c-.049-.022-.099-.035-.132.016a.107.107 0 0 0 .022.139c.085.075.136.3.303.08a.091.091 0 0 1 .033-.042.092.092 0 0 1 .051-.015.089.089 0 0 1 .083.056c.038.067 0 .109-.061.135-.251.102-.22.221-.014.338.091.051.135.113.049.222a1.316 1.316 0 0 0-.26.769c-.039.365.17.645.255.964-.182.044-.112.194-.103.294.029.402-.193.745-.253 1.13-.028.172-.033.26.117.265.297.013.156.298.283.424.091.089-.151.08-.167.184l-.05.095c-.126.157-.024.22.112.263.012.016.02.035.022.055a.234.234 0 0 0-.019.094c0 .032.006.064.019.094a.419.419 0 0 0 .033.274c.072.104.207.193-.016.305-.222.113-.219.27-.044.442l.016.126c-.141.235.024.564-.238.763-.017.013-.013.08 0 .115.071.168.15.334.22.5v.13c-.189.312-.171.663-.184 1.006 0 .102.033.221.175.17.075-.02.148-.154.22 0 .042.1.06.237-.057.297-.22.11-.196.267-.185.475a1.16 1.16 0 0 1-.057.526.162.162 0 0 0 .121.25l.082.042c.081.166-.119.265-.099.418l.013.174c-.035.104.035.193.033.29l-.049.126c-.149.137-.248.276-.044.453.031.027.016.109.022.166-.202.236.095.32.146.48v.179c-.055.132-.159.254-.086.413.072.16.316.325.125.476-.325.254-.158.482-.048.731v.129a1.11 1.11 0 0 0-.22.6l.053.242a.654.654 0 0 1-.038.54.154.154 0 0 0-.031.067.145.145 0 0 0 .006.075.144.144 0 0 0 .041.062.142.142 0 0 0 .066.034.18.18 0 0 1 .013.184c-.075.026-.15.055-.169.148-.047.205.05.325.189.475.05.053-.181.345.035.502.134.1.101.152 0 .245a.99.99 0 0 0-.178.272c-.086.161-.163.33-.394.345.139.082.359-.02.394.221.048.316.404.65-.051.94-.013 0-.017.035-.02.055-.025.41.018.822.128 1.218a.366.366 0 0 1-.088.427c.123.05.246-.109.323.026.077.135-.057.181-.13.259a.394.394 0 0 0-.085.393c.042.204.06.413.052.622 0 .137.034.273.102.393.088.146.059.296-.174.336-.172.029-.286.126-.152.336.124.14.206.314.235.5v.102c-.145.103.403.307-.052.367a.036.036 0 0 0 0 .028c.165.192-.047.37-.022.564.063.51-.117 1.021-.016 1.536a.32.32 0 0 1-.055.2c-.22.375-.015.683.148.999a.048.048 0 0 1 .024.024c.015.088.138.161.022.265a1.29 1.29 0 0 0-.22.442.699.699 0 0 0 .22.854c.141.093.119.221.094.345l-.015.02c-.123.206-.169.45-.128.687v.095c-.048.33-.191.646-.142.991.015.103-.066.163-.139.221-.073.057-.22.068-.15.203.071.135.17.124.271.027a.092.092 0 0 1 .076-.042c.015 0 .03.004.043.011a.097.097 0 0 1 .033.031c.055.068-.02.101-.042.15-.055.115-.15.199-.152.349.031.426-.026.853-.167 1.256a.191.191 0 0 0-.009.089c.003.03.014.058.031.083.235.42.15.907.255 1.355a1.41 1.41 0 0 1-.13.885c-.059.126.022.159.121.172v.013a.335.335 0 0 1 .134.38.336.336 0 0 1-.07.125v.011a1.555 1.555 0 0 0-.237.256c-.086.142-.075.27.134.29-.068.207-.121.406.129.541.077.042.073.14.033.221-.039.082-.101.195-.153.292-.176.319.081.686-.106 1.004.363.11.196.371.171.595a.172.172 0 0 0 .051.101c.114.133.064.199-.086.208-.191.011-.204.091-.134.252a1.203 1.203 0 0 1-.07 1.174.585.585 0 0 0 .064.685.497.497 0 0 1-.044.465c-.203.095-.126.221-.117.347.009.126.057.194-.015.254-.22.19-.185.442-.176.685.009.243-.011.369-.288.312a.15.15 0 0 0-.17.093c.038.106.128.075.203.088.074.014.099.016.107.078a.057.057 0 0 1-.001.029.083.083 0 0 1-.012.027.083.083 0 0 1-.022.02.105.105 0 0 1-.028.01c-.205.064-.108.174-.091.32.027.241.293.489.014.752-.075.069 0 .206.077.287v.131a.079.079 0 0 0-.029.018.107.107 0 0 0-.019.028.097.097 0 0 0-.006.034c0 .011.003.022.007.033l-.037.053c-.158.093-.077.241-.081.369l-.06.071c-.118.079-.402.05-.308.269.095.219 0 .25-.107.33-.108.079-.132.097-.051.208.22.302.194.53-.068.82-.031.033-.068.095-.057.13a.568.568 0 0 1-.167.637c-.031.029 0 .117-.016.175-.092.38-.046.82-.343 1.105-.382.385-.22.922-.44 1.344 0 .024.027.073.038.111a.119.119 0 0 1 .003.087.116.116 0 0 1-.058.065.527.527 0 0 0-.202.608l-.108.159a.115.115 0 0 0-.106.106l-.011.011a.174.174 0 0 0-.059.013.16.16 0 0 0-.049.036.139.139 0 0 0-.031.052.141.141 0 0 0-.008.061c.05.362-.299.612-.257.968l-.146.133c-.129.148-.147.351-.316.499-.088.076-.079.312-.273.378-.02 0-.026.095-.013.137a.221.221 0 0 1-.119.277c-.22.11-.305.334-.418.526-.072.122-.096.232-.283.206-.13-.018-.183.079-.073.19.167.17.115.296-.068.398-.055.028-.134.068-.11.121.092.221-.123.294-.163.442-.039.149-.22.164-.266.301-.127.491-.75.65-.789 1.196-.383.177-.583.528-.823.849-.138.183-.422.221-.527.464-.022.053-.088.042-.11-.022-.038-.108-.112-.102-.192-.06a.156.156 0 0 0-.062.083.146.146 0 0 0 .005.103c.062.221 0 .325-.233.387-.16.044-.387.104-.297.385.02.066-.026.168-.088.172-.345.024-.501.531-.925.358-.069-.028-.181.062-.082.142.315.25.018.221-.112.269-.046.016-.09.014-.123.067-.134.221-.304.373-.57.181-.055.104.079.248-.03.261-.302.042-.379.332-.577.484-.235.177-.56.299-.697.515-.22.358-.642.394-.879.69a6.752 6.752 0 0 1-.684.637.124.124 0 0 1-.044.035c-.48.108-.966.208-1.262.663-.047.073-.075.086-.154.018-.187-.168-.319-.095-.392.126h-.402c-.049-.274-.26-.221-.44-.221-.116 0-.235 0-.343.018-.389.046-.77-.051-1.154-.034-.275.014-.548.149-.823.034a3.516 3.516 0 0 0-.908-.222 1.734 1.734 0 0 0-.943.093h-.128a.238.238 0 0 0-.22-.112c-.444.024-.89.024-1.335 0a.235.235 0 0 0-.22.121h-.186a.338.338 0 0 0-.346-.106c-.321.035-.659.011-.969.071-.267.053-.504-.093-.75-.053-.198.031-.396.02-.592.037-.374.031-.743-.199-1.121-.013a.301.301 0 0 1-.26-.022c-.323-.243-.587-.051-.86.095h-.127a.566.566 0 0 0-.273-.162.566.566 0 0 0-.316.007 1.399 1.399 0 0 1-.66.069h-.167c-.361-.022-.719-.131-1.084-.031h-.121a1.03 1.03 0 0 1-.625-.062.272.272 0 0 0-.328.051h-.307a.165.165 0 0 0-.22-.044c-.284.159-.574.088-.867.046a.434.434 0 0 0-.464.122h-.127a1 1 0 0 0-.891 0h-.187c-.209-.184-.464-.144-.701-.111-.378.055-.759 0-1.135.047l-.06-.038c-.092-.148-.22-.08-.349-.066-.22.022-.422.112-.642.039a3.491 3.491 0 0 0-1.388-.084c-.44.04-.901 0-1.348.084a.652.652 0 0 1-.376.018 1.02 1.02 0 0 0-.88.108h-.129a1.168 1.168 0 0 0-.598-.168c-.512.025-1.036-.077-1.54.104l-.059-.035a.33.33 0 0 0-.492-.086.495.495 0 0 1-.557.024.434.434 0 0 0-.233-.033c-.44 0-.892 0-1.339.018-.2 0-.42-.107-.58-.042-.28.11-.398-.155-.59-.166-.191-.011-.378.11-.613.037-.346-.106-.689-.221-1.04-.316-.075-.146-.269-.093-.357-.221a.106.106 0 0 0-.096-.102.026.026 0 0 1-.014-.008.042.042 0 0 1-.008-.014.102.102 0 0 0-.04-.071.096.096 0 0 0-.08-.017l-.06-.044a.106.106 0 0 0-.045-.063.108.108 0 0 0-.074-.015.568.568 0 0 1-.253-.243 1.303 1.303 0 0 1-.361-.663c0-.02-.044-.036-.068-.053l-.046-.06c-.084-.203-.093-.442-.284-.597a.292.292 0 0 1-.053-.336c.137-.298 0-.407-.27-.442l-.046-.066c0-.084.017-.171-.062-.221l-.057-.133c-.05-.287-.143-.577.143-.818a.222.222 0 0 0 0-.305c-.236-.27-.108-.593-.07-.862a.81.81 0 0 0-.038-.577l.015-.25c.051-.221-.171-.402-.05-.624l.01-.013a.138.138 0 0 0 .067-.014.154.154 0 0 0 .086-.099.16.16 0 0 0 .004-.068l.029-.128c.079 0 .118-.042.107-.102-.022-.122-.13-.133-.22-.141l-.044-.113a.523.523 0 0 0 0-.201 1.459 1.459 0 0 1 .06-1.17.235.235 0 0 0-.04-.276c-.02-.044-.037-.091-.057-.135.029-.195.205-.376.108-.573a3.936 3.936 0 0 1-.152-.623.538.538 0 0 1 .22-.646l.053-.146c0-.11-.073-.101-.143-.108l-.044-.051c.024-.221.12-.426.015-.645l-.026-.184a.443.443 0 0 0-.011-.265.813.813 0 0 1 0-.635.415.415 0 0 0 0-.291 1.253 1.253 0 0 1-.02-.703.945.945 0 0 0 0-.65l-.044-.323a.603.603 0 0 1 .112-.559l.05-.047c.082-.048.084-.102 0-.155l-.052-.048c-.127-.173-.024-.354-.02-.531-.015-.088-.03-.179-.048-.267-.022-.327 0-.656.061-.977l-.061-.222c.066-.269-.13-.592.171-.815.025-.018.018-.098 0-.142-.175-.502-.145-1.026-.18-1.547a1.46 1.46 0 0 1 0-.586l.073-.122c.068-.046.143-.126.063-.183-.198-.144-.083-.312-.072-.473-.005-.146.022-.255-.05-.341Zm45.502 6.142c0-.294-.196-.396-.453-.221-.21.132-.431.246-.66.34-.202.088-.481.142-.607.334a.573.573 0 0 1-.543.281.539.539 0 0 0-.405.168c-.162.221-.299.393-.598.258-.02 0-.077.056-.105.093a.288.288 0 0 1-.22.146c-.405 0-.73.312-1.15.281a.358.358 0 0 0-.337.254c-.066.186-.189.221-.347.108a.192.192 0 0 0-.271 0 .913.913 0 0 1-.483.21c-.244.051-.249.164-.168.385.107.316.185.641.234.971.022.134-.187.329.132.356.041 0 .022.081.013.132-.042.305.14.637-.101.92v.029a.851.851 0 0 1 .061.84c-.013.026.02.075.02.115.025.272.021.546-.013.818-.044.203-.09.402-.121.61-.038.247-.154.482-.183.729-.024.221-.268.325-.22.52.033.238-.019.48-.147.683-.185.336-.125.707-.233 1.048-.024.079.051.159.121.115.165-.106.418-.075.49-.334a1.2 1.2 0 0 1 .378-.528c.282-.274.539-.577.838-.832.22-.194.401-.482.739-.521.238-.029.321-.175.367-.4.022-.263.134-.51.317-.699.321-.232.573-.549.726-.915.19-.403.405-.793.642-1.17.479-.884 1.099-1.709 1.376-2.697.075-.263.264-.473.313-.738.063-.336.22-.639.31-.964.057-.261.279-.449.288-.725Zm5.203-9.201c0-.08-.022-.146-.128-.153-.106-.007-.163.011-.158.124.004.113.017.197.136.192a.149.149 0 0 0 .143-.101c.007-.02.009-.042.007-.062Zm-.201-29.227a.503.503 0 0 0 .293.177c.101.031.116-.05.112-.123 0-.127-.101-.164-.22-.162-.119.002-.152.004-.185.115v-.007Zm-1.493-11.314a.322.322 0 0 0 .183-.25c.013-.062-.037-.088-.092-.084-.143.013-.163.126-.174.237.004.057.004.106.083.103v-.006Zm1.68 30.592a.104.104 0 0 0-.009-.043.11.11 0 0 0-.107-.067.115.115 0 0 0-.098.027.114.114 0 0 0-.031.041.113.113 0 0 0-.012.051c0 .062.042.086.097.088.055.003.136-.008.16-.097Zm-45.776 25.203a.092.092 0 0 0-.073.106c0 .04 0 .088.06.082.06-.007.099-.056.094-.122-.004-.066-.044-.066-.081-.066Zm38.159-5.726c-.018 0-.053.024-.057.042-.004.018.029.071.068.071a.116.116 0 0 0 .037-.013.094.094 0 0 0 .029-.027c.013-.049-.031-.06-.077-.071v-.002Zm-3.762 3.599c-.051 0-.088.029-.086.073.002.044.02.064.035.064a.073.073 0 0 0 .036-.001.079.079 0 0 0 .031-.017.083.083 0 0 0 .02-.03.074.074 0 0 0 .003-.036c-.002-.018-.028-.035-.039-.051v-.002Z"/><path fill="#FAB06F" d="M121.213 135.857c.242-.196.471-.408.684-.636.246-.297.659-.332.879-.69.137-.221.462-.338.697-.515.198-.153.275-.442.576-.484.11-.014-.024-.157.031-.261.266.192.44.046.57-.182.033-.053.077-.05.123-.066.13-.046.427-.02.112-.27-.099-.079.013-.17.081-.141.425.172.581-.334.926-.358.062 0 .108-.106.088-.173-.09-.28.137-.34.297-.384.22-.062.295-.171.233-.387a.15.15 0 0 1-.005-.104.146.146 0 0 1 .062-.082c.079-.042.154-.049.192.06.022.064.088.075.11.022.105-.241.389-.281.527-.464.24-.321.44-.664.823-.849.039-.546.659-.706.789-1.196.035-.137.22-.135.266-.301.046-.166.255-.221.163-.442-.024-.053.055-.093.11-.122.182-.101.235-.221.068-.398-.11-.11-.057-.208.073-.19.187.027.22-.084.283-.205.113-.193.189-.416.418-.527a.219.219 0 0 0 .119-.276c-.013-.042 0-.13.013-.137.194-.066.185-.303.273-.378.169-.148.187-.352.316-.5.011.188.058.381-.173.489-.112.053.044.201-.031.239-.299.15-.231.53-.462.716a.975.975 0 0 0-.328.59c-.053.25-.176.48-.354.663a1.81 1.81 0 0 0-.241.394c-.266.415-.577.8-.926 1.147a.641.641 0 0 0-.207.314.983.983 0 0 1-.477.573.555.555 0 0 0-.198.221c-.108.217-.285.39-.504.493a.994.994 0 0 0-.439.46c-.174.353-.68.342-.746.769 0 .051-.125.089-.196.124-.07.035-.145.035-.186.082-.59.645-1.348 1.074-2.013 1.625-.219.185-.536.265-.694.468a2.688 2.688 0 0 1-.801.624c-.332.188-.51.581-.921.645ZM133.897 117.053c-.08-.082-.152-.221-.077-.288.279-.263.013-.51-.014-.751-.017-.146-.114-.257.091-.321a.068.068 0 0 0 .027-.01.06.06 0 0 0 .022-.02.07.07 0 0 0 .014-.056c0-.062-.059-.071-.107-.078-.049-.006-.165.018-.203-.088a.15.15 0 0 1 .17-.093c.277.058.296-.091.288-.312-.009-.221-.051-.495.176-.685.072-.06.024-.164.015-.254-.009-.091-.086-.252.117-.347a.5.5 0 0 0 .043-.464.59.59 0 0 1-.063-.686 1.21 1.21 0 0 0 .07-1.174c-.07-.161-.057-.241.134-.252.15 0 .2-.075.086-.208a.167.167 0 0 1-.051-.101c.025-.221.192-.484-.171-.595.187-.318-.07-.685.105-1.004.053-.097.106-.192.154-.291.049-.1.044-.175-.033-.222-.25-.134-.198-.333-.129-.541.107 0 .202-.016.22-.144 0-.02-.027-.064-.04-.064-.108 0-.134.102-.172.181a.14.14 0 0 0 0 .029c-.208-.02-.219-.148-.134-.29.068-.095.145-.182.231-.26 0 .048 0 .13.018.141.358.17.198.358.028.555a.187.187 0 0 0-.049.066.183.183 0 0 0 .012.161.172.172 0 0 0 .059.058c.22.162.187.316.014.5-.104.113-.194.263-.058.429a.197.197 0 0 1 .027.146c-.049.271-.09.539.2.716a1.762 1.762 0 0 0-.053.747c0 .029-.086.073-.138.097a.178.178 0 0 0-.132.138.176.176 0 0 0 .066.179.5.5 0 0 1 .085.47c-.026.175-.103.383.102.524a.126.126 0 0 1 .032.078c-.237.172-.12.42-.158.639-.022.119-.16.21-.026.351a.117.117 0 0 1 .026.046.111.111 0 0 1 .005.054.112.112 0 0 1-.018.05.122.122 0 0 1-.037.038c-.249.108-.148.298-.146.48 0 .294.022.592-.219.831-.13.124.022.298 0 .455-.022.157.015.261-.146.321a.166.166 0 0 0-.099.199c.058.336-.09.621-.164.92ZM133.813 69.01c-.29 0-.479-.22-.717-.324-.077-.036-.081-.102-.05-.18.03-.077.028-.147-.073-.152-.101-.004-.095.069-.086.128.031.25-.22.312-.316.476-.055.088-.168.026-.194-.082a1.182 1.182 0 0 1-.072-.28c.011-.357-.44-.463-.407-.817l.497.053c.072 0 .162.014.178.085.092.41.411.24.644.245a.368.368 0 0 1 .293.088c.177.21.412.364.675.442.138.031.147.186.162.297.019.24.118.467.282.643.041.03.07.074.082.124a.217.217 0 0 1-.014.148c-.16.252 0 .402.152.56.048.048.132.14.083.167-.369.201.152.562-.147.763.284.3-.026.411-.152.626-.125.214.075.466.196.68.077.138.117.242-.095.268-.085-.318-.294-.6-.255-.964.004-.277.094-.547.26-.77.086-.099.042-.16-.049-.22-.219-.122-.237-.237.014-.338.07-.027.099-.069.061-.135a.089.089 0 0 0-.083-.057.092.092 0 0 0-.051.016.091.091 0 0 0-.033.04c-.167.222-.22 0-.303-.079a.107.107 0 0 1-.022-.14c.033-.05.083-.037.132-.015l.158.069c-.024-.537-.084-1.044-.66-1.27.071-.052.22.047.22-.116a.154.154 0 0 0-.039-.096.155.155 0 0 0-.088-.05c-.135-.04-.152.075-.183.168ZM134.697 94.815a.986.986 0 0 0-.235-.5c-.134-.21-.02-.307.151-.336.233-.04.262-.19.174-.336a.796.796 0 0 1-.101-.394 2.541 2.541 0 0 0-.053-.62.4.4 0 0 1 .086-.394c.073-.078.207-.124.13-.259-.077-.135-.2.024-.324-.026a.362.362 0 0 0 .088-.427 3.736 3.736 0 0 1-.127-1.218c0-.02 0-.047.02-.056.455-.29.099-.623.05-.94-.035-.22-.255-.127-.393-.22.219-.016.307-.184.393-.345.044-.1.105-.192.178-.272.104-.093.137-.146 0-.245-.22-.157.016-.443-.035-.502-.138-.15-.235-.27-.189-.476.02-.092.095-.121.169-.148.031.06.049.16.093.173.365.11.22.3.09.497-.095.153-.266.31.05.442.152.06.086.186 0 .259-.149.113-.257.184 0 .325a.241.241 0 0 1-.052.442c-.205.07-.22.201-.099.303.314.276.09.561.035.831-.106.529-.22 1.046.167 1.515.101.123.101.247-.035.331a.25.25 0 0 0-.134.3c.11.361-.031.746.149 1.122.075.152.244.526-.132.692-.074.033-.063.11-.041.183s.048.221-.073.299Zm.097-5.675a.123.123 0 0 0 .116-.133c0-.075-.037-.142-.123-.135-.086.007-.105.078-.105.153s.022.117.116.115h-.004ZM134.6 107.144c-.099-.013-.18-.046-.121-.172a1.41 1.41 0 0 0 .13-.885c-.106-.442-.02-.935-.255-1.355a.197.197 0 0 1-.032-.083.206.206 0 0 1 .01-.089c.141-.403.198-.83.167-1.256 0-.15.097-.234.152-.349.022-.049.097-.082.042-.151a.105.105 0 0 0-.033-.03.081.081 0 0 0-.043-.011.087.087 0 0 0-.076.041c-.101.098-.22.095-.271-.026-.05-.122.075-.153.15-.204.075-.05.154-.112.138-.221-.048-.345.095-.663.143-.99a.231.231 0 0 1 .113.266.218.218 0 0 1-.047.092c-.191.294-.079.628.022.895.069.177.104.279-.019.409a.408.408 0 0 0-.128.229.41.41 0 0 0 .035.26.62.62 0 0 1 .035.413c-.05.173-.055.29.154.376a.195.195 0 0 1 .089.079c.02.035.028.076.024.116a.194.194 0 0 1-.05.107.181.181 0 0 1-.104.056c-.194.064-.262.146-.174.347.044.102 0 .222-.029.323-.028.102-.055.27.057.367.2.177.157.391.128.61a3.54 3.54 0 0 1-.207.836ZM131.893 123.687a.535.535 0 0 1 .203-.608.12.12 0 0 0 .067-.066.116.116 0 0 0 .008-.048.094.094 0 0 0-.012-.047c-.011-.038-.048-.087-.037-.111.22-.422.057-.959.44-1.344.297-.294.25-.734.343-1.105.013-.058-.016-.146.015-.175a.563.563 0 0 0 .167-.637c0-.035.027-.097.058-.13.261-.29.288-.517.068-.82-.082-.111-.033-.151.05-.208.084-.058.194-.135.108-.33-.086-.194.189-.19.308-.269a1.383 1.383 0 0 1-.161 1.105.52.52 0 0 0-.035.294c0 .082 0 .173-.07.221-.148.091-.328.162-.071.336.016.011 0 .089-.011.111-.391.398-.252.968-.457 1.428a.464.464 0 0 1-.11.203.977.977 0 0 0-.312.966c.012.039.013.08.003.119a.23.23 0 0 1-.058.103.18.18 0 0 0-.061.052.196.196 0 0 0-.014.228c0 .022 0 .078-.013.084-.295.124-.233.465-.416.648ZM119.783 67.963c-.039.055-.11.104-.116.161-.026.221-.18.325-.348.252-.167-.073.051-.22.036-.33a.283.283 0 0 0-.044-.021.765.765 0 0 1-.781.33c-.117-.014-.22.035-.336-.07a.546.546 0 0 0-.482-.183c-.037 0-.097 0-.112-.024-.301-.442-.607-.09-.831.053-.225.144-.361.126-.458-.097-.061-.144-.136-.164-.246-.089a.809.809 0 0 1-.57.113.354.354 0 0 0-.206 0c-.282.179-.519.013-.763-.084-.117-.047-.196-.1-.22.088-.024.188-.242.222-.288.42a.243.243 0 0 1-.098-.159.255.255 0 0 1 .005-.095.247.247 0 0 1 .042-.086c.139-.186-.083-.049-.081-.102a.46.46 0 0 1 .659-.179c.383.221.763.09 1.131.051.22-.022.44-.155.684-.1.059.014.136-.052.206-.081.031.082-.026.088-.07.104a.117.117 0 0 0-.045.026.128.128 0 0 0-.03.044.131.131 0 0 0-.008.052.145.145 0 0 0 .015.05.119.119 0 0 0 .036.04.116.116 0 0 0 .1.016.118.118 0 0 0 .046-.025c.09-.073.22-.07.297-.128.251-.16.484-.221.732 0 .086.08.22.017.321.04.28.057.585-.062.845.154.07.06.185.016.268-.064a.618.618 0 0 1 .71-.077ZM85.94 135.698c.353.086.696.221 1.041.316.235.073.416-.051.614-.037.198.013.31.276.589.165.16-.064.38.049.58.042.44-.013.893-.015 1.34-.017.079-.011.16.001.233.033a.5.5 0 0 0 .556-.024.32.32 0 0 1 .266-.071.327.327 0 0 1 .227.157c-.097.04-.167-.073-.255-.049-.928.254-1.867-.026-2.798.066-.255.025-.488.065-.68-.154a.115.115 0 0 0-.052-.023.111.111 0 0 0-.057.003c-.475.241-.866-.106-1.293-.192-.108-.023-.301-.009-.31-.215ZM134.701 98.61c-.162-.316-.376-.623-.147-.999a.32.32 0 0 0 .055-.199c-.101-.515.079-1.026.015-1.536-.024-.195.187-.372.022-.564a.047.047 0 0 1 0-.029c.456-.06-.092-.263.053-.367.244.137.422.246.18.586a1.169 1.169 0 0 0-.153.748c.046.393-.108.784 0 1.18a.339.339 0 0 1-.047.199c-.07.146-.145.278.13.203a.153.153 0 0 1 .207.118.152.152 0 0 1-.04.167.141.141 0 0 1-.053.03c-.277.063-.237.267-.222.463ZM107.348 136.363c.273-.145.537-.338.86-.095a.296.296 0 0 0 .259.023c.379-.186.748.044 1.122.013.196-.018.394 0 .591-.038.247-.04.484.106.75.053.317-.059.66-.035.97-.07a.335.335 0 0 1 .345.106c-.552.035-1.11.148-1.649.086-.58-.066-1.172.099-1.735-.122-.07-.028-.108.025-.16.042a.688.688 0 0 1-.55 0 .585.585 0 0 0-.587 0c-.071.042-.143.078-.216.002ZM93.71 136.359a1.026 1.026 0 0 1 .88-.108.652.652 0 0 0 .376-.018c.44-.077.899-.044 1.348-.084a3.473 3.473 0 0 1 1.387.084c.22.073.429-.018.642-.04.123-.013.257-.082.35.067-.418.026-.88.243-1.245.057-.365-.186-.74-.064-1.075-.044-.464.029-.943-.042-1.4.091-.04 0-.084.037-.115.026-.387-.128-.77.013-1.148-.031ZM123.788 68.043c-.068.207-.165.287-.427.276a.973.973 0 0 0-.721.166c-.079.068-.189.132-.295.03-.105-.101-.22-.168-.11-.324.038 0 .097 0 .11-.027.203-.36.532-.265.834-.221.202.029.437-.128.609.1ZM134.701 81.232a.16.16 0 0 1-.131-.09.163.163 0 0 1 .01-.16c.059-.169.079-.349.058-.526 0-.208-.031-.365.184-.475.117-.06.099-.197.058-.297-.062-.148-.135-.013-.22 0-.143.042-.181-.068-.176-.17.013-.343 0-.694.184-1.006.126.053.273.078.286.259.014.181-.118.181-.22.234a.281.281 0 0 0-.119.13.286.286 0 0 0-.017.175c.013.126.103.129.196.133.13 0 .22.084.202.21-.017.126.092.356-.114.455-.156.073-.154.157-.101.308.105.28-.115.541-.08.82ZM114.348 136.364c.299-.119.626-.151.943-.093.311.033.616.107.908.221.275.115.548-.02.823-.033.384-.018.765.079 1.154.033.108-.014.22 0 .343-.018.18-.015.391-.062.44.221-.44-.199-.902-.026-1.344-.086-.719-.097-1.46.137-2.166-.199-.294-.142-.642.051-.965-.013-.046-.009-.099.006-.136-.033ZM134.846 100.547c.025-.13.047-.252-.094-.345a.696.696 0 0 1-.22-.853c.045-.16.119-.31.22-.442.116-.104 0-.177-.022-.266.235.027.301.124.143.33a1.68 1.68 0 0 0-.174.276c-.081.166-.202.343.147.345.172 0 .236.221.102.363-.134.141-.102.181 0 .296.101.115.105.248-.102.296ZM83.663 114.669a1.46 1.46 0 0 0 0 .586c.035.52 0 1.044.18 1.548.016.044.022.124 0 .141-.301.221-.106.546-.171.816-.029 0-.066 0-.084-.015a2.39 2.39 0 0 1-.033-.871c.22-.124.156-.317.088-.467a1.044 1.044 0 0 1-.084-.692c.055-.252-.079-.511-.046-.771.007-.12-.028-.257.15-.275ZM134.605 75.267c.015-.104.257-.095.167-.183-.128-.126.013-.412-.284-.425-.149 0-.145-.093-.116-.265.059-.385.281-.727.252-1.13 0-.1-.079-.25.104-.294.044.341.004.689-.117 1.01-.057.157-.184.493.15.664.152.082.176.314.134.493-.033.146-.167.154-.29.13ZM83.705 129.745a.811.811 0 0 1 .037.577c-.037.269-.165.592.07.862a.22.22 0 0 1 0 .305c-.285.241-.193.53-.143.818a.561.561 0 0 1-.079-.747c.062-.071.121-.129.08-.233a1.568 1.568 0 0 1 0-1.189.154.154 0 0 0-.042-.19c-.231-.177.008-.153.077-.203ZM119.361 136.7c.073-.222.205-.295.392-.127.079.069.107.056.154-.017.296-.456.782-.555 1.262-.663-.022.033-.038.081-.066.092-.42.164-.752.467-1.128.699-.185.113-.409-.011-.614.016ZM83.852 124.569a.534.534 0 0 0-.22.646c.034.211.084.42.152.623.096.197-.08.378-.108.573-.061.013-.12-.031-.092-.071.233-.352-.025-.663-.066-.993a2.562 2.562 0 0 1 0-.745c.044-.285.217-.013.334-.033ZM98.735 136.297c.376-.057.756 0 1.134-.046.238-.033.493-.073.702.11-.572.069-1.15.011-1.724.045a.11.11 0 0 1-.044-.004.099.099 0 0 1-.062-.061.1.1 0 0 1-.006-.044ZM91.445 136.297c.501-.181 1.025-.079 1.54-.104.21.001.417.059.597.168a.487.487 0 0 1-.499-.031c-.171-.13-.338.014-.512 0-.288-.024-.598-.121-.88.045-.088.042-.213.079-.246-.078ZM83.672 121.54c-.061.232-.054.476.02.703a.418.418 0 0 1 0 .292.821.821 0 0 0 0 .635c.03.085.034.178.01.265-.156-.261-.307-.522-.127-.833a.43.43 0 0 0 0-.374 1.15 1.15 0 0 1-.066-.495c.007-.104.022-.204.163-.193ZM112.432 136.357a.235.235 0 0 1 .093-.092.236.236 0 0 1 .127-.03c.445.025.89.025 1.335 0a.241.241 0 0 1 .22.113c-.22.059-.449.069-.673.029-.358-.02-.726.004-1.102-.02ZM83.729 126.546a.236.236 0 0 1 .04.276 1.452 1.452 0 0 0-.06 1.169.532.532 0 0 1 0 .202c-.336-.555-.249-1.104.02-1.647ZM83.832 132.738c.262.044.407.152.27.442a.295.295 0 0 0 .053.336c.192.159.2.394.284.597-.253-.292-.539-.568-.42-1.015.024-.097.03-.172-.092-.203-.082-.011-.146-.053-.095-.157ZM134.675 78.384c-.077-.165-.156-.331-.22-.5-.015-.035-.02-.1 0-.114.262-.2.097-.529.238-.763.22.184.057.424 0 .564a.866.866 0 0 0 0 .663c.024.049.05.106-.018.15ZM101.785 136.361a.44.44 0 0 1 .464-.121c.292.042.582.112.866-.047a.169.169 0 0 1 .22.045 1.382 1.382 0 0 1-1.071.101c-.171-.053-.319.104-.479.022ZM121.727 68.023c.06.283-.178.364-.343.484a.193.193 0 0 1-.246-.02c-.075-.084-.013-.164.04-.237.052-.073.072-.117.107-.177.167.146.302.018.442-.05ZM127.141 67.952a.195.195 0 0 1 .035.23.194.194 0 0 1-.052.064.185.185 0 0 1-.247-.033c-.11-.098-.191-.027-.29.03-.099.058-.163.178-.327.19.081-.154.153-.289.219-.424.222.04.451.02.662-.057ZM134.798 85.18c-.11-.25-.277-.477.048-.732.192-.15-.035-.327-.125-.475.262.058.422.33.251.513a.606.606 0 0 0-.13.621c.004.02-.029.049-.044.073ZM131.264 125.093c-.041-.356.308-.606.258-.968a.157.157 0 0 1 .007-.061.156.156 0 0 1 .14-.101c.024.35-.125.664-.22.978-.035.088-.07.165-.185.152ZM83.727 117.983c-.063.322-.083.65-.062.977h-.029c-.241-.185-.18-.833.09-.977ZM105.963 136.279c.222.031.448.007.659-.068a.58.58 0 0 1 .59.155c-.363-.12-.715-.014-1.071.037-.068.011-.183.018-.178-.124ZM120.617 68.042a.447.447 0 0 1 0 .146c-.031.089.136.204-.016.25a.238.238 0 0 1-.268-.14c-.061-.22-.259-.249-.418-.333a.247.247 0 0 1 .365.029c.115.126.225.064.337.048ZM104.712 136.249c.365-.1.723 0 1.084.03 0 .142-.121.144-.183.115-.262-.13-.532-.05-.798-.057a.106.106 0 0 1-.068-.025.108.108 0 0 1-.035-.063ZM83.731 120.008a.605.605 0 0 0-.112.56c.013.108.028.221.044.322-.284-.181-.152-.464-.159-.705-.002-.106.058-.232.227-.177ZM83.744 128.305c.1 0 .207.02.22.142.011.059-.028.113-.108.101 0-.05 0-.11-.063-.108-.064.002-.084.075-.095.133-.02.11.064.097.13.104a.155.155 0 0 1-.036.127.154.154 0 0 1-.12.054c0-.066 0-.161-.029-.195-.213-.192-.035-.267.101-.358ZM134.668 76.881c-.169-.163-.149-.334.044-.442.194-.108.088-.201.016-.305a.191.191 0 0 1 .241.245.195.195 0 0 1-.09.106c-.193.08-.182.246-.211.396ZM83.727 113.891c-.011.162-.126.33.072.473.08.058 0 .137-.064.184a.91.91 0 0 1-.202-.387c-.081-.201 0-.274.194-.27ZM103.638 136.238a.27.27 0 0 1 .328-.051c.197.085.415.106.625.062a.331.331 0 0 1-.39.132c-.189-.073-.378-.079-.563-.143ZM100.767 136.363a1.009 1.009 0 0 1 .89 0 2.26 2.26 0 0 1-.89 0ZM126.396 67.967c-.196.1-.495.022-.557.442-.063-.185-.138-.27-.09-.386.211-.069.416-.244.647-.056ZM84.485 134.193c.025.017.066.033.068.053.053.252.178.482.361.663-.385-.097-.435-.396-.429-.716ZM124.808 67.96c-.02.096-.145.054-.174.136-.028.081-.072.22-.169.203-.097-.018-.046-.184-.068-.283.128-.084.255-.172.411-.055ZM134.668 86.929a.15.15 0 0 1-.066-.034.145.145 0 0 1-.046-.137.143.143 0 0 1 .031-.068.652.652 0 0 0 .037-.54c.258.102.15.306.115.472-.02.101-.093.192-.071.307ZM83.713 119.228c0 .177-.107.358.02.531-.185.064-.187-.1-.22-.193a.258.258 0 0 1 .2-.338ZM134.66 82.903c0-.057 0-.14-.022-.166-.205-.176-.106-.316.044-.453.037.153-.038.323.088.469.028.037.061.197-.11.15ZM83.67 128.871c-.121.221.1.411.05.624-.28-.297-.295-.489-.05-.624ZM134.704 101.252a1.006 1.006 0 0 1 .127-.687c-.011.245.11.497-.127.687ZM131.72 67.78c0 .02.022.04.015.055-.026.097.13.245-.029.283a.219.219 0 0 1-.281-.221c.116.004.165-.162.295-.118ZM134.578 85.91a1.11 1.11 0 0 1 .22-.602c.018.248 0 .47-.22.602ZM134.675 107.664a.336.336 0 0 0 .083-.267.342.342 0 0 0-.147-.238c.137 0 .275.047.284.202a.26.26 0 0 1-.044.2.258.258 0 0 1-.176.103ZM134.684 81.692c-.02-.153.18-.252.099-.418.22-.035.22.082.143.22a.411.411 0 0 1-.242.198ZM83.733 123.619c.106.221 0 .442-.015.645-.075 0-.119-.066-.095-.115.086-.168.002-.369.11-.53ZM132.958 67.678c0 .084-.038.137-.121.141-.154 0-.154-.133-.183-.22-.028-.09.046-.103.11-.094.103.011.189.051.194.173ZM125.521 67.98c0 .113.041.266-.165.244-.075-.17-.06-.279.165-.243ZM133.729 117.718c0-.128-.077-.276.082-.369-.013.126.068.274-.082.369ZM127.742 68.113c-.154.16-.205.146-.286-.08.107-.017.191.058.286.08ZM134.73 82.156c0-.097-.068-.186-.033-.29.079.09.244.168.033.29ZM134.666 75.625c-.136-.044-.237-.106-.112-.263a.466.466 0 0 1 .112.263ZM83.724 132.439c.08.062.069.149.062.222-.16-.029-.099-.129-.062-.222ZM121.101 67.91c-.066.066-.123.17-.236.06.062-.08.13-.142.236-.06ZM125.083 68.226a.1.1 0 0 1-.088.038.1.1 0 0 1-.047-.018.094.094 0 0 1-.032-.038c-.033-.05-.013-.088.046-.104a.177.177 0 0 1 .121.122ZM134.798 83.566v-.179c.125.053.123.113 0 .18ZM134.695 75.868a.234.234 0 0 1-.019-.093c0-.033.006-.065.019-.094.103.06.103.121 0 .188ZM83.762 124.315c.07 0 .151 0 .143.108-.08.007-.143-.006-.143-.108ZM85.167 135.152a.103.103 0 0 1 .119.077c-.082.042-.115.005-.12-.077ZM85.347 135.274a.096.096 0 0 1 .08.017.098.098 0 0 1 .039.071c-.08.024-.119-.004-.119-.088ZM85.488 135.384c.026.002.05.014.067.033a.104.104 0 0 1 .03.069c-.086.015-.12-.016-.097-.102ZM133.848 117.296a.078.078 0 0 1-.007-.033c0-.012.002-.023.006-.034a.084.084 0 0 1 .047-.046c.064.071.038.104-.046.113ZM83.781 119.807c.08.053.078.106 0 .155a.128.128 0 0 1 0-.155ZM125.325 68.266c.018.048.026.097-.037.11-.064.013-.066-.026-.064-.07l.101-.04ZM131.68 123.952a.115.115 0 0 1 .105-.106c.011.08-.026.115-.105.106ZM124.126 68.027v.042-.022c0-.007 0-.013.011-.02h-.011Z"/><path fill="#E75F35" d="m88.951 85.236-.026.198c-.026.085.02.124.086.091a.29.29 0 0 1 .272.018.178.178 0 0 1-.057.194.103.103 0 0 0-.14.062c-.069.02-.141.033-.176.106a.758.758 0 0 0 0 1.02c.044.055.074.12.088.19.195.513-.478.975-.075 1.485 0 0 0 .016-.011.027a.096.096 0 0 0 .003.087.095.095 0 0 0 .074.048c.266.073.147.172.066.338-.082.166-.394.29-.249.61.08.175.022.385-.266.367-.07 0-.143.038-.114.133.028.095.07.15.17.13a.292.292 0 0 0 .237-.161c.04-.097.079-.168.191-.106a.17.17 0 0 1 .077.234c-.112.265-.167.55-.163.838-.01.095-.015.172-.136.192-.178.033-.202.153-.108.288.06.092.084.204.066.314a.666.666 0 0 0 .167.546c.231.247.134.897-.125.926-.145.015-.233.07-.2.159.06.161.04.46.167.469.286.024.22.168.248.351.029.184-.05.39-.02.588a.424.424 0 0 1-.202.442c-.07.047-.11.087-.079.164.03.077.101.064.154.044.167-.064.165.033.19.16.009.208.053.413.129.607.066.115.022.15-.097.175-.277.06-.312.161-.17.427.205.38.113 1.123-.193 1.326-.26.168-.182.252.044.327.178.06.24.142.194.35-.057.258-.22.121-.345.126.114.291.112.305-.075.42-.093.057-.22.092-.183.232.038.14.17.02.255.033.086.013.233 0 .255.152.022.153-.083.173-.204.184-.121.011-.11.073-.075.186.093.303.3.612-.044.915-.083.073-.046.261.046.387.102-.047.08-.221.205-.195.125.027.053.173.092.25.078.212.106.439.084.663.044.31.03.624-.04.929-.03.097-.046.161.018.243.064.082.077.133.01.188-.065.055-.127 0-.168-.062-.082-.11-.159-.084-.198.024-.04.109.066.124.127.175.257.208.22.391-.075.511-.046.017-.107.035-.096.095a.16.16 0 0 0 .029.065.15.15 0 0 0 .054.045c.205.051.233.193.26.378.024.208.062.413.114.615.046.179.163.314-.088.422-.07.031-.073.139-.018.221.055.082.117.131.066.221a.393.393 0 0 0 .055.442c.152.164.05.27 0 .403l-.013.013c-.094.02-.099.089-.075.161a.802.802 0 0 1 .075.195c0 .153.106.345-.05.442a.421.421 0 0 1-.475-.033c-.26-.159-.537-.035-.803 0-.055.011-.125.111-.174.038-.17-.259-.283-.084-.42.031-.136.115-.191.103-.283-.051-.22-.385-.517-.458-.913-.294a.592.592 0 0 1-.677-.159.364.364 0 0 0-.504-.089.27.27 0 0 1-.155.05.27.27 0 0 1-.155-.05.753.753 0 0 0-.537-.206c-.116.014-.131-.114-.11-.201a.807.807 0 0 1 .12-.238.39.39 0 0 0 0-.476.138.138 0 0 0-.014-.026c-.16-.221.15-.418.08-.526-.071-.109-.306-.155-.22-.421.085-.265-.04-.504 0-.767.043-.311 0-.632.162-.926.068-.126.049-.221-.094-.318-.143-.098-.062-.378-.152-.56a.23.23 0 0 1 0-.203c.374-.526.097-1.068.048-1.603a.528.528 0 0 1 .024-.174c.016-.058.064-.118.055-.171-.081-.499.132-.992.014-1.492a.852.852 0 0 1 .05-.639.41.41 0 0 0-.057-.495 1.046 1.046 0 0 1-.073-.997.639.639 0 0 0 .042-.515c-.132-.345-.055-.712-.092-1.068-.024-.237.2-.431.44-.56-.352-.145-.405-.245-.304-.62a.445.445 0 0 0-.02-.317 1.32 1.32 0 0 1-.074-.935.548.548 0 0 0 .013-.351.445.445 0 0 1 .053-.478c.12-.148-.053-.318 0-.49.099-.332.197-.664.013-1.01-.097-.184 0-.412.015-.615a8.64 8.64 0 0 0-.108-.94c-.024-.418-.118-.845.152-1.251.187-.286.018-.63-.03-.944 0-.062-.082-.126-.06-.195.14-.422-.09-.873.101-1.291 0 0 .013-.024.011-.026-.288-.27.04-.59-.088-.907-.154-.385 0-.842-.103-1.26.303-.221.22-.564.294-.858.018-.07.056-.141 0-.194-.371-.323-.156-.741-.167-1.117 0-.117.038-.22-.04-.334a.221.221 0 0 1-.037-.17c.104-.42-.037-.847.053-1.271.079-.288.11-.587.093-.884-.033-.248-.073-.502-.095-.756-.003-.13.011-.26.042-.385.046-.27.193-.526-.016-.818-.09-.128-.02-.371-.026-.56 0-.094.037-.205-.073-.273a.444.444 0 0 1-.015-.175c.235-.703-.024-1.4-.026-2.1a.586.586 0 0 1 .048-.32.4.4 0 0 0 .033-.37.425.425 0 0 1 .024-.323s.013-.018.011-.026c-.097-.489.22-.885.3-1.327.023-.168.164-.292.142-.477 0-.069.088-.058.145-.049.205.03.247-.11.293-.25-.134-.115-.308.122-.385-.046-.077-.168.119-.277.167-.422.049-.146.16-.164.286-.162.125.002.22-.011.257-.148.085.02.175.013.255-.022.22.07.282 0 .194-.221.09.057.253-.093.29.097.011.053-.033.13.055.137.088.007.132-.106.185-.172.053-.067.053-.157-.02-.184a3.289 3.289 0 0 0-.563-.148c-.064-.011-.11.077-.09.16l-.097.11-.23.152c.047-.33.22-.627.483-.83.145.032.29.057.44.099.15.042.22.081.235.236.016.155.09.206.22.166.13-.04.117-.16.077-.25-.121-.272.077-.276.204-.206.39.222.76.027 1.126-.026.207-.029.44-.102.44-.442 0-.221.282-.073.44-.12.099-.03.084.107.057.177-.026.071-.057.175.04.237a.136.136 0 0 0 .167 0c.101-.082.017-.17 0-.259.105-.01.206-.037.257.089.038.09.09.163.205.11.114-.053.244-.077.233-.199-.018-.194.112-.22.22-.181.292.128.613.011.91.148.176.082.39.221.627.042a.35.35 0 0 1 .415.062c.22.177.341.108.414-.155 0 .241.18.25.325.3.049.016.11.02.139-.026.057-.095-.082-.115-.084-.148a.734.734 0 0 1 .858-.017c.097.05.191-.018.283-.056h.106c.024.013.068.022.075.044.057.166.154.334.334.317.18-.018.112-.222.165-.352.035-.08.046-.17.17-.172.122-.003.22.01.272.128.053.117.097.22.185.201.244-.077.475-.188.71.016a.054.054 0 0 0 .055 0c.123-.272.374-.124.563-.175h.162a.171.171 0 0 0 .188-.038.438.438 0 0 1 .7.255c.016.072.045.132.126.143.082.011.108-.035.132-.095.024-.06.05-.128.077-.19a.141.141 0 0 1 .035-.044.365.365 0 0 1 .473-.162.86.86 0 0 0 .572-.015c.24.066.496.054.73-.035.198-.064.347-.135.565.04a.674.674 0 0 0 .62.07c.132-.053.266-.088.385.042.014.014.03.025.048.032.019.007.038.01.058.008.387-.15.831 0 1.202-.243a.482.482 0 0 1 .491 0c.245.135.53.18.805.126a.684.684 0 0 1 .327.035c.11.343.115.345.359.128.244-.216.44-.245.631 0 .275.327.599.609.961.834.247.206.46.45.629.725.078.11.18.198.299.26.169.12.317.265.44.432.05.055.059.161.116.203.328.254.429.653.596.995.119.241.38.418.328.758a.44.44 0 0 0 .294.443c.321.11.192.402.275.605.024.058-.07.075-.132.078l-1.057.04-.172-.012c-.257-.066-.512.016-.77 0a.655.655 0 0 0-.481.06h-.126c-.197-.075-.354-.305-.609-.16l-.017.019c-.099 0-.15.179-.258.104-.29-.195-.576 0-.862 0h-.206l-.381-.08-.156-.035-.915.101h-.219c-.22.022-.44-.197-.66 0l-.103.016a1.52 1.52 0 0 0-.625-.104c-.259.015-.521-.06-.776.062a.313.313 0 0 1-.258-.04c-.077-.038-.16-.09-.24 0l-.034-.016c-.093-.128-.192-.199-.308-.022l-.05.03c-.073-.014-.142-.016-.179.065h-.125c-.031-.064-.097-.053-.152-.07-.398-.115-.814.081-1.214-.069a.22.22 0 0 0-.26.146h-.18c-.237-.179-.484-.055-.728-.015-.068-.05-.127-.118-.22-.1-.22.064-.463-.048-.66.104l-.105.018c-.27-.04-.516-.221-.809-.124h-.09c-.178-.033-.378-.177-.49.104h-.126a.234.234 0 0 0-.284-.155c-.31.102-.635.011-.943.086-.25.06-.497-.139-.74 0h-.126c-.095-.104-.207-.062-.315-.042l-.105-.024c-.08-.097-.159-.102-.233 0-.28.024-.562.024-.843 0-.118-.08-.235-.343-.354 0l-.162.029a.22.22 0 0 0-.22 0h-.143a.839.839 0 0 1-.477-.106c-.069-.045-.139-.069-.203.024a.626.626 0 0 0 .121.645v.241c-.083-.017-.176.014-.248-.068a.147.147 0 0 0-.253.022c-.068.113.05.15.103.221.126.183.466.276.295.606l-.015.174c-.165.235.083.59-.231.78a.068.068 0 0 0 0 .058c.23.336.202.719.189 1.106v.22a.322.322 0 0 0-.106.416l.024.095c.087.21.103.443.047.664l-.011.1c-.049.198.18.187.248.302-.123.12-.255-.018-.387.04.068.442.343.833.176 1.297-.037.102-.11.222-.055.345v.104c.077.221-.057.458.084.663-.053.18.22.25.142.432-.202.196-.068.546-.325.73-.026.02.073.2.19.125a.24.24 0 0 1 .267-.02v.126c-.042.024-.083.05-.123.08-.281.221-.286.296-.015.55.064.058.05.122.055.188l-.273.25c-.12.137-.046.221.088.252.08.022.13.033.082.135-.165.295-.22.639-.157.97Zm-.97-1.93.24.302a.143.143 0 0 0 .185.033.117.117 0 0 0 .068-.119.127.127 0 0 0-.1-.128c-.124-.016-.225-.122-.392-.089Zm.803-1.17c0-.12-.07-.137-.143-.126a.346.346 0 0 0-.294.248c-.016.057.05.104.09.07.108-.088.284-.06.347-.192Zm.108 13.994c-.026-.077-.04-.181-.136-.206-.097-.024-.117.058-.124.13a.149.149 0 0 0 .085.165c.02.01.043.014.065.013.068.004.119-.016.11-.102Zm-4.336-24.853c0-.07-.042-.113-.115-.1a.154.154 0 0 0-.127.173c0 .068.026.12.105.095a.16.16 0 0 0 .137-.168Z"/><path fill="#FFFEFE" d="M123.746 83.213c.114-.129.281-.045.411-.11.088-.043.117.05.099.127a.121.121 0 0 1-.018.065.122.122 0 0 1-.178.03c-.099-.046-.246.051-.314-.112ZM67.896 104.491c-.044.104-.097.179-.204.157-.108-.022-.126-.115-.12-.21.007-.095.027-.177.135-.148a.301.301 0 0 1 .189.201ZM95.216 90.897c-.096 0-.184-.024-.178-.126.007-.102.09-.15.183-.168a.12.12 0 0 1 .15.067.12.12 0 0 1 .008.06c.009.116-.073.147-.163.167ZM95.366 97.067c0 .085-.075.115-.126.089-.105-.058-.288.018-.316-.148-.013-.082.099-.11.184-.109a.268.268 0 0 1 .258.168ZM105.552 61.638a.198.198 0 0 1 .149.164c0 .099-.064.108-.136.104-.073-.005-.167-.025-.167-.122a.152.152 0 0 1 .154-.146ZM82.785 112.527c0 .055-.032.086-.072.075-.103-.028-.22-.064-.235-.192a.06.06 0 0 1 .001-.029.06.06 0 0 1 .015-.026.076.076 0 0 1 .025-.016.058.058 0 0 1 .029-.002.315.315 0 0 1 .237.19ZM88.742 130.293a.18.18 0 0 1-.035-.221c.09.015.233-.1.26.07.026.171-.128.135-.225.151ZM122.455 104.272c0 .1-.066.1-.123.1-.057 0-.16-.029-.158-.135a.101.101 0 0 1 .032-.079.092.092 0 0 1 .039-.021.09.09 0 0 1 .043-.002c.092.007.132.078.167.137Z"/><path fill="#E75F35" d="M89.193 114.386v.352a.22.22 0 0 1-.086-.176.224.224 0 0 1 .086-.176Z"/><path fill="#FFFEFE" d="M105.51 95.97a.241.241 0 0 1-.075.036c-.026 0-.057-.024-.035-.055a.178.178 0 0 1 .086-.055c.024-.005.05.017.024.075ZM117.206 118.476c-.033.018-.057.04-.079.04s-.079 0-.059-.062c0-.015.046-.029.068-.026.022.002.037.026.07.048Z"/><path fill="#FAB06F" d="M89.279 118.386c.13.188.112.245-.117.342-.052.022-.125.018-.136.091-.01.073.066.104.134.122.22.061.244.291.128.36-.286.17-.167.442-.172.628-.009.245.005.491.042.734-.266-.033-.145-.312-.273-.442.207-.179-.024-.409.073-.619.055-.122.046-.25.194-.33.147-.079.114-.21-.034-.221-.25-.031-.259-.347-.51-.385-.068 0 0-.179.077-.245a1.15 1.15 0 0 0 .295-1.222 3.545 3.545 0 0 0-.25-.367.236.236 0 0 1-.012-.272c.053-.023.08 0 .108.037.029.038.06.122.132.058.073-.064.024-.095 0-.137-.084-.109-.15-.21.055-.255.066.207.08.427.037.639a.258.258 0 0 0 .172.308c.18.07.185.203.055.325-.167.152-.152.382-.266.557-.055.084 0 .15.09.177.09.026.17 0 .18.112h-.088c-.096 0-.173.029-.193.133-.02.104.033.106.099.11a.144.144 0 0 0 .162-.083.652.652 0 0 0 .018-.155Zm-.15-1.013-.02.016s0 .017.018.017.014 0 .018-.015l-.016-.018ZM89.16 120.669a.71.71 0 0 1-.114.838c-.075-.037-.06-.09-.02-.143.108-.138.183-.261-.042-.372-.099-.049-.083-.13.035-.155.12-.024.117-.092.141-.168ZM134.372 110.538a.157.157 0 0 1-.007.061.141.141 0 0 1-.032.054.142.142 0 0 1-.111.048c-.119 0-.132-.099-.136-.192-.005-.093.07-.131.158-.124.088.007.132.08.128.153ZM134.171 81.318c.033-.11.117-.108.194-.108s.2.035.22.161c0 .073 0 .155-.112.124a.503.503 0 0 1-.302-.177ZM132.678 70.003c-.072 0-.088-.046-.083-.097 0-.11.031-.22.174-.236.055 0 .105.022.092.084a.321.321 0 0 1-.183.25ZM134.358 100.589c-.022.089-.088.104-.16.097-.073-.006-.101-.026-.097-.088 0-.018.004-.035.011-.051a.13.13 0 0 1 .078-.066.13.13 0 0 1 .052-.002.095.095 0 0 1 .044.007.12.12 0 0 1 .037.023c.011.011.02.023.026.037a.104.104 0 0 1 .009.043Z"/><path fill="#FFFEFE" d="M133.813 69.01c.031-.092.048-.207.185-.174a.16.16 0 0 1 .089.05c.023.027.036.06.038.096 0 .164-.154.064-.22.117l-.092-.088Z"/><path fill="#FAB06F" d="M88.582 125.792c.044 0 .08.02.081.066.002.046-.024.117-.094.122-.07.004-.057-.042-.06-.082a.092.092 0 0 1 .073-.106ZM126.741 120.068c.046 0 .09.022.077.073a.096.096 0 0 1-.066.04c-.04 0-.081-.022-.068-.071.013-.049.039-.031.057-.042Z"/><path fill="#FFFEFE" d="M83.837 128.677c-.066 0-.15 0-.13-.104 0-.058.026-.128.094-.133.069-.004.066.058.064.108-.002.051-.02.087-.028.129ZM122.979 123.667c0 .016.037.033.039.053a.073.073 0 0 1-.054.083.063.063 0 0 1-.036.001c-.015 0-.035-.042-.035-.064s.031-.064.086-.073Z"/><path fill="#E75F35" d="M134.563 108.218a.131.131 0 0 1 0-.028c.037-.08.064-.173.171-.182.014 0 .044.045.04.065-.018.128-.112.148-.22.143l.009.002ZM134.798 89.14c-.09 0-.114-.049-.112-.115.002-.067.02-.146.106-.153.085-.007.123.06.123.135a.133.133 0 0 1-.006.049.123.123 0 0 1-.111.084Z"/><path fill="#FAB06F" d="M124.916 82.116c-.11-.01-.108-.088-.112-.157-.013-.186.156-.146.25-.19a.067.067 0 0 1 .036-.01c.013 0 .025.004.036.011a.07.07 0 0 1 .023.03.068.068 0 0 1 .002.038.465.465 0 0 1-.235.278ZM123.9 79.974c-.022.015-.044.035-.048.03a.309.309 0 0 1-.051-.052c.013 0 .031-.031.035-.029a.377.377 0 0 1 .064.05ZM93.653 68.15c-.093.038-.187.107-.284.056a.734.734 0 0 0-.857.018c0 .033.14.053.083.148-.028.046-.09.042-.138.026-.145-.05-.328-.06-.326-.3-.072.263-.2.331-.413.154a.351.351 0 0 0-.416-.061c-.237.183-.45.04-.627-.042-.296-.138-.617-.02-.91-.148-.099-.045-.22-.014-.22.18.011.122-.136.156-.233.2-.097.044-.167-.02-.204-.11-.051-.127-.152-.1-.258-.09.027.09.11.178 0 .26a.135.135 0 0 1-.167 0c-.097-.063-.075-.147-.04-.237.036-.09.042-.208-.057-.177-.15.046-.428-.095-.44.12 0 .34-.235.413-.44.441-.367.054-.736.24-1.125.027-.128-.07-.326-.066-.205.206.04.09.053.207-.077.25-.13.041-.22-.034-.22-.166 0-.133-.12-.201-.235-.237-.114-.035-.286-.066-.44-.1.066-.178.187-.092.297-.064a.64.64 0 0 0 .81-.294c.041-.057.083-.101.14-.066.3.177.53.018.741-.159a.397.397 0 0 1 .387-.086.984.984 0 0 0 .555 0c.184-.051.367-.11.518.128.064.102.295.05.396.203.027.04.101 0 .134-.068a.425.425 0 0 1 .422-.306.42.42 0 0 1 .179.047c.272.086.572.04.829.201a.25.25 0 0 0 .281-.046.258.258 0 0 1 .253-.047c.167.05.3.142.418-.117.053-.115.317-.024.466.038.103.04.209.104.308.066.374-.143.701.115 1.056.106.039-.013.05.03.059.047Zm-1.781-.112c0 .016.015.038.026.042.011.005.03-.011.048-.015l-.037-.058-.037.031ZM96.287 68.146c-.189.051-.44-.097-.563.175a.055.055 0 0 1-.055 0c-.235-.203-.466-.093-.71-.015-.088.028-.145-.104-.185-.202-.04-.097-.154-.128-.272-.128-.12 0-.134.093-.17.173-.052.121 0 .336-.165.351-.165.016-.277-.15-.334-.316 0-.022-.05-.031-.075-.044.165-.135.159-.13.253.015.095.146.123 0 .159-.048.22-.356.565-.383.842-.069.101.117.196.027.28-.035.04-.034.065-.15.111-.115.264.219.642-.018.884.258ZM97.673 68.226c-.027.062-.051.126-.077.19-.027.064-.064.106-.132.095-.069-.01-.11-.07-.126-.144a.442.442 0 0 0-.5-.343.44.44 0 0 0-.201.09.171.171 0 0 1-.187.037c.154-.314.411-.261.66-.173.195.067.376.164.563.248ZM98.752 68.005a.86.86 0 0 1-.572.015.363.363 0 0 0-.472.162c-.13-.243-.055-.327.22-.3.185.009.37.009.556 0a.274.274 0 0 1 .268.123ZM84.951 69.395l.231-.152.046.221a.405.405 0 0 1-.255.022l-.022-.09Z"/><path fill="#E75F35" d="m84.235 70.36-.016.006.002-.016.014.01Z"/><path fill="#FAB06F" d="M89.028 107.235c.047-.133.148-.239 0-.403a.39.39 0 0 1-.055-.442c.051-.084-.017-.148-.066-.221-.048-.073-.052-.183.018-.221.25-.108.134-.243.088-.422a4.738 4.738 0 0 1-.114-.615c-.027-.186-.055-.327-.26-.378a.159.159 0 0 1-.054-.045.166.166 0 0 1-.03-.065c-.01-.06.051-.078.097-.095.304-.12.332-.303.075-.511-.061-.051-.163-.078-.127-.175.035-.097.116-.135.198-.024.041.057.094.124.169.062.075-.062.035-.133-.011-.188-.046-.055-.049-.146-.018-.243.07-.305.084-.62.04-.929a1.494 1.494 0 0 0-.084-.663c-.04-.077.044-.221-.092-.25-.136-.029-.104.148-.205.195-.092-.126-.13-.314-.046-.387.343-.303.137-.613.044-.915-.035-.113-.055-.175.075-.186.13-.011.22-.027.204-.184-.015-.157-.153-.137-.255-.152-.1-.016-.204.108-.255-.033-.05-.142.09-.175.183-.233.187-.114.189-.128.075-.42.127 0 .288.133.345-.126.046-.207-.016-.29-.194-.349-.22-.075-.303-.159-.044-.327.306-.195.398-.937.194-1.327-.143-.265-.108-.366.17-.426.118-.025.162-.06.096-.175-.076-.194-.12-.4-.13-.608-.024-.126-.022-.22-.189-.159-.053.02-.123.029-.154-.044-.03-.073 0-.117.08-.164a.421.421 0 0 0 .202-.442c-.031-.199.048-.387.02-.588-.03-.201.037-.327-.25-.352-.127 0-.107-.307-.166-.468-.033-.089.055-.144.2-.16.26-.028.356-.678.125-.926a.665.665 0 0 1-.167-.546.444.444 0 0 0-.066-.314c-.094-.134-.07-.254.108-.287.12-.02.125-.097.136-.192a2.076 2.076 0 0 1 .163-.838.172.172 0 0 0-.077-.234c-.112-.062-.152 0-.191.106a.293.293 0 0 1-.238.161c-.099.02-.145-.049-.17-.13-.023-.082.045-.138.115-.133.288.018.345-.192.266-.367-.145-.32.156-.42.249-.61.092-.19.2-.266-.066-.338a.095.095 0 0 1-.077-.135c0-.011.015-.025.01-.027-.402-.51.271-.973.076-1.485a.443.443 0 0 0-.088-.19.759.759 0 0 1 0-1.02c.035.155.044.32.266.334a.167.167 0 0 1 .14.172c0 .096-.059.138-.138.173-.08.035-.185.01-.235.124.017.015.035.046.055.048.118 0 .277-.086.33.098a.253.253 0 0 1-.179.329c-.096.038-.055.128-.037.208a.602.602 0 0 1-.136.557c-.196.206-.095.3.103.354.198.053.323.086.17.307-.051.075 0 .13.046.188a.175.175 0 0 1 0 .22c-.152.142-.12.25 0 .401.087.11.01.221-.12.285-.175.08-.303.146-.026.285.203.102.266.268.066.454a.3.3 0 0 0-.092.327.53.53 0 0 1-.011.354.278.278 0 0 0 .092.344c.196.17.113.281-.092.367-.34.146-.363.18-.145.443.393.49.242.91-.073 1.421-.094.157-.13.197.077.21.17.011.255.108.205.285a.327.327 0 0 0 .022.263c.14.21.16.374-.064.555-.106.087-.097.237.101.281.132.029.207.144.09.239-.264.22-.13.464-.066.683.064.219.148.38-.103.54-.139.086-.073.26-.013.384a.644.644 0 0 1 0 .575.667.667 0 0 0-.016.663c.11.192-.074.486.187.648a.184.184 0 0 1-.046.128c-.17.12-.174.29-.196.473-.022.184-.055.305.172.39.15.054.125.231-.022.3-.194.091-.196.292-.293.442-.057.086-.035.208.132.157.106-.031.207-.029.251.088.044.118-.02.186-.117.241-.244.14-.162.361-.125.56a1.4 1.4 0 0 1 .082.283v1.806c0 .084 0 .159.072.221.233.155.152.301-.03.411-.183.111-.256.195-.027.332.09.055.156.168.06.252-.22.192-.087.36.017.524.075.119.112.238-.02.311-.299.164-.13.312 0 .46a.528.528 0 0 1 .141.487.522.522 0 0 1-.337.378Zm.176-2.938c-.01-.065-.055-.076-.103-.062-.048.013-.125.055-.123.137.002.082.05.075.103.066a.158.158 0 0 0 .123-.141ZM88.934 80.692c-.055-.126.017-.243.055-.344.167-.465-.108-.867-.176-1.298.132-.058.264.08.387-.04-.068-.115-.297-.104-.249-.303.256.102.44.25.352.564v.029c-.299.378-.11.857-.26 1.264a.173.173 0 0 1-.11.128ZM89.002 77.2c.013-.379.042-.761-.19-1.106a.07.07 0 0 1 0-.057c.315-.19.067-.547.232-.78a1.2 1.2 0 0 1 .09.81c-.126.39.163.796-.132 1.132ZM92.213 73.527c.244-.15.49.049.74 0 .308-.075.634.016.944-.086a.232.232 0 0 1 .284.155 8.28 8.28 0 0 0-1.304.044 2.109 2.109 0 0 1-.664-.113ZM88.892 77.845a.324.324 0 0 1 .106-.416c.037.184.015.398.257.471.024 0 .05.1.046.102-.22.14-.139.442-.339.595.057-.22.041-.453-.046-.664.04-.037.049-.073-.024-.088ZM89.06 75.09c.17-.33-.17-.422-.296-.605-.052-.078-.171-.115-.103-.222a.147.147 0 0 1 .253-.022c.073.082.165.051.248.069 0 .075-.061.086-.11.117-.134.084-.116.18.014.237.13.057.25.05.237.207-.013.157-.134.177-.244.22ZM88.951 85.236a1.438 1.438 0 0 1 .157-.94c.048-.102 0-.113-.082-.135-.134-.04-.22-.115-.088-.252.231.305.22.305.21.796a.756.756 0 0 1-.197.53ZM99.902 73.532c.08-.093.163-.04.24 0a.317.317 0 0 0 .257.04c.255-.122.517-.047.777-.062.213-.01.425.025.624.104a3.744 3.744 0 0 1-.847-.016c-.079 0-.16-.049-.233 0-.288.16-.552.055-.818-.066ZM97.58 73.598a.22.22 0 0 1 .26-.146c.4.15.816-.046 1.213.069.056.017.121 0 .152.07a7.798 7.798 0 0 1-1.115 0c-.176-.013-.34.027-.51.007ZM89.158 74.06a.625.625 0 0 1-.12-.645c.063-.093.133-.069.202-.025a.838.838 0 0 0 .477.106c-.084.102-.19.168-.31.093-.28-.172-.275 0-.264.201l.015.27ZM89.294 82.715a.241.241 0 0 0-.268.02c-.116.075-.22-.106-.189-.126.257-.183.123-.533.325-.73 0 0 .02.014.02.023-.002.276-.162.575.112.813ZM106.33 73.649a.657.657 0 0 1 .482-.06c.257.02.512-.062.769 0-.411.175-.831.109-1.251.06ZM104.452 73.6c.286 0 .572-.188.862 0 .108.076.158-.097.257-.104 0 .193-.123.317-.268.222a.776.776 0 0 0-.589-.054c-.084.022-.194.05-.262-.064ZM89.21 83.66c0-.067 0-.131-.054-.189-.27-.254-.266-.338.015-.55.04-.03.08-.056.123-.08.069.089-.02.124-.061.168-.134.144-.22.263.015.405.128.08.11.121-.037.245ZM89.02 81.448c-.141-.205 0-.442-.084-.663.242.193.262.35.084.663ZM102.801 73.594l.914-.102a.922.922 0 0 1-.914.102ZM94.886 73.48c.293-.103.54.085.81.125a.097.097 0 0 1-.121.06c-.222-.091-.475-.065-.689-.184ZM96.696 73.583c.244-.04.49-.164.728.015-.242-.002-.488.117-.728-.015ZM95.801 73.587c.207-.153.453-.04.66-.104-.185.217-.424.135-.66.104ZM101.903 73.596c.22-.195.44.024.66 0-.215.168-.437-.011-.66 0ZM105.596 73.485c.255-.146.411.084.609.16-.238.077-.39-.168-.609-.16ZM94.306 73.585c.112-.281.312-.137.49-.104-.145.117-.334.035-.49.104ZM90.238 73.463c.118-.342.235-.08.354 0a.38.38 0 0 1-.354 0ZM89.28 85.543a.291.291 0 0 0-.274-.018c-.066.033-.112 0-.085-.09.138-.032.314-.169.358.108ZM103.872 73.527l.38.08c-.161.135-.286.093-.38-.08ZM91.773 73.49c.108-.02.22-.062.314.042a.22.22 0 0 1-.314-.042ZM99.56 73.494c.116-.177.22-.106.307.022l-.308-.022ZM89.162 74.299v-.239c.165.078.163.16 0 .239ZM91.434 73.472c.075-.108.154-.104.233 0a.189.189 0 0 1-.233 0ZM99.33 73.59c.038-.083.106-.08.179-.067-.027.11-.086.137-.178.066ZM89.857 73.488a.22.22 0 0 1 .22 0 .127.127 0 0 1-.11.065.125.125 0 0 1-.11-.065ZM89.086 85.8a.102.102 0 0 1 .056-.063.103.103 0 0 1 .084 0c-.02.087-.064.11-.14.062ZM85.279 69.132c-.02-.081.026-.17.09-.159.192.033.38.082.563.148.073.027.07.122.02.184s-.07.181-.185.172c-.114-.009-.044-.084-.055-.137-.037-.19-.2-.04-.29-.097l-.143-.11ZM87.982 83.305c.167-.033.268.073.391.089a.125.125 0 0 1 .101.128.118.118 0 0 1-.068.12.142.142 0 0 1-.185-.034l-.24-.303ZM88.784 82.136c-.064.133-.24.104-.347.192-.04.034-.106-.013-.09-.07a.35.35 0 0 1 .294-.24c.073-.02.137 0 .143.118Z"/><path fill="#FAB06F" d="M88.892 96.13c0 .086-.042.106-.11.102a.146.146 0 0 1-.147-.111.149.149 0 0 1-.002-.066c0-.073.04-.15.123-.13.083.02.11.128.136.205Z"/><path fill="#FFFEFE" d="m85.28 69.132.142.11c.088.222.03.29-.194.222l-.046-.221.097-.11Z"/><path fill="#FAB06F" d="M84.556 71.277a.162.162 0 0 1-.137.168c-.079.024-.105-.027-.105-.095a.156.156 0 0 1 .127-.164c.073-.022.108.02.115.09Z"/><path fill="#FFFEFE" d="M88.892 77.845c.073.015.064.05.024.095-.006-.03-.015-.062-.024-.095Z"/><path fill="#E75F35" d="M89.28 118.386c0 .028 0 .057-.012.086a.148.148 0 0 1-.176.148c-.066 0-.112-.038-.099-.11.013-.073.097-.138.194-.133h.088l.004.009ZM89.13 117.373l.015.018s-.013.015-.018.015c-.004 0-.01-.011-.017-.017l.02-.016ZM91.872 68.038l.037-.03.037.056c-.018 0-.035.017-.048.015-.013-.002-.018-.026-.026-.041ZM89.204 104.297a.158.158 0 0 1-.123.141c-.053 0-.101 0-.103-.066-.002-.067.055-.12.123-.137.068-.018.092-.003.103.062Z"/></svg>