<svg xmlns="http://www.w3.org/2000/svg" width="22" height="22" fill="none"><path fill="#34AADF" d="M11 21.928c5.885 0 10.655-4.893 10.655-10.928C21.655 4.964 16.885.072 11 .072S.345 4.964.345 11c0 6.035 4.77 10.928 10.655 10.928Z"/><path fill="#fff" d="M4.913 10.76s5.278-2.302 7.108-3.113c.702-.325 3.081-1.363 3.081-1.363s1.099-.454 1.007.649c-.03.454-.274 2.043-.518 3.763-.367 2.432-.763 5.092-.763 5.092s-.061.746-.58.876c-.518.13-1.373-.454-1.525-.584-.122-.097-2.288-1.557-3.082-2.27-.213-.195-.457-.584.031-1.038 1.098-1.07 2.41-2.4 3.203-3.244.366-.39.732-1.298-.793-.195-2.166 1.59-4.302 3.082-4.302 3.082s-.488.324-1.403.032c-.915-.292-1.983-.68-1.983-.68s-.732-.487.519-1.006Z"/></svg>